<svg width="198" height="128" viewBox="0 0 198 128" fill="none" xmlns="http://www.w3.org/2000/svg">
<rect width="198" height="128" fill="#5865F2"/>
<g filter="url(#filter0_dd_3913_2)">
<path d="M124.554 23.7516C119.635 21.4998 114.443 19.9024 109.109 19C108.38 20.3047 107.719 21.6471 107.131 23.0215C101.45 22.1654 95.6724 22.1654 89.9912 23.0215C89.4028 21.6472 88.7424 20.3049 88.0128 19C82.6759 19.91 77.4802 21.5113 72.5569 23.7634C62.7828 38.2243 60.1332 52.326 61.458 66.2275C67.182 70.4566 73.5887 73.6729 80.3997 75.7366C81.9333 73.6739 83.2904 71.4857 84.4565 69.1951C82.2416 68.3678 80.1039 67.3472 78.068 66.1451C78.6038 65.7565 79.1279 65.3561 79.6342 64.9675C85.5581 67.7534 92.0237 69.1978 98.57 69.1978C105.116 69.1978 111.582 67.7534 117.506 64.9675C118.018 65.3855 118.542 65.7859 119.072 66.1451C117.032 67.3492 114.891 68.3717 112.672 69.201C113.836 71.4905 115.194 73.6769 116.729 75.7366C123.545 73.6812 129.957 70.4664 135.682 66.2334C137.236 50.1121 133.026 36.1399 124.554 23.7516ZM86.1346 57.6782C82.4428 57.6782 79.3928 54.3279 79.3928 50.2063C79.3928 46.0847 82.3368 42.705 86.1228 42.705C89.9088 42.705 92.9352 46.0847 92.8704 50.2063C92.8057 54.3279 89.897 57.6782 86.1346 57.6782ZM111.005 57.6782C107.308 57.6782 104.27 54.3279 104.27 50.2063C104.27 46.0847 107.214 42.705 111.005 42.705C114.797 42.705 117.8 46.0847 117.735 50.2063C117.671 54.3279 114.768 57.6782 111.005 57.6782Z" fill="white"/>
</g>
<g filter="url(#filter1_dd_3913_2)">
<path d="M43 91.8759H51.9823C54.1472 91.8759 55.9788 92.2137 57.4769 92.8893C58.8562 93.4692 60.0275 94.4534 60.8362 95.7123C61.5933 96.9559 61.9813 98.3891 61.9549 99.8448C61.9715 101.307 61.5685 102.744 60.7934 103.984C59.9289 105.294 58.6927 106.316 57.2433 106.919C55.6552 107.643 53.6866 108.003 51.3374 108.001H43V91.8759ZM51.2453 103.898C52.7039 103.898 53.8248 103.534 54.6079 102.806C55.0049 102.421 55.3151 101.955 55.5177 101.441C55.7203 100.926 55.8105 100.374 55.7825 99.8218C55.8069 99.309 55.7267 98.7966 55.5469 98.3159C55.367 97.8351 55.0912 97.3959 54.7362 97.0251C54.0343 96.3276 52.9781 95.9777 51.5677 95.9755H48.7579V103.898H51.2453Z" fill="white"/>
<path d="M75.4051 107.975C74.2201 107.678 73.0865 107.204 72.0425 106.57V102.747C72.954 103.41 73.9802 103.898 75.0695 104.188C76.261 104.551 77.4989 104.741 78.7446 104.75C79.1746 104.773 79.6042 104.699 80.0015 104.533C80.2845 104.389 80.4259 104.204 80.4259 104.013C80.429 103.907 80.4101 103.801 80.3705 103.702C80.3309 103.603 80.2713 103.513 80.1956 103.438C79.9328 103.236 79.6244 103.101 79.2974 103.046L76.5336 102.424C74.9499 102.056 73.8258 101.546 73.1611 100.894C72.8275 100.558 72.5675 100.156 72.3975 99.7132C72.2276 99.2709 72.1515 98.798 72.1741 98.3247C72.163 97.4668 72.4755 96.6363 73.0493 95.9985C73.7296 95.2788 74.5875 94.7511 75.5367 94.4686C76.7581 94.0846 78.0337 93.9013 79.3138 93.9257C80.5088 93.9144 81.7005 94.0537 82.8607 94.3402C83.7978 94.5623 84.6977 94.9191 85.5323 95.3997V99.0189C84.7497 98.5648 83.9083 98.2205 83.0318 97.9957C82.0822 97.741 81.1031 97.6127 80.12 97.614C78.6766 97.614 77.955 97.8597 77.955 98.351C77.9526 98.4604 77.9825 98.5681 78.041 98.6606C78.0996 98.7531 78.1841 98.8262 78.284 98.8709C78.6783 99.0385 79.0915 99.1578 79.5145 99.2262L81.8177 99.6408C83.3136 99.904 84.429 100.365 85.1638 101.023C85.8987 101.681 86.2671 102.644 86.2693 103.911C86.281 104.578 86.118 105.236 85.7965 105.82C85.475 106.405 85.0062 106.894 84.4367 107.241C83.2237 108.055 81.492 108.461 79.2415 108.459C77.9473 108.461 76.6582 108.298 75.4051 107.975Z" fill="white"/>
<path d="M91.7115 107.491C90.4802 106.925 89.4424 106.01 88.7273 104.859C88.0602 103.73 87.7186 102.439 87.7402 101.128C87.7204 99.8178 88.0803 98.5299 88.7766 97.4199C89.5188 96.2869 90.5754 95.3951 91.8168 94.8535C93.3262 94.1958 94.9614 93.8769 96.6073 93.9191C98.9105 93.9191 100.822 94.4028 102.342 95.3701V99.5914C101.764 99.2027 101.132 98.9001 100.467 98.6932C99.7219 98.4581 98.9447 98.3415 98.1636 98.3477C96.7357 98.3477 95.6181 98.6088 94.8109 99.1308C94.448 99.3333 94.1453 99.6283 93.9335 99.9858C93.7216 100.343 93.6083 100.751 93.605 101.166C93.6016 101.582 93.7084 101.991 93.9144 102.351C94.1205 102.712 94.4184 103.012 94.778 103.221C95.5611 103.749 96.6973 104.013 98.1866 104.013C98.9554 104.015 99.7203 103.904 100.457 103.684C101.129 103.492 101.774 103.217 102.378 102.865V106.945C100.598 107.983 98.5657 108.509 96.5053 108.465C94.8541 108.51 93.2143 108.177 91.7115 107.491Z" fill="white"/>
<path d="M108.077 107.491C106.832 106.923 105.776 106.009 105.034 104.859C104.334 103.733 103.971 102.43 103.987 101.105C103.965 99.7952 104.329 98.5078 105.034 97.4035C105.78 96.2826 106.831 95.3988 108.064 94.8569C111.092 93.6284 114.479 93.6284 117.507 94.8569C118.735 95.3947 119.782 96.2741 120.524 97.3903C121.224 98.4987 121.584 99.7877 121.56 101.098C121.577 102.423 121.217 103.724 120.524 104.853C119.79 106.003 118.739 106.918 117.497 107.485C116.009 108.123 114.406 108.452 112.787 108.452C111.168 108.452 109.565 108.123 108.077 107.485V107.491ZM115.075 103.405C115.36 103.111 115.581 102.762 115.726 102.38C115.871 101.997 115.936 101.589 115.918 101.181C115.937 100.776 115.873 100.371 115.728 99.993C115.583 99.6146 115.361 99.2706 115.075 98.9828C114.766 98.699 114.402 98.4802 114.007 98.3395C113.611 98.1987 113.191 98.1389 112.772 98.1635C112.353 98.1415 111.934 98.2025 111.539 98.3431C111.143 98.4837 110.78 98.7011 110.469 98.9828C110.185 99.2712 109.963 99.6154 109.819 99.9937C109.675 100.372 109.61 100.776 109.63 101.181C109.612 101.589 109.676 101.997 109.821 102.379C109.965 102.761 110.186 103.11 110.469 103.405C110.777 103.692 111.14 103.915 111.535 104.059C111.931 104.203 112.352 104.266 112.772 104.244C113.193 104.268 113.614 104.207 114.01 104.062C114.406 103.918 114.769 103.694 115.075 103.405Z" fill="white"/>
<path d="M135.402 94.7713V99.7527C134.715 99.3424 133.922 99.1422 133.122 99.1769C131.895 99.1769 130.947 99.552 130.289 100.296C129.631 101.039 129.302 102.194 129.302 103.76V107.998H123.66V94.5245H129.187V98.8018C129.494 97.2357 129.99 96.0808 130.674 95.3372C131.006 94.9716 131.413 94.6822 131.868 94.4891C132.322 94.2959 132.813 94.2036 133.307 94.2185C134.044 94.1984 134.771 94.3903 135.402 94.7713Z" fill="white"/>
<path d="M154.15 91.4153V107.998H148.507V104.971C148.082 106.049 147.317 106.959 146.329 107.564C145.238 108.185 143.998 108.495 142.743 108.459C141.562 108.486 140.4 108.162 139.403 107.527C138.439 106.901 137.67 106.015 137.186 104.971C136.657 103.819 136.394 102.563 136.416 101.296C136.379 99.9819 136.659 98.6784 137.232 97.4956C137.759 96.4122 138.581 95.4998 139.604 94.8634C140.656 94.2263 141.866 93.899 143.095 93.9191C145.78 93.9191 147.584 95.0861 148.507 97.4199V91.4153H154.15ZM147.678 103.326C147.966 103.043 148.191 102.703 148.34 102.328C148.489 101.953 148.559 101.551 148.544 101.148C148.556 100.757 148.485 100.367 148.336 100.005C148.187 99.6436 147.963 99.3175 147.678 99.0486C147.033 98.523 146.226 98.236 145.393 98.236C144.561 98.236 143.754 98.523 143.108 99.0486C142.825 99.3237 142.602 99.6554 142.455 100.022C142.309 100.389 142.241 100.783 142.256 101.177C142.242 101.576 142.311 101.973 142.459 102.343C142.608 102.713 142.832 103.048 143.118 103.326C143.42 103.607 143.776 103.825 144.163 103.966C144.551 104.108 144.963 104.171 145.375 104.152C145.795 104.175 146.215 104.114 146.61 103.972C147.006 103.83 147.369 103.61 147.678 103.326Z" fill="white"/>
<path d="M66.7125 95.959C68.2662 95.959 69.5257 94.8277 69.5257 93.4322C69.5257 92.0366 68.2662 90.9053 66.7125 90.9053C65.1589 90.9053 63.8994 92.0366 63.8994 93.4322C63.8994 94.8277 65.1589 95.959 66.7125 95.959Z" fill="white"/>
<path d="M63.896 97.6996C64.7872 98.0741 65.7441 98.267 66.7108 98.267C67.6774 98.267 68.6344 98.0741 69.5255 97.6996V108.07H63.896V97.6996Z" fill="white"/>
</g>
<defs>
<filter id="filter0_dd_3913_2" x="56.9753" y="11.9711" width="83.1894" height="71.9304" filterUnits="userSpaceOnUse" color-interpolation-filters="sRGB">
<feFlood flood-opacity="0" result="BackgroundImageFix"/>
<feColorMatrix in="SourceAlpha" type="matrix" values="0 0 0 0 0 0 0 0 0 0 0 0 0 0 0 0 0 0 127 0" result="hardAlpha"/>
<feOffset dy="4"/>
<feGaussianBlur stdDeviation="2.08239"/>
<feComposite in2="hardAlpha" operator="out"/>
<feColorMatrix type="matrix" values="0 0 0 0 0 0 0 0 0 0 0 0 0 0 0 0 0 0 0.25 0"/>
<feBlend mode="normal" in2="BackgroundImageFix" result="effect1_dropShadow_3913_2"/>
<feColorMatrix in="SourceAlpha" type="matrix" values="0 0 0 0 0 0 0 0 0 0 0 0 0 0 0 0 0 0 127 0" result="hardAlpha"/>
<feOffset dy="-4"/>
<feGaussianBlur stdDeviation="1.51447"/>
<feComposite in2="hardAlpha" operator="out"/>
<feColorMatrix type="matrix" values="0 0 0 0 1 0 0 0 0 1 0 0 0 0 1 0 0 0 0.25 0"/>
<feBlend mode="normal" in2="effect1_dropShadow_3913_2" result="effect2_dropShadow_3913_2"/>
<feBlend mode="normal" in="SourceGraphic" in2="effect2_dropShadow_3913_2" result="shape"/>
</filter>
<filter id="filter1_dd_3913_2" x="37.5" y="84.9053" width="122.15" height="31.0639" filterUnits="userSpaceOnUse" color-interpolation-filters="sRGB">
<feFlood flood-opacity="0" result="BackgroundImageFix"/>
<feColorMatrix in="SourceAlpha" type="matrix" values="0 0 0 0 0 0 0 0 0 0 0 0 0 0 0 0 0 0 127 0" result="hardAlpha"/>
<feOffset dy="2"/>
<feGaussianBlur stdDeviation="2.75"/>
<feComposite in2="hardAlpha" operator="out"/>
<feColorMatrix type="matrix" values="0 0 0 0 0 0 0 0 0 0 0 0 0 0 0 0 0 0 0.25 0"/>
<feBlend mode="normal" in2="BackgroundImageFix" result="effect1_dropShadow_3913_2"/>
<feColorMatrix in="SourceAlpha" type="matrix" values="0 0 0 0 0 0 0 0 0 0 0 0 0 0 0 0 0 0 127 0" result="hardAlpha"/>
<feOffset dy="-2"/>
<feGaussianBlur stdDeviation="2"/>
<feComposite in2="hardAlpha" operator="out"/>
<feColorMatrix type="matrix" values="0 0 0 0 1 0 0 0 0 1 0 0 0 0 1 0 0 0 0.25 0"/>
<feBlend mode="normal" in2="effect1_dropShadow_3913_2" result="effect2_dropShadow_3913_2"/>
<feBlend mode="normal" in="SourceGraphic" in2="effect2_dropShadow_3913_2" result="shape"/>
</filter>
</defs>
</svg>
