<svg width="198" height="128" viewBox="0 0 198 128" fill="none" xmlns="http://www.w3.org/2000/svg">
<rect width="198" height="128" fill="#FBFB01"/>
<g filter="url(#filter0_dd_3913_112)">
<path d="M127.718 58.8791C120.056 57.6158 116.555 49.6803 116.441 49.4225C116.426 49.3761 116.39 49.2936 116.369 49.2472C116.137 48.7831 115.905 48.1283 116.101 47.6642C116.436 46.8702 118.03 46.3648 118.983 46.0606C119.319 45.9523 119.638 45.8544 119.886 45.7564C122.201 44.8386 123.356 43.6423 123.33 42.1883C123.31 41.0178 122.412 39.9453 121.092 39.4812C120.633 39.2853 120.107 39.1873 119.576 39.1873C119.215 39.1873 118.669 39.2389 118.143 39.4812C117.261 39.8937 116.488 40.1155 115.936 40.1412C115.817 40.1361 115.714 40.1258 115.627 40.1103L115.683 39.2028C115.941 35.0984 116.266 29.9834 114.879 26.8742C110.785 17.7116 102.112 17 99.5495 17L98.3842 17.0103C95.8267 17.0103 87.1693 17.7219 83.0856 26.8794C81.6986 29.9886 82.0183 35.0984 82.2812 39.208L82.2915 39.3627C82.307 39.6153 82.3225 39.868 82.3379 40.1103C81.7656 40.2134 80.6467 40.0227 79.4865 39.4812C77.9087 38.7439 75.0676 39.7184 74.6758 41.7809C74.5004 42.6936 74.7118 44.4261 78.0737 45.7512C78.3264 45.8544 78.6409 45.9523 78.9812 46.0606C79.93 46.3648 81.5233 46.865 81.8584 47.6642C82.0543 48.1283 81.8223 48.7831 81.549 49.3452C81.4047 49.6803 77.9242 57.6158 70.2465 58.8791C69.2668 59.0389 68.5708 59.9052 68.6223 60.9055C68.6378 61.1684 68.7048 61.4314 68.8131 61.6892C69.5092 63.3237 72.0409 64.4478 76.764 65.2161C76.8465 65.4945 76.9393 65.907 76.9909 66.1339C77.0889 66.6031 77.1972 67.0775 77.3415 67.5725C77.4808 68.0417 77.9603 69.1297 79.4556 69.1297C79.9093 69.1297 80.4043 69.0317 80.9354 68.9286C81.7192 68.7739 82.6989 68.5831 83.957 68.5831C84.6583 68.5831 85.3801 68.645 86.1072 68.7636C87.4478 68.9853 88.6595 69.8464 90.0672 70.8364C92.2637 72.3936 94.7542 74.1519 98.6162 74.1519C98.7193 74.1519 98.8225 74.1467 98.9204 74.1416C99.0597 74.1467 99.204 74.1519 99.3484 74.1519C103.21 74.1519 105.701 72.3884 107.903 70.8364C109.243 69.8825 110.512 68.9905 111.857 68.7636C112.585 68.645 113.306 68.5831 114.008 68.5831C115.219 68.5831 116.178 68.7378 117.034 68.908C117.643 69.0266 118.127 69.0833 118.576 69.0833C119.576 69.0833 120.345 68.5109 120.623 67.5519C120.767 67.0672 120.871 66.598 120.974 66.1236C121.015 65.9483 121.113 65.5048 121.201 65.2109C125.924 64.4427 128.455 63.3186 129.146 61.6995C129.26 61.4417 129.322 61.1736 129.342 60.8952C129.394 59.9103 128.698 59.0441 127.718 58.8791Z" fill="white"/>
<path d="M127.962 57.399L127.967 57.3999C129.693 57.6906 130.932 59.2224 130.84 60.9736L130.839 60.9898L130.838 61.006C130.806 61.4348 130.709 61.8693 130.523 62.2959C129.959 63.6086 128.749 64.5016 127.292 65.146C126.019 65.7095 124.391 66.1572 122.422 66.5213C122.325 66.9696 122.215 67.4618 122.062 67.9761C121.594 69.5782 120.236 70.5833 118.576 70.5833C117.999 70.5833 117.412 70.5098 116.747 70.3803L116.742 70.3792C115.935 70.2188 115.082 70.0831 114.008 70.0831C113.395 70.0831 112.756 70.1371 112.103 70.2433C111.164 70.4029 110.188 71.0513 108.772 72.0586L108.767 72.0624L108.688 72.1182C106.498 73.6623 103.676 75.6519 99.3484 75.6519C99.2 75.6519 99.0553 75.6474 98.9315 75.643C98.8429 75.6474 98.732 75.6519 98.6162 75.6519C94.2657 75.6519 91.4385 73.6474 89.2441 72.0916L89.2043 72.0633C89.2034 72.0628 89.2026 72.0622 89.2018 72.0616C87.7078 71.0109 86.7959 70.3985 85.8644 70.2438C85.2109 70.1373 84.5704 70.0831 83.957 70.0831C82.8551 70.0831 81.9975 70.2479 81.2259 70.4002L81.2214 70.4011C81.1945 70.4063 81.1672 70.4116 81.1394 70.417C80.6622 70.5101 80.0491 70.6297 79.4556 70.6297C78.2963 70.6297 77.4192 70.1893 76.819 69.5772C76.2587 69.0058 76.0105 68.36 75.9035 67.9992L75.9015 67.9925C75.751 67.4763 75.6381 66.9878 75.5406 66.5262C73.573 66.162 71.9447 65.7141 70.6701 65.1486C69.2071 64.4995 67.9963 63.5996 67.433 62.2769L67.4301 62.2701C67.2669 61.8815 67.1519 61.452 67.1249 60.9936L67.1243 60.9827L67.1243 60.9827C67.0338 59.2262 68.2635 57.6828 70.005 57.3986C73.3644 56.8452 75.861 54.8238 77.5777 52.7951C79.2923 50.769 80.1291 48.85 80.1714 48.7517L80.185 48.7201L80.2 48.6892C80.2873 48.5097 80.3494 48.3588 80.3879 48.2384C80.2963 48.1789 80.172 48.1097 80.0112 48.034C79.5583 47.8209 79.0223 47.649 78.5285 47.4907L78.5264 47.49C78.4974 47.4808 78.4678 47.4714 78.4377 47.4618C78.1461 47.3693 77.8057 47.2614 77.5156 47.1436C75.6558 46.4092 74.4561 45.4806 73.7808 44.4136C73.0873 43.3178 73.058 42.2525 73.2024 41.4995C73.5215 39.8232 74.7984 38.7361 76.0463 38.2021C77.2741 37.6767 78.8405 37.5236 80.1216 38.1223C80.328 38.2186 80.5308 38.3004 80.7252 38.3686C80.6132 36.5546 80.5118 34.5497 80.5652 32.6269C80.6273 30.3939 80.8993 28.0984 81.7157 26.2683C86.1723 16.2747 95.6449 15.5116 98.3774 15.5103L99.5362 15.5001L99.5495 15.4999V15.5C102.277 15.5 111.777 16.2557 116.249 26.2623L116.249 26.2631C117.066 28.0938 117.336 30.3912 117.397 32.6241C117.449 34.5034 117.353 36.4612 117.246 38.24C117.33 38.2038 117.417 38.1647 117.507 38.1226L117.515 38.1189C118.31 37.7525 119.096 37.6873 119.576 37.6873C120.268 37.6873 120.981 37.811 121.635 38.0824C123.365 38.7078 124.796 40.2257 124.83 42.1619M127.962 57.399L123.33 42.1883M127.962 57.399C124.609 56.8462 122.11 54.824 120.392 52.8025C118.794 50.922 117.961 49.1428 117.831 48.8566M127.962 57.399L127.718 58.8791M124.83 42.1619L123.33 42.1883M124.83 42.1619C124.83 42.1618 124.83 42.1617 124.83 42.1617L123.33 42.1883M124.83 42.1619C124.873 44.6191 122.877 46.1842 120.439 47.1508L120.438 47.1511C120.185 47.2513 119.873 47.351 119.606 47.4361C119.55 47.4541 119.496 47.4714 119.445 47.488L119.439 47.4897C118.945 47.6472 118.404 47.8213 117.95 48.0356C117.788 48.1119 117.662 48.1817 117.57 48.2418M123.33 42.1883C123.356 43.6423 122.201 44.8386 119.886 45.7564C119.685 45.8359 119.436 45.9154 119.171 46.0005C119.109 46.0202 119.047 46.0402 118.983 46.0606L118.972 46.0643C118.017 46.3689 116.435 46.8734 116.101 47.6642C115.905 48.1283 116.137 48.7831 116.369 49.2472C116.39 49.2936 116.426 49.3761 116.441 49.4225M117.57 48.2418C117.557 48.201 117.546 48.163 117.539 48.1285C117.529 48.0838 117.528 48.0629 117.528 48.0629C117.527 48.0629 117.528 48.0641 117.527 48.0664C117.527 48.0796 117.524 48.1493 117.483 48.2477C117.456 48.3108 117.43 48.3456 117.421 48.3554M117.57 48.2418C117.534 48.2651 117.503 48.287 117.477 48.3072C117.444 48.3327 117.427 48.3491 117.421 48.3554M117.57 48.2418C117.602 48.3404 117.65 48.4555 117.711 48.5764L117.726 48.6068L117.74 48.638L117.742 48.6429C117.754 48.6705 117.795 48.7609 117.831 48.8566M117.421 48.3554C117.42 48.3573 117.419 48.3583 117.419 48.3583C117.419 48.3583 117.42 48.3574 117.421 48.3554ZM117.831 48.8566C117.822 48.8364 117.817 48.8237 117.815 48.8188L117.814 48.8184L116.441 49.4225M117.831 48.8566C117.843 48.8872 117.854 48.9184 117.864 48.9482L116.441 49.4225M116.441 49.4225C116.555 49.6803 120.056 57.6158 127.718 58.8791M107.903 70.8364L107.884 70.8498C105.687 72.3985 103.199 74.1519 99.3484 74.1519C99.204 74.1519 99.0597 74.1467 98.9204 74.1416C98.8225 74.1467 98.7193 74.1519 98.6162 74.1519C94.7542 74.1519 92.2637 72.3936 90.0672 70.8364L90.0163 70.8006C88.6303 69.8257 87.4316 68.9826 86.1072 68.7636C85.3801 68.645 84.6583 68.5831 83.957 68.5831C82.6989 68.5831 81.7192 68.7739 80.9354 68.9286L107.903 70.8364ZM107.903 70.8364C109.243 69.8825 110.512 68.9905 111.857 68.7636C112.585 68.645 113.306 68.5831 114.008 68.5831C115.219 68.5831 116.178 68.7378 117.034 68.908M107.903 70.8364L117.034 68.908M117.034 68.908C117.643 69.0266 118.127 69.0833 118.576 69.0833C119.576 69.0833 120.345 68.5109 120.623 67.5519C120.767 67.0672 120.871 66.598 120.974 66.1236M117.034 68.908L129.342 60.8952M129.342 60.8952C129.322 61.1736 129.26 61.4417 129.146 61.6995C128.455 63.3186 125.924 64.4427 121.201 65.2109M129.342 60.8952C129.394 59.9103 128.698 59.0441 127.718 58.8791M129.342 60.8952L127.718 58.8791M121.201 65.2109C121.128 65.454 121.049 65.7994 121 66.0108C120.99 66.055 120.981 66.0933 120.974 66.1236M121.201 65.2109L121.363 66.2082M121.201 65.2109L122.638 65.6396C122.581 65.8312 122.517 66.1093 122.467 66.324C122.456 66.371 122.446 66.4149 122.437 66.4542L121.363 66.2082M120.974 66.1236L121.363 66.2082M120.974 66.1236L121.364 66.2154L121.363 66.2082M117.144 39.8845L117.18 39.2968L115.976 39.2212L115.937 40.1297M117.144 39.8845L117.18 39.2964L115.976 39.2211L116.001 38.6427C115.971 38.6414 115.948 38.6397 115.93 38.6381M117.144 39.8845C116.72 40.0258 116.341 40.1097 116.027 40.1354L115.937 40.1297M117.144 39.8845L115.93 38.6381M115.937 40.1297L115.936 40.1296M115.937 40.1297L115.936 40.1412L115.936 40.1296M115.936 40.1296L115.893 39.216L115.786 39.2092M115.936 40.1296L115.627 40.1103L115.786 39.2092M115.786 39.2092L115.786 39.2092M115.786 39.2092L115.683 39.2028L115.786 39.2092M115.786 39.2092L115.893 39.2159L115.87 38.7307M115.786 39.2092L115.87 38.7307M115.87 38.7307L115.886 38.6418M115.87 38.7307L115.866 38.6429C115.872 38.6426 115.879 38.6422 115.886 38.6418M115.886 38.6418C115.9 38.6409 115.915 38.6397 115.93 38.6381M115.886 38.6418L115.887 38.6331C115.891 38.6337 115.904 38.6359 115.93 38.6381M80.5388 48.3546C80.5387 48.3546 80.5378 48.3537 80.5363 48.3518C80.5381 48.3537 80.5388 48.3546 80.5388 48.3546Z" stroke="black" stroke-width="3"/>
</g>
<g filter="url(#filter1_dd_3913_112)">
<mask id="path-3-outside-1_3913_112" maskUnits="userSpaceOnUse" x="54" y="89" width="89" height="25" fill="black">
<rect fill="white" x="54" y="89" width="89" height="25"/>
<path d="M57.7507 103.427L60.241 102.127C60.5217 102.695 60.8879 103.113 61.3396 103.382C61.7974 103.65 62.2979 103.784 62.8411 103.784C63.5063 103.784 64.0007 103.659 64.3242 103.409C64.6477 103.153 64.8094 102.802 64.8094 102.356C64.8094 101.898 64.6324 101.538 64.2784 101.276C63.9305 101.013 63.3782 100.812 62.6213 100.672C61.1687 100.391 60.1006 99.9423 59.417 99.3258C58.7395 98.7032 58.4008 97.8457 58.4008 96.7532C58.4008 95.5081 58.8402 94.5132 59.7191 93.7686C60.598 93.0239 61.7577 92.6516 63.1981 92.6516C64.1808 92.6516 65.0414 92.85 65.7799 93.2467C66.5184 93.6434 67.0983 94.2111 67.5194 94.9496L65.0841 96.2039C64.84 95.7888 64.5623 95.4897 64.251 95.3066C63.9397 95.1174 63.5369 95.0228 63.0425 95.0228C62.4688 95.0228 62.0262 95.1479 61.715 95.3982C61.4098 95.6484 61.2572 95.9628 61.2572 96.3412C61.2572 96.7257 61.4098 97.037 61.715 97.275C62.0201 97.507 62.5908 97.6962 63.427 97.8427C64.8186 98.0929 65.8684 98.5568 66.5764 99.2343C67.2905 99.9056 67.6476 100.818 67.6476 101.972C67.6476 103.278 67.2295 104.315 66.3933 105.084C65.5571 105.847 64.3639 106.229 62.8136 106.229C61.6906 106.229 60.6774 105.985 59.774 105.496C58.8768 105.002 58.2024 104.312 57.7507 103.427ZM78.405 106H75.5211V100.617C75.5211 100.019 75.3929 99.5425 75.1366 99.1885C74.8802 98.8284 74.4988 98.6483 73.9922 98.6483C73.4856 98.6483 73.0675 98.8375 72.7379 99.2159C72.4083 99.5944 72.2435 100.073 72.2435 100.653V106H69.3505V96.625H72.2435V97.8152H72.2802C72.5853 97.3879 73.0095 97.0461 73.5527 96.7898C74.0959 96.5273 74.6422 96.3961 75.1915 96.3961C76.2474 96.3961 77.047 96.7257 77.5902 97.3849C78.1334 98.0441 78.405 98.9749 78.405 100.177V106ZM88.3202 106H85.5828V104.947H85.5461C85.1982 105.374 84.7893 105.695 84.3193 105.908C83.8555 106.122 83.3336 106.229 82.7538 106.229C81.9603 106.229 81.2737 105.985 80.6938 105.496C80.114 105.002 79.8241 104.325 79.8241 103.464C79.8241 102.628 80.1018 101.929 80.6572 101.367C81.2126 100.8 82.0305 100.458 83.1108 100.342L85.6011 100.077V99.7927C85.6011 99.335 85.4546 98.9901 85.1616 98.7582C84.8748 98.5262 84.5146 98.4103 84.0813 98.4103C83.6479 98.4103 83.2665 98.511 82.9369 98.7124C82.6073 98.9138 82.3082 99.2129 82.0397 99.6096L80.1079 98.4561C80.4436 97.9189 80.9807 97.4429 81.7192 97.0278C82.4578 96.6067 83.3306 96.3961 84.3376 96.3961C85.6316 96.3961 86.6173 96.7288 87.2948 97.394C87.9784 98.0593 88.3202 99.0603 88.3202 100.397V106ZM85.6011 102.191V101.834L83.7334 102.017C83.3 102.066 82.9827 102.188 82.7812 102.384C82.5859 102.573 82.4883 102.832 82.4883 103.162C82.4883 103.455 82.5981 103.699 82.8179 103.894C83.0376 104.083 83.3153 104.178 83.651 104.178C84.2247 104.178 84.6917 103.992 85.0518 103.62C85.418 103.241 85.6011 102.765 85.6011 102.191ZM93.3556 105.203H93.319V110.312H90.4259V96.625H93.319V97.8427H93.3556C93.7157 97.3605 94.1582 97.0004 94.6831 96.7623C95.208 96.5182 95.7939 96.3961 96.4409 96.3961C97.6616 96.3961 98.6138 96.802 99.2974 97.6138C99.981 98.4255 100.323 99.5699 100.323 101.047C100.323 102.609 99.926 103.864 99.1326 104.81C98.3391 105.756 97.3046 106.229 96.0289 106.229C95.4613 106.229 94.9486 106.143 94.4908 105.973C94.0331 105.802 93.6547 105.545 93.3556 105.203ZM93.2732 100.955V101.926C93.2732 102.53 93.4594 103.021 93.8317 103.4C94.204 103.778 94.674 103.968 95.2416 103.968C95.8885 103.968 96.4012 103.717 96.7797 103.217C97.1642 102.716 97.3564 102.005 97.3564 101.084C97.3564 100.272 97.1855 99.6646 96.8438 99.2617C96.5081 98.8528 96.0259 98.6483 95.3972 98.6483C94.793 98.6483 94.2864 98.8589 93.8774 99.28C93.4746 99.7012 93.2732 100.26 93.2732 100.955ZM110.448 103.83C110.027 104.618 109.454 105.216 108.727 105.625C108.007 106.027 107.18 106.229 106.246 106.229C104.745 106.229 103.57 105.799 102.721 104.938C101.879 104.071 101.458 102.939 101.458 101.541C101.458 99.9484 101.925 98.6941 102.859 97.7786C103.793 96.863 105.007 96.4053 106.503 96.4053C107.424 96.4053 108.236 96.6219 108.938 97.0553C109.64 97.4825 110.113 98.1082 110.357 98.9321L108.013 99.8019C107.83 99.4052 107.607 99.1152 107.345 98.9321C107.089 98.7429 106.771 98.6483 106.393 98.6483C105.825 98.6483 105.349 98.868 104.964 99.3075C104.586 99.7408 104.397 100.421 104.397 101.349C104.397 102.228 104.577 102.872 104.937 103.281C105.297 103.69 105.755 103.894 106.31 103.894C106.731 103.894 107.085 103.806 107.372 103.629C107.665 103.446 107.934 103.156 108.178 102.759L110.448 103.83ZM121.16 106H118.276V100.598C118.276 99.9697 118.145 99.4875 117.883 99.1519C117.626 98.8162 117.257 98.6483 116.775 98.6483C116.262 98.6483 115.847 98.8375 115.53 99.2159C115.212 99.5944 115.054 100.073 115.054 100.653V106H112.161V92.1206H115.054V97.7969H115.09C115.389 97.3879 115.81 97.0522 116.354 96.7898C116.897 96.5273 117.437 96.3961 117.974 96.3961C118.975 96.3961 119.756 96.7104 120.318 97.3391C120.879 97.9678 121.16 98.9108 121.16 100.168V106ZM131.075 106H128.338V104.947H128.301C127.953 105.374 127.544 105.695 127.074 105.908C126.611 106.122 126.089 106.229 125.509 106.229C124.715 106.229 124.029 105.985 123.449 105.496C122.869 105.002 122.579 104.325 122.579 103.464C122.579 102.628 122.857 101.929 123.412 101.367C123.968 100.8 124.786 100.458 125.866 100.342L128.356 100.077V99.7927C128.356 99.335 128.21 98.9901 127.917 98.7582C127.63 98.5262 127.27 98.4103 126.836 98.4103C126.403 98.4103 126.022 98.511 125.692 98.7124C125.362 98.9138 125.063 99.2129 124.795 99.6096L122.863 98.4561C123.199 97.9189 123.736 97.4429 124.474 97.0278C125.213 96.6067 126.086 96.3961 127.093 96.3961C128.387 96.3961 129.372 96.7288 130.05 97.394C130.734 98.0593 131.075 99.0603 131.075 100.397V106ZM128.356 102.191V101.834L126.489 102.017C126.055 102.066 125.738 102.188 125.536 102.384C125.341 102.573 125.243 102.832 125.243 103.162C125.243 103.455 125.353 103.699 125.573 103.894C125.793 104.083 126.07 104.178 126.406 104.178C126.98 104.178 127.447 103.992 127.807 103.62C128.173 103.241 128.356 102.765 128.356 102.191ZM139.462 105.332C139.175 105.594 138.821 105.811 138.4 105.982C137.978 106.146 137.521 106.229 137.026 106.229C135.952 106.229 135.156 105.982 134.637 105.487C134.118 104.993 133.859 104.254 133.859 103.272V98.7582H132.339V96.625H133.859V94.2355L136.742 93.7228V96.625H138.995V98.7582H136.742V103.253C136.742 103.54 136.803 103.757 136.926 103.903C137.054 104.05 137.231 104.123 137.457 104.123C137.591 104.123 137.725 104.102 137.859 104.059C138 104.01 138.146 103.916 138.299 103.775L139.462 105.332Z"/>
</mask>
<path d="M57.7507 103.427L60.241 102.127C60.5217 102.695 60.8879 103.113 61.3396 103.382C61.7974 103.65 62.2979 103.784 62.8411 103.784C63.5063 103.784 64.0007 103.659 64.3242 103.409C64.6477 103.153 64.8094 102.802 64.8094 102.356C64.8094 101.898 64.6324 101.538 64.2784 101.276C63.9305 101.013 63.3782 100.812 62.6213 100.672C61.1687 100.391 60.1006 99.9423 59.417 99.3258C58.7395 98.7032 58.4008 97.8457 58.4008 96.7532C58.4008 95.5081 58.8402 94.5132 59.7191 93.7686C60.598 93.0239 61.7577 92.6516 63.1981 92.6516C64.1808 92.6516 65.0414 92.85 65.7799 93.2467C66.5184 93.6434 67.0983 94.2111 67.5194 94.9496L65.0841 96.2039C64.84 95.7888 64.5623 95.4897 64.251 95.3066C63.9397 95.1174 63.5369 95.0228 63.0425 95.0228C62.4688 95.0228 62.0262 95.1479 61.715 95.3982C61.4098 95.6484 61.2572 95.9628 61.2572 96.3412C61.2572 96.7257 61.4098 97.037 61.715 97.275C62.0201 97.507 62.5908 97.6962 63.427 97.8427C64.8186 98.0929 65.8684 98.5568 66.5764 99.2343C67.2905 99.9056 67.6476 100.818 67.6476 101.972C67.6476 103.278 67.2295 104.315 66.3933 105.084C65.5571 105.847 64.3639 106.229 62.8136 106.229C61.6906 106.229 60.6774 105.985 59.774 105.496C58.8768 105.002 58.2024 104.312 57.7507 103.427ZM78.405 106H75.5211V100.617C75.5211 100.019 75.3929 99.5425 75.1366 99.1885C74.8802 98.8284 74.4988 98.6483 73.9922 98.6483C73.4856 98.6483 73.0675 98.8375 72.7379 99.2159C72.4083 99.5944 72.2435 100.073 72.2435 100.653V106H69.3505V96.625H72.2435V97.8152H72.2802C72.5853 97.3879 73.0095 97.0461 73.5527 96.7898C74.0959 96.5273 74.6422 96.3961 75.1915 96.3961C76.2474 96.3961 77.047 96.7257 77.5902 97.3849C78.1334 98.0441 78.405 98.9749 78.405 100.177V106ZM88.3202 106H85.5828V104.947H85.5461C85.1982 105.374 84.7893 105.695 84.3193 105.908C83.8555 106.122 83.3336 106.229 82.7538 106.229C81.9603 106.229 81.2737 105.985 80.6938 105.496C80.114 105.002 79.8241 104.325 79.8241 103.464C79.8241 102.628 80.1018 101.929 80.6572 101.367C81.2126 100.8 82.0305 100.458 83.1108 100.342L85.6011 100.077V99.7927C85.6011 99.335 85.4546 98.9901 85.1616 98.7582C84.8748 98.5262 84.5146 98.4103 84.0813 98.4103C83.6479 98.4103 83.2665 98.511 82.9369 98.7124C82.6073 98.9138 82.3082 99.2129 82.0397 99.6096L80.1079 98.4561C80.4436 97.9189 80.9807 97.4429 81.7192 97.0278C82.4578 96.6067 83.3306 96.3961 84.3376 96.3961C85.6316 96.3961 86.6173 96.7288 87.2948 97.394C87.9784 98.0593 88.3202 99.0603 88.3202 100.397V106ZM85.6011 102.191V101.834L83.7334 102.017C83.3 102.066 82.9827 102.188 82.7812 102.384C82.5859 102.573 82.4883 102.832 82.4883 103.162C82.4883 103.455 82.5981 103.699 82.8179 103.894C83.0376 104.083 83.3153 104.178 83.651 104.178C84.2247 104.178 84.6917 103.992 85.0518 103.62C85.418 103.241 85.6011 102.765 85.6011 102.191ZM93.3556 105.203H93.319V110.312H90.4259V96.625H93.319V97.8427H93.3556C93.7157 97.3605 94.1582 97.0004 94.6831 96.7623C95.208 96.5182 95.7939 96.3961 96.4409 96.3961C97.6616 96.3961 98.6138 96.802 99.2974 97.6138C99.981 98.4255 100.323 99.5699 100.323 101.047C100.323 102.609 99.926 103.864 99.1326 104.81C98.3391 105.756 97.3046 106.229 96.0289 106.229C95.4613 106.229 94.9486 106.143 94.4908 105.973C94.0331 105.802 93.6547 105.545 93.3556 105.203ZM93.2732 100.955V101.926C93.2732 102.53 93.4594 103.021 93.8317 103.4C94.204 103.778 94.674 103.968 95.2416 103.968C95.8885 103.968 96.4012 103.717 96.7797 103.217C97.1642 102.716 97.3564 102.005 97.3564 101.084C97.3564 100.272 97.1855 99.6646 96.8438 99.2617C96.5081 98.8528 96.0259 98.6483 95.3972 98.6483C94.793 98.6483 94.2864 98.8589 93.8774 99.28C93.4746 99.7012 93.2732 100.26 93.2732 100.955ZM110.448 103.83C110.027 104.618 109.454 105.216 108.727 105.625C108.007 106.027 107.18 106.229 106.246 106.229C104.745 106.229 103.57 105.799 102.721 104.938C101.879 104.071 101.458 102.939 101.458 101.541C101.458 99.9484 101.925 98.6941 102.859 97.7786C103.793 96.863 105.007 96.4053 106.503 96.4053C107.424 96.4053 108.236 96.6219 108.938 97.0553C109.64 97.4825 110.113 98.1082 110.357 98.9321L108.013 99.8019C107.83 99.4052 107.607 99.1152 107.345 98.9321C107.089 98.7429 106.771 98.6483 106.393 98.6483C105.825 98.6483 105.349 98.868 104.964 99.3075C104.586 99.7408 104.397 100.421 104.397 101.349C104.397 102.228 104.577 102.872 104.937 103.281C105.297 103.69 105.755 103.894 106.31 103.894C106.731 103.894 107.085 103.806 107.372 103.629C107.665 103.446 107.934 103.156 108.178 102.759L110.448 103.83ZM121.16 106H118.276V100.598C118.276 99.9697 118.145 99.4875 117.883 99.1519C117.626 98.8162 117.257 98.6483 116.775 98.6483C116.262 98.6483 115.847 98.8375 115.53 99.2159C115.212 99.5944 115.054 100.073 115.054 100.653V106H112.161V92.1206H115.054V97.7969H115.09C115.389 97.3879 115.81 97.0522 116.354 96.7898C116.897 96.5273 117.437 96.3961 117.974 96.3961C118.975 96.3961 119.756 96.7104 120.318 97.3391C120.879 97.9678 121.16 98.9108 121.16 100.168V106ZM131.075 106H128.338V104.947H128.301C127.953 105.374 127.544 105.695 127.074 105.908C126.611 106.122 126.089 106.229 125.509 106.229C124.715 106.229 124.029 105.985 123.449 105.496C122.869 105.002 122.579 104.325 122.579 103.464C122.579 102.628 122.857 101.929 123.412 101.367C123.968 100.8 124.786 100.458 125.866 100.342L128.356 100.077V99.7927C128.356 99.335 128.21 98.9901 127.917 98.7582C127.63 98.5262 127.27 98.4103 126.836 98.4103C126.403 98.4103 126.022 98.511 125.692 98.7124C125.362 98.9138 125.063 99.2129 124.795 99.6096L122.863 98.4561C123.199 97.9189 123.736 97.4429 124.474 97.0278C125.213 96.6067 126.086 96.3961 127.093 96.3961C128.387 96.3961 129.372 96.7288 130.05 97.394C130.734 98.0593 131.075 99.0603 131.075 100.397V106ZM128.356 102.191V101.834L126.489 102.017C126.055 102.066 125.738 102.188 125.536 102.384C125.341 102.573 125.243 102.832 125.243 103.162C125.243 103.455 125.353 103.699 125.573 103.894C125.793 104.083 126.07 104.178 126.406 104.178C126.98 104.178 127.447 103.992 127.807 103.62C128.173 103.241 128.356 102.765 128.356 102.191ZM139.462 105.332C139.175 105.594 138.821 105.811 138.4 105.982C137.978 106.146 137.521 106.229 137.026 106.229C135.952 106.229 135.156 105.982 134.637 105.487C134.118 104.993 133.859 104.254 133.859 103.272V98.7582H132.339V96.625H133.859V94.2355L136.742 93.7228V96.625H138.995V98.7582H136.742V103.253C136.742 103.54 136.803 103.757 136.926 103.903C137.054 104.05 137.231 104.123 137.457 104.123C137.591 104.123 137.725 104.102 137.859 104.059C138 104.01 138.146 103.916 138.299 103.775L139.462 105.332Z" fill="white"/>
<path d="M57.7507 103.427L56.3624 100.768C54.9032 101.53 54.3304 103.325 55.0786 104.791L57.7507 103.427ZM60.241 102.127L62.93 100.797C62.5722 100.074 61.9381 99.5252 61.1709 99.2751C60.4036 99.0249 59.568 99.0944 58.8526 99.4679L60.241 102.127ZM61.3396 103.382L59.8064 105.96C59.8114 105.963 59.8165 105.966 59.8216 105.969L61.3396 103.382ZM64.3242 103.409L66.1598 105.782C66.1691 105.775 66.1783 105.768 66.1875 105.76L64.3242 103.409ZM64.2784 101.276L62.4717 103.671C62.4784 103.676 62.4851 103.681 62.4918 103.686L64.2784 101.276ZM62.6213 100.672L62.052 103.617C62.0594 103.619 62.0668 103.62 62.0742 103.621L62.6213 100.672ZM59.417 99.3258L57.3871 101.535C57.394 101.541 57.4009 101.547 57.4079 101.554L59.417 99.3258ZM67.5194 94.9496L68.893 97.6166C69.6201 97.2422 70.1628 96.5871 70.3955 95.803C70.6281 95.019 70.5306 94.1739 70.1255 93.4635L67.5194 94.9496ZM65.0841 96.2039L62.4983 97.7249C63.3052 99.0967 65.0429 99.5996 66.4577 98.8709L65.0841 96.2039ZM64.251 95.3066L62.6927 97.8702C62.7051 97.8777 62.7175 97.8851 62.7299 97.8924L64.251 95.3066ZM61.715 95.3982L59.8353 93.0601C59.8277 93.0661 59.8202 93.0722 59.8127 93.0784L61.715 95.3982ZM61.715 97.275L59.8699 99.6405C59.8798 99.6483 59.8897 99.6559 59.8997 99.6635L61.715 97.275ZM63.427 97.8427L63.958 94.89L63.9447 94.8877L63.427 97.8427ZM66.5764 99.2343L64.5023 101.402C64.5087 101.408 64.5151 101.414 64.5215 101.42L66.5764 99.2343ZM66.3933 105.084L68.4154 107.301L68.4241 107.293L66.3933 105.084ZM59.774 105.496L58.3262 108.124C58.3333 108.128 58.3404 108.132 58.3475 108.136L59.774 105.496ZM59.1391 106.087L61.6293 104.787L58.8526 99.4679L56.3624 100.768L59.1391 106.087ZM57.5519 103.457C58.0362 104.436 58.763 105.34 59.8064 105.96L62.8728 100.803C62.9014 100.82 62.926 100.838 62.9458 100.855C62.9656 100.871 62.9777 100.884 62.9829 100.89C62.9933 100.902 62.9707 100.879 62.93 100.797L57.5519 103.457ZM59.8216 105.969C60.7509 106.514 61.7773 106.784 62.8411 106.784V100.784C62.8291 100.784 62.824 100.784 62.8245 100.784C62.8251 100.784 62.8292 100.784 62.8357 100.786C62.8422 100.788 62.8484 100.79 62.8535 100.792C62.8586 100.794 62.8601 100.795 62.8576 100.794L59.8216 105.969ZM62.8411 106.784C63.7865 106.784 65.0715 106.624 66.1598 105.782L62.4886 101.036C62.7226 100.855 62.9181 100.797 62.9748 100.782C63.0283 100.769 62.9962 100.784 62.8411 100.784V106.784ZM66.1875 105.76C67.2921 104.885 67.8094 103.634 67.8094 102.356H61.8094C61.8094 102.212 61.8372 101.972 61.9636 101.698C62.0931 101.417 62.2794 101.202 62.461 101.058L66.1875 105.76ZM67.8094 102.356C67.8094 100.992 67.2165 99.7195 66.0651 98.8659L62.4918 103.686C62.323 103.561 62.127 103.356 61.9844 103.066C61.8437 102.78 61.8094 102.521 61.8094 102.356H67.8094ZM66.0852 98.8809C65.1819 98.1995 64.0828 97.8915 63.1685 97.7219L62.0742 103.621C62.336 103.67 62.4949 103.717 62.5755 103.746C62.6631 103.778 62.6014 103.769 62.4717 103.671L66.0852 98.8809ZM63.1906 97.7261C61.9799 97.4921 61.5278 97.1896 61.4261 97.0979L57.4079 101.554C58.6734 102.695 60.3575 103.29 62.052 103.617L63.1906 97.7261ZM61.4469 97.1168C61.4399 97.1104 61.4414 97.1107 61.4456 97.1168C61.4497 97.1228 61.449 97.1237 61.445 97.1136C61.4373 97.0941 61.4008 96.9905 61.4008 96.7532H55.4008C55.4008 98.514 55.9756 100.238 57.3871 101.535L61.4469 97.1168ZM61.4008 96.7532C61.4008 96.3089 61.5117 96.1818 61.6584 96.0575L57.7799 91.4796C56.1687 92.8446 55.4008 94.7072 55.4008 96.7532H61.4008ZM61.6584 96.0575C61.8702 95.878 62.2845 95.6516 63.1981 95.6516V89.6516C61.2308 89.6516 59.3258 90.1698 57.7799 91.4796L61.6584 96.0575ZM63.1981 95.6516C63.7708 95.6516 64.1277 95.7646 64.3602 95.8895L67.1996 90.6039C65.955 89.9353 64.5908 89.6516 63.1981 89.6516V95.6516ZM64.3602 95.8895C64.5952 96.0157 64.7671 96.1792 64.9134 96.4357L70.1255 93.4635C69.4295 92.243 68.4417 91.2711 67.1996 90.6039L64.3602 95.8895ZM66.1458 92.2825L63.7105 93.5368L66.4577 98.8709L68.893 97.6166L66.1458 92.2825ZM67.6699 94.6828C67.2502 93.9693 66.6454 93.2346 65.772 92.7208L62.7299 97.8924C62.4791 97.7449 62.4297 97.6083 62.4983 97.7249L67.6699 94.6828ZM65.8092 92.7431C64.8892 92.1838 63.897 92.0228 63.0425 92.0228V98.0228C63.1768 98.0228 62.9902 98.051 62.6927 97.8702L65.8092 92.7431ZM63.0425 92.0228C62.076 92.0228 60.8689 92.2292 59.8353 93.0601L63.5946 97.7363C63.1836 98.0667 62.8615 98.0228 63.0425 98.0228V92.0228ZM59.8127 93.0784C58.847 93.8703 58.2572 95.0206 58.2572 96.3412H64.2572C64.2572 96.5675 64.2085 96.8474 64.0705 97.1317C63.9342 97.4124 63.7565 97.6038 63.6172 97.718L59.8127 93.0784ZM58.2572 96.3412C58.2572 97.6571 58.8415 98.8384 59.8699 99.6405L63.5601 94.9095C63.7238 95.0372 63.9194 95.2447 64.0654 95.5426C64.2117 95.8411 64.2572 96.1263 64.2572 96.3412H58.2572ZM59.8997 99.6635C60.829 100.37 62.0419 100.646 62.9093 100.798L63.9447 94.8877C63.6173 94.8303 63.4183 94.7772 63.316 94.7433C63.2676 94.7273 63.2644 94.7232 63.2937 94.7373C63.3203 94.7501 63.4098 94.7951 63.5302 94.8865L59.8997 99.6635ZM62.896 100.795C63.9519 100.985 64.3701 101.275 64.5023 101.402L68.6505 97.0667C67.3667 95.8383 65.6853 95.2006 63.958 94.89L62.896 100.795ZM64.5215 101.42C64.5544 101.451 64.5698 101.474 64.5861 101.515C64.6064 101.567 64.6476 101.704 64.6476 101.972H70.6476C70.6476 100.15 70.0555 98.3875 68.6313 97.0486L64.5215 101.42ZM64.6476 101.972C64.6476 102.577 64.4862 102.763 64.3625 102.876L68.4241 107.293C69.9728 105.868 70.6476 103.979 70.6476 101.972H64.6476ZM64.3713 102.868C64.2641 102.966 63.8948 103.229 62.8136 103.229V109.229C64.833 109.229 66.8501 108.729 68.4154 107.301L64.3713 102.868ZM62.8136 103.229C62.1409 103.229 61.6256 103.087 61.2006 102.857L58.3475 108.136C59.7292 108.882 61.2402 109.229 62.8136 109.229V103.229ZM61.2219 102.869C60.8326 102.654 60.5931 102.397 60.4229 102.064L55.0786 104.791C55.8117 106.228 56.9211 107.35 58.3262 108.124L61.2219 102.869ZM78.405 106V109C80.0619 109 81.405 107.657 81.405 106H78.405ZM75.5211 106H72.5211C72.5211 107.657 73.8643 109 75.5211 109V106ZM75.1366 99.1885L72.6926 100.928C72.6973 100.935 72.702 100.941 72.7068 100.948L75.1366 99.1885ZM72.2435 106V109C73.9004 109 75.2435 107.657 75.2435 106H72.2435ZM69.3505 106H66.3505C66.3505 107.657 67.6936 109 69.3505 109V106ZM69.3505 96.625V93.625C67.6936 93.625 66.3505 94.9681 66.3505 96.625H69.3505ZM72.2435 96.625H75.2435C75.2435 94.9681 73.9004 93.625 72.2435 93.625V96.625ZM72.2435 97.8152H69.2435C69.2435 99.472 70.5867 100.815 72.2435 100.815V97.8152ZM72.2802 97.8152V100.815C73.249 100.815 74.1582 100.347 74.7214 99.5589L72.2802 97.8152ZM73.5527 96.7898L74.8331 99.5029C74.8413 99.499 74.8496 99.495 74.8578 99.491L73.5527 96.7898ZM78.405 103H75.5211V109H78.405V103ZM78.5211 106V100.617H72.5211V106H78.5211ZM78.5211 100.617C78.5211 99.6148 78.3079 98.4529 77.5664 97.4289L72.7068 100.948C72.478 100.632 72.5211 100.422 72.5211 100.617H78.5211ZM77.5806 97.4487C76.673 96.1737 75.3061 95.6483 73.9922 95.6483V101.648C73.8904 101.648 73.6598 101.629 73.3777 101.496C73.0811 101.356 72.8477 101.146 72.6926 100.928L77.5806 97.4487ZM73.9922 95.6483C72.6276 95.6483 71.3812 96.2059 70.4757 97.2456L75.0002 101.186C74.9087 101.291 74.7546 101.424 74.5356 101.523C74.3172 101.622 74.1208 101.648 73.9922 101.648V95.6483ZM70.4757 97.2456C69.5974 98.254 69.2435 99.4686 69.2435 100.653H75.2435C75.2435 100.648 75.244 100.719 75.204 100.835C75.162 100.957 75.0917 101.081 75.0002 101.186L70.4757 97.2456ZM69.2435 100.653V106H75.2435V100.653H69.2435ZM72.2435 103H69.3505V109H72.2435V103ZM72.3505 106V96.625H66.3505V106H72.3505ZM69.3505 99.625H72.2435V93.625H69.3505V99.625ZM69.2435 96.625V97.8152H75.2435V96.625H69.2435ZM72.2435 100.815H72.2802V94.8152H72.2435V100.815ZM74.7214 99.5589C74.7095 99.5754 74.7017 99.5807 74.7095 99.5744C74.7187 99.567 74.7546 99.5399 74.8331 99.5029L72.2724 94.0767C71.3334 94.5199 70.4826 95.1704 69.839 96.0715L74.7214 99.5589ZM74.8578 99.491C75.0346 99.4056 75.1372 99.3961 75.1915 99.3961V93.3961C74.1473 93.3961 73.1573 93.6491 72.2476 94.0885L74.8578 99.491ZM75.1915 99.3961C75.4116 99.3961 75.4732 99.4307 75.4398 99.4169C75.4225 99.4098 75.3917 99.3944 75.3559 99.368C75.3199 99.3415 75.2925 99.314 75.275 99.2928L79.9054 95.477C78.6597 93.9654 76.9118 93.3961 75.1915 93.3961V99.3961ZM75.275 99.2928C75.2254 99.2326 75.405 99.3914 75.405 100.177H81.405C81.405 98.5583 81.0414 96.8556 79.9054 95.477L75.275 99.2928ZM75.405 100.177V106H81.405V100.177H75.405ZM88.3202 106V109C89.977 109 91.3202 107.657 91.3202 106H88.3202ZM85.5828 106H82.5828C82.5828 107.657 83.9259 109 85.5828 109V106ZM85.5828 104.947H88.5828C88.5828 103.29 87.2396 101.947 85.5828 101.947V104.947ZM85.5461 104.947V101.947C84.6439 101.947 83.7895 102.353 83.2198 103.053L85.5461 104.947ZM84.3193 105.908L83.0779 103.177C83.0734 103.179 83.0689 103.181 83.0644 103.184L84.3193 105.908ZM80.6938 105.496L78.7474 107.779C78.7521 107.783 78.7568 107.787 78.7614 107.791L80.6938 105.496ZM80.6572 101.367L82.7901 103.477C82.7939 103.473 82.7977 103.469 82.8015 103.466L80.6572 101.367ZM83.1108 100.342L82.7928 97.3589L82.7906 97.3592L83.1108 100.342ZM85.6011 100.077L85.9191 103.06C87.4442 102.897 88.6011 101.61 88.6011 100.077H85.6011ZM85.1616 98.7582L83.2755 101.091C83.2834 101.098 83.2915 101.104 83.2995 101.11L85.1616 98.7582ZM82.0397 99.6096L80.5016 102.185C81.8673 103.001 83.6323 102.609 84.524 101.291L82.0397 99.6096ZM80.1079 98.4561L77.5639 96.8661C77.1366 97.5497 77.0025 98.3766 77.1917 99.1602C77.381 99.9439 77.8776 100.618 78.5698 101.032L80.1079 98.4561ZM81.7192 97.0278L83.189 99.6431C83.1945 99.6401 83.1999 99.637 83.2053 99.6339L81.7192 97.0278ZM87.2948 97.394L85.1928 99.5346L85.2025 99.544L87.2948 97.394ZM85.6011 101.834H88.6011C88.6011 100.988 88.2434 100.181 87.6162 99.6119C86.9891 99.0433 86.1509 98.7661 85.3084 98.8487L85.6011 101.834ZM83.7334 102.017L83.4407 99.0318C83.4263 99.0332 83.4119 99.0347 83.3975 99.0363L83.7334 102.017ZM82.7812 102.384L84.8686 104.538L84.8697 104.537L82.7812 102.384ZM82.8179 103.894L80.8248 106.137C80.8365 106.147 80.8484 106.157 80.8603 106.168L82.8179 103.894ZM85.0518 103.62L82.896 101.533L82.8954 101.534L85.0518 103.62ZM88.3202 103H85.5828V109H88.3202V103ZM88.5828 106V104.947H82.5828V106H88.5828ZM85.5828 101.947H85.5461V107.947H85.5828V101.947ZM83.2198 103.053C83.1441 103.146 83.0985 103.168 83.0779 103.177L85.5607 108.64C86.4801 108.222 87.2524 107.603 87.8725 106.841L83.2198 103.053ZM83.0644 103.184C83.0441 103.193 82.9591 103.229 82.7538 103.229V109.229C83.7082 109.229 84.6668 109.051 85.5742 108.633L83.0644 103.184ZM82.7538 103.229C82.7096 103.229 82.6816 103.226 82.667 103.223C82.6527 103.221 82.6476 103.219 82.6487 103.219C82.65 103.22 82.6513 103.22 82.6506 103.22C82.6498 103.219 82.6417 103.215 82.6263 103.202L78.7614 107.791C79.909 108.758 81.2891 109.229 82.7538 109.229V103.229ZM82.6403 103.214C82.6601 103.23 82.6902 103.26 82.7223 103.303C82.7547 103.347 82.7808 103.393 82.7996 103.437C82.8388 103.529 82.8241 103.556 82.8241 103.464H76.8241C76.8241 105.076 77.408 106.637 78.7474 107.779L82.6403 103.214ZM82.8241 103.464C82.8241 103.421 82.8276 103.4 82.8282 103.397C82.8288 103.394 82.8272 103.403 82.8203 103.421C82.817 103.429 82.8131 103.437 82.8086 103.446C82.8041 103.455 82.7995 103.462 82.7954 103.469C82.7867 103.482 82.7828 103.484 82.7901 103.477L78.5243 99.2577C77.3783 100.416 76.8241 101.889 76.8241 103.464H82.8241ZM82.8015 103.466C82.7172 103.552 82.7892 103.394 83.431 103.325L82.7906 97.3592C81.2718 97.5222 79.7081 98.0479 78.513 99.2693L82.8015 103.466ZM83.4289 103.325L85.9191 103.06L85.283 97.0934L82.7928 97.3589L83.4289 103.325ZM88.6011 100.077V99.7927H82.6011V100.077H88.6011ZM88.6011 99.7927C88.6011 98.6464 88.1971 97.335 87.0237 96.406L83.2995 101.11C83.0512 100.914 82.8525 100.652 82.73 100.364C82.6149 100.093 82.6011 99.8798 82.6011 99.7927H88.6011ZM87.0478 96.4253C86.1371 95.689 85.0758 95.4103 84.0813 95.4103V101.41C84.0304 101.41 83.9135 101.403 83.7568 101.353C83.5944 101.301 83.4267 101.213 83.2755 101.091L87.0478 96.4253ZM84.0813 95.4103C83.165 95.4103 82.2288 95.6293 81.3725 96.1526L84.5012 101.272C84.4125 101.327 84.3204 101.364 84.2359 101.386C84.1536 101.408 84.098 101.41 84.0813 101.41V95.4103ZM81.3725 96.1526C80.6002 96.6246 80.0081 97.2592 79.5553 97.9279L84.524 101.291C84.5653 101.23 84.5882 101.208 84.5867 101.209C84.5843 101.212 84.5569 101.238 84.5012 101.272L81.3725 96.1526ZM83.5778 97.0339L81.646 95.8804L78.5698 101.032L80.5016 102.185L83.5778 97.0339ZM82.6519 100.046C82.6463 100.055 82.7466 99.8918 83.189 99.6431L80.2495 94.4125C79.2148 94.994 78.2409 95.7828 77.5639 96.8661L82.6519 100.046ZM83.2053 99.6339C83.414 99.5149 83.7552 99.3961 84.3376 99.3961V93.3961C82.906 93.3961 81.5015 93.6985 80.2331 94.4218L83.2053 99.6339ZM84.3376 99.3961C84.7347 99.3961 84.9691 99.4479 85.0882 99.4881C85.1936 99.5237 85.2071 99.5486 85.1929 99.5346L89.3967 95.2535C87.9799 93.8622 86.1263 93.3961 84.3376 93.3961V99.3961ZM85.2025 99.544C85.1705 99.5128 85.1896 99.5101 85.2248 99.6132C85.2653 99.7317 85.3202 99.9755 85.3202 100.397H91.3202C91.3202 98.5816 90.8517 96.6695 89.3871 95.2441L85.2025 99.544ZM85.3202 100.397V106H91.3202V100.397H85.3202ZM88.6011 102.191V101.834H82.6011V102.191H88.6011ZM85.3084 98.8487L83.4407 99.0318L84.0261 105.003L85.8938 104.82L85.3084 98.8487ZM83.3975 99.0363C82.6484 99.1207 81.5706 99.3788 80.6928 100.23L84.8697 104.537C84.6256 104.774 84.3877 104.892 84.2473 104.946C84.1117 104.998 84.0388 105.002 84.0693 104.999L83.3975 99.0363ZM80.6939 100.229C79.7947 101.1 79.4883 102.205 79.4883 103.162H85.4883C85.4883 103.291 85.4691 103.512 85.3692 103.777C85.265 104.054 85.0954 104.319 84.8686 104.538L80.6939 100.229ZM79.4883 103.162C79.4883 104.315 79.9671 105.374 80.8248 106.137L84.811 101.652C84.9859 101.808 85.1715 102.034 85.3064 102.334C85.4415 102.634 85.4883 102.924 85.4883 103.162H79.4883ZM80.8603 106.168C81.709 106.898 82.7168 107.178 83.651 107.178V101.178C83.7655 101.178 83.9444 101.195 84.1583 101.267C84.3783 101.342 84.591 101.462 84.7754 101.621L80.8603 106.168ZM83.651 107.178C84.9413 107.178 86.2191 106.728 87.2081 105.705L82.8954 101.534C83.0011 101.425 83.1477 101.321 83.3205 101.252C83.4868 101.185 83.6107 101.178 83.651 101.178V107.178ZM87.2076 105.706C88.1661 104.715 88.6011 103.467 88.6011 102.191H82.6011C82.6011 102.156 82.6076 102.048 82.6637 101.902C82.7216 101.751 82.808 101.624 82.896 101.533L87.2076 105.706ZM93.3556 105.203L95.6133 103.228C95.0437 102.577 94.2207 102.203 93.3556 102.203V105.203ZM93.319 105.203V102.203C91.6621 102.203 90.319 103.547 90.319 105.203H93.319ZM93.319 110.312V113.312C94.9758 113.312 96.319 111.969 96.319 110.312H93.319ZM90.4259 110.312H87.4259C87.4259 111.969 88.769 113.312 90.4259 113.312V110.312ZM90.4259 96.625V93.625C88.769 93.625 87.4259 94.9681 87.4259 96.625H90.4259ZM93.319 96.625H96.319C96.319 94.9681 94.9758 93.625 93.319 93.625V96.625ZM93.319 97.8427H90.319C90.319 99.4995 91.6621 100.843 93.319 100.843V97.8427ZM93.3556 97.8427V100.843C94.302 100.843 95.1929 100.396 95.7592 99.6378L93.3556 97.8427ZM94.6831 96.7623L95.9221 99.4945C95.9309 99.4905 95.9396 99.4865 95.9483 99.4825L94.6831 96.7623ZM96.7797 103.217L94.4007 101.389C94.396 101.395 94.3913 101.401 94.3867 101.407L96.7797 103.217ZM96.8438 99.2617L94.525 101.165C94.5353 101.178 94.5457 101.19 94.5562 101.203L96.8438 99.2617ZM93.8774 99.28L91.7252 97.1901C91.7199 97.1955 91.7147 97.2009 91.7095 97.2064L93.8774 99.28ZM93.3556 102.203H93.319V108.203H93.3556V102.203ZM90.319 105.203V110.312H96.319V105.203H90.319ZM93.319 107.312H90.4259V113.312H93.319V107.312ZM93.4259 110.312V96.625H87.4259V110.312H93.4259ZM90.4259 99.625H93.319V93.625H90.4259V99.625ZM90.319 96.625V97.8427H96.319V96.625H90.319ZM93.319 100.843H93.3556V94.8427H93.319V100.843ZM95.7592 99.6378C95.8303 99.5426 95.879 99.5141 95.9221 99.4945L93.4441 94.0301C92.4375 94.4866 91.6011 95.1783 90.9519 96.0475L95.7592 99.6378ZM95.9483 99.4825C96.0325 99.4433 96.1793 99.3961 96.4409 99.3961V93.3961C95.4086 93.3961 94.3835 93.5931 93.4179 94.0422L95.9483 99.4825ZM96.4409 99.3961C96.7184 99.3961 96.8505 99.4417 96.8941 99.4602C96.9266 99.4741 96.9557 99.4904 97.0026 99.5462L101.592 95.6814C100.249 94.0869 98.3982 93.3961 96.4409 93.3961V99.3961ZM97.0026 99.5462C97.0805 99.6386 97.3228 100.002 97.3228 101.047H103.323C103.323 99.1377 102.881 97.2125 101.592 95.6814L97.0026 99.5462ZM97.3228 101.047C97.3228 102.096 97.0647 102.607 96.834 102.882L101.431 106.738C102.787 105.121 103.323 103.123 103.323 101.047H97.3228ZM96.834 102.882C96.6319 103.123 96.4514 103.229 96.0289 103.229V109.229C98.1578 109.229 100.046 108.389 101.431 106.738L96.834 102.882ZM96.0289 103.229C95.7626 103.229 95.6127 103.189 95.5401 103.162L93.4416 108.783C94.2845 109.098 95.16 109.229 96.0289 109.229V103.229ZM95.5401 103.162C95.5192 103.154 95.525 103.154 95.5463 103.168C95.5684 103.183 95.5926 103.204 95.6133 103.228L91.0979 107.179C91.7489 107.923 92.5543 108.452 93.4416 108.783L95.5401 103.162ZM90.2732 100.955V101.926H96.2732V100.955H90.2732ZM90.2732 101.926C90.2732 103.199 90.6911 104.485 91.6932 105.504L95.9702 101.296C96.0731 101.4 96.1621 101.537 96.2182 101.685C96.2716 101.826 96.2732 101.919 96.2732 101.926H90.2732ZM91.6932 105.504C92.6714 106.498 93.9317 106.968 95.2416 106.968V100.968C95.2956 100.968 95.4222 100.978 95.5838 101.043C95.7494 101.109 95.8813 101.206 95.9702 101.296L91.6932 105.504ZM95.2416 106.968C96.7944 106.968 98.2068 106.304 99.1726 105.026L94.3867 101.407C94.453 101.32 94.5871 101.186 94.7954 101.084C95.0007 100.984 95.1705 100.968 95.2416 100.968V106.968ZM99.1586 105.045C100.094 103.827 100.356 102.373 100.356 101.084H94.3564C94.3564 101.343 94.3286 101.479 94.3162 101.525C94.3056 101.564 94.3175 101.497 94.4007 101.389L99.1586 105.045ZM100.356 101.084C100.356 99.9256 100.124 98.4907 99.1313 97.3208L94.5562 101.203C94.3995 101.018 94.3494 100.864 94.3404 100.832C94.3362 100.817 94.3407 100.828 94.3459 100.872C94.3512 100.915 94.3564 100.985 94.3564 101.084H100.356ZM99.1625 97.3582C98.1478 96.1221 96.7364 95.6483 95.3972 95.6483V101.648C95.3881 101.648 95.2549 101.647 95.0591 101.564C94.8493 101.475 94.6614 101.331 94.525 101.165L99.1625 97.3582ZM95.3972 95.6483C94.0088 95.6483 92.7174 96.1683 91.7252 97.1901L96.0297 101.37C95.9704 101.431 95.8644 101.515 95.7156 101.576C95.5685 101.638 95.4501 101.648 95.3972 101.648V95.6483ZM91.7095 97.2064C90.6717 98.2913 90.2732 99.6466 90.2732 100.955H96.2732C96.2732 100.896 96.2817 100.935 96.2463 101.033C96.2078 101.139 96.1388 101.256 96.0454 101.354L91.7095 97.2064ZM110.448 103.83L113.094 105.245C113.481 104.52 113.555 103.668 113.297 102.888C113.039 102.108 112.472 101.468 111.729 101.117L110.448 103.83ZM108.727 105.625L110.192 108.243L110.199 108.239L108.727 105.625ZM102.721 104.938L100.57 107.029C100.575 107.034 100.58 107.039 100.585 107.044L102.721 104.938ZM108.938 97.0553L107.362 99.608C107.367 99.6113 107.373 99.6146 107.378 99.6179L108.938 97.0553ZM110.357 98.9321L111.401 101.745C112.881 101.196 113.682 99.5934 113.233 98.0799L110.357 98.9321ZM108.013 99.8019L105.289 101.059C105.946 102.482 107.588 103.16 109.057 102.614L108.013 99.8019ZM107.345 98.9321L105.563 101.346C105.585 101.362 105.606 101.377 105.628 101.393L107.345 98.9321ZM104.964 99.3075L102.707 97.332L102.705 97.3342L104.964 99.3075ZM107.372 103.629L108.948 106.182C108.953 106.179 108.957 106.176 108.962 106.173L107.372 103.629ZM108.178 102.759L109.458 100.046C108.076 99.3937 106.424 99.885 105.623 101.187L108.178 102.759ZM107.803 102.415C107.631 102.737 107.449 102.902 107.255 103.01L110.199 108.239C111.458 107.53 112.424 106.498 113.094 105.245L107.803 102.415ZM107.263 103.006C107.046 103.127 106.736 103.229 106.246 103.229V109.229C107.624 109.229 108.968 108.928 110.192 108.243L107.263 103.006ZM106.246 103.229C105.341 103.229 105.012 102.989 104.858 102.832L100.585 107.044C102.127 108.609 104.148 109.229 106.246 109.229V103.229ZM104.873 102.847C104.66 102.628 104.458 102.29 104.458 101.541H98.458C98.458 103.588 99.0982 105.514 100.57 107.029L104.873 102.847ZM104.458 101.541C104.458 100.566 104.722 100.153 104.959 99.9208L100.759 95.6363C99.1276 97.2353 98.458 99.3303 98.458 101.541H104.458ZM104.959 99.9208C105.251 99.6349 105.671 99.4053 106.503 99.4053V93.4053C104.344 93.4053 102.335 94.0911 100.759 95.6363L104.959 99.9208ZM106.503 99.4053C106.935 99.4053 107.188 99.5004 107.362 99.608L110.514 94.5026C109.284 93.7434 107.914 93.4053 106.503 93.4053V99.4053ZM107.378 99.6179C107.403 99.633 107.415 99.6433 107.419 99.6471C107.423 99.6508 107.425 99.6526 107.426 99.6543C107.427 99.656 107.433 99.6638 107.442 99.6816C107.451 99.6999 107.465 99.7326 107.481 99.7844L113.233 98.0799C112.788 96.5781 111.867 95.326 110.498 94.4927L107.378 99.6179ZM109.313 96.1195L106.969 96.9893L109.057 102.614L111.401 101.745L109.313 96.1195ZM110.737 98.5447C110.409 97.8342 109.892 97.051 109.061 96.4717L105.628 101.393C105.323 101.18 105.251 100.976 105.289 101.059L110.737 98.5447ZM109.126 96.5184C108.263 95.8808 107.288 95.6483 106.393 95.6483V101.648C106.332 101.648 106.213 101.641 106.058 101.594C105.897 101.546 105.725 101.465 105.563 101.346L109.126 96.5184ZM106.393 95.6483C104.932 95.6483 103.642 96.2629 102.707 97.332L107.222 101.283C107.169 101.344 107.053 101.451 106.867 101.537C106.679 101.624 106.507 101.648 106.393 101.648V95.6483ZM102.705 97.3342C101.632 98.5631 101.397 100.114 101.397 101.349H107.397C107.397 101.218 107.404 101.12 107.412 101.05C107.42 100.981 107.429 100.948 107.429 100.947C107.43 100.942 107.389 101.092 107.224 101.281L102.705 97.3342ZM101.397 101.349C101.397 102.537 101.623 104.057 102.686 105.264L107.188 101.298C107.367 101.5 107.417 101.668 107.421 101.683C107.423 101.692 107.417 101.67 107.41 101.612C107.403 101.554 107.397 101.468 107.397 101.349H101.397ZM102.686 105.264C103.628 106.333 104.912 106.894 106.31 106.894V100.894C106.408 100.894 106.578 100.914 106.774 101.002C106.971 101.09 107.109 101.208 107.188 101.298L102.686 105.264ZM106.31 106.894C107.15 106.894 108.082 106.716 108.948 106.182L105.797 101.076C106.089 100.896 106.313 100.894 106.31 100.894V106.894ZM108.962 106.173C109.76 105.674 110.327 104.991 110.733 104.331L105.623 101.187C105.586 101.247 105.573 101.257 105.593 101.235C105.613 101.213 105.674 101.152 105.782 101.085L108.962 106.173ZM106.898 105.472L109.168 106.543L111.729 101.117L109.458 100.046L106.898 105.472ZM121.16 106V109C122.817 109 124.16 107.657 124.16 106H121.16ZM118.276 106H115.276C115.276 107.657 116.619 109 118.276 109V106ZM117.883 99.1519L115.498 100.973C115.505 100.982 115.512 100.991 115.519 101L117.883 99.1519ZM115.054 106V109C116.71 109 118.054 107.657 118.054 106H115.054ZM112.161 106H109.161C109.161 107.657 110.504 109 112.161 109V106ZM112.161 92.1206V89.1206C110.504 89.1206 109.161 90.4638 109.161 92.1206H112.161ZM115.054 92.1206H118.054C118.054 90.4638 116.71 89.1206 115.054 89.1206V92.1206ZM115.054 97.7969H112.054C112.054 99.4537 113.397 100.797 115.054 100.797V97.7969ZM115.09 97.7969V100.797C116.047 100.797 116.947 100.34 117.512 99.5678L115.09 97.7969ZM121.16 103H118.276V109H121.16V103ZM121.276 106V100.598H115.276V106H121.276ZM121.276 100.598C121.276 99.6061 121.076 98.3663 120.246 97.3041L115.519 101C115.366 100.804 115.304 100.632 115.283 100.553C115.264 100.481 115.276 100.485 115.276 100.598H121.276ZM120.267 97.3311C119.357 96.1401 118.041 95.6483 116.775 95.6483V101.648C116.667 101.648 116.444 101.629 116.172 101.505C115.888 101.376 115.657 101.181 115.498 100.973L120.267 97.3311ZM116.775 95.6483C115.414 95.6483 114.143 96.2009 113.231 97.2881L117.828 101.144C117.724 101.268 117.556 101.414 117.323 101.52C117.094 101.624 116.894 101.648 116.775 101.648V95.6483ZM113.231 97.2881C112.384 98.2979 112.054 99.4973 112.054 100.653H118.054C118.054 100.637 118.056 100.696 118.02 100.802C117.983 100.915 117.919 101.036 117.828 101.144L113.231 97.2881ZM112.054 100.653V106H118.054V100.653H112.054ZM115.054 103H112.161V109H115.054V103ZM115.161 106V92.1206H109.161V106H115.161ZM112.161 95.1206H115.054V89.1206H112.161V95.1206ZM112.054 92.1206V97.7969H118.054V92.1206H112.054ZM115.054 100.797H115.09V94.7969H115.054V100.797ZM117.512 99.5678C117.494 99.5918 117.485 99.5963 117.5 99.5843C117.517 99.571 117.564 99.5366 117.659 99.491L115.049 94.0885C114.147 94.5242 113.309 95.1509 112.669 96.0259L117.512 99.5678ZM117.659 99.491C117.845 99.4008 117.942 99.3961 117.974 99.3961V93.3961C116.932 93.3961 115.948 93.6539 115.049 94.0885L117.659 99.491ZM117.974 99.3961C118.162 99.3961 118.217 99.4254 118.191 99.415C118.179 99.4101 118.157 99.3994 118.131 99.3816C118.106 99.3639 118.089 99.3471 118.08 99.3376L122.555 95.3406C121.317 93.9548 119.654 93.3961 117.974 93.3961V99.3961ZM118.08 99.3376C118.022 99.272 118.039 99.2552 118.074 99.3739C118.113 99.5029 118.16 99.7531 118.16 100.168H124.16C124.16 98.5266 123.801 96.7352 122.555 95.3406L118.08 99.3376ZM118.16 100.168V106H124.16V100.168H118.16ZM131.075 106V109C132.732 109 134.075 107.657 134.075 106H131.075ZM128.338 106H125.338C125.338 107.657 126.681 109 128.338 109V106ZM128.338 104.947H131.338C131.338 103.29 129.995 101.947 128.338 101.947V104.947ZM128.301 104.947V101.947C127.399 101.947 126.545 102.353 125.975 103.053L128.301 104.947ZM127.074 105.908L125.833 103.177C125.829 103.179 125.824 103.181 125.82 103.184L127.074 105.908ZM123.449 105.496L121.503 107.779C121.507 107.783 121.512 107.787 121.517 107.791L123.449 105.496ZM123.412 101.367L125.545 103.477C125.549 103.473 125.553 103.469 125.557 103.466L123.412 101.367ZM125.866 100.342L125.548 97.3589L125.546 97.3592L125.866 100.342ZM128.356 100.077L128.674 103.06C130.199 102.897 131.356 101.61 131.356 100.077H128.356ZM127.917 98.7582L126.031 101.091C126.039 101.098 126.047 101.104 126.055 101.11L127.917 98.7582ZM124.795 99.6096L123.257 102.185C124.622 103.001 126.387 102.609 127.279 101.291L124.795 99.6096ZM122.863 98.4561L120.319 96.8661C119.892 97.5497 119.758 98.3766 119.947 99.1602C120.136 99.9439 120.633 100.618 121.325 101.032L122.863 98.4561ZM124.474 97.0278L125.944 99.6431C125.95 99.6401 125.955 99.637 125.96 99.6339L124.474 97.0278ZM130.05 97.394L127.948 99.5346L127.958 99.544L130.05 97.394ZM128.356 101.834H131.356C131.356 100.988 130.999 100.181 130.371 99.6119C129.744 99.0433 128.906 98.7661 128.063 98.8487L128.356 101.834ZM126.489 102.017L126.196 99.0318C126.181 99.0332 126.167 99.0347 126.153 99.0363L126.489 102.017ZM125.536 102.384L127.624 104.538L127.625 104.537L125.536 102.384ZM125.573 103.894L123.58 106.137C123.592 106.147 123.604 106.157 123.615 106.168L125.573 103.894ZM127.807 103.62L125.651 101.533L125.651 101.534L127.807 103.62ZM131.075 103H128.338V109H131.075V103ZM131.338 106V104.947H125.338V106H131.338ZM128.338 101.947H128.301V107.947H128.338V101.947ZM125.975 103.053C125.899 103.146 125.854 103.168 125.833 103.177L128.316 108.64C129.235 108.222 130.008 107.603 130.628 106.841L125.975 103.053ZM125.82 103.184C125.799 103.193 125.714 103.229 125.509 103.229V109.229C126.463 109.229 127.422 109.051 128.329 108.633L125.82 103.184ZM125.509 103.229C125.465 103.229 125.437 103.226 125.422 103.223C125.408 103.221 125.403 103.219 125.404 103.219C125.405 103.22 125.406 103.22 125.406 103.22C125.405 103.219 125.397 103.215 125.381 103.202L121.517 107.791C122.664 108.758 124.044 109.229 125.509 109.229V103.229ZM125.395 103.214C125.415 103.23 125.445 103.26 125.477 103.303C125.51 103.347 125.536 103.393 125.555 103.437C125.594 103.529 125.579 103.556 125.579 103.464H119.579C119.579 105.076 120.163 106.637 121.503 107.779L125.395 103.214ZM125.579 103.464C125.579 103.421 125.583 103.4 125.583 103.397C125.584 103.394 125.582 103.403 125.575 103.421C125.572 103.429 125.568 103.437 125.564 103.446C125.559 103.455 125.555 103.462 125.551 103.469C125.542 103.482 125.538 103.484 125.545 103.477L121.279 99.2577C120.133 100.416 119.579 101.889 119.579 103.464H125.579ZM125.557 103.466C125.472 103.552 125.544 103.394 126.186 103.325L125.546 97.3592C124.027 97.5222 122.463 98.0479 121.268 99.2693L125.557 103.466ZM126.184 103.325L128.674 103.06L128.038 97.0934L125.548 97.3589L126.184 103.325ZM131.356 100.077V99.7927H125.356V100.077H131.356ZM131.356 99.7927C131.356 98.6464 130.952 97.335 129.779 96.406L126.055 101.11C125.806 100.914 125.608 100.652 125.485 100.364C125.37 100.093 125.356 99.8798 125.356 99.7927H131.356ZM129.803 96.4253C128.892 95.689 127.831 95.4103 126.836 95.4103V101.41C126.785 101.41 126.669 101.403 126.512 101.353C126.35 101.301 126.182 101.213 126.031 101.091L129.803 96.4253ZM126.836 95.4103C125.92 95.4103 124.984 95.6293 124.128 96.1526L127.256 101.272C127.168 101.327 127.076 101.364 126.991 101.386C126.909 101.408 126.853 101.41 126.836 101.41V95.4103ZM124.128 96.1526C123.355 96.6246 122.763 97.2592 122.31 97.9279L127.279 101.291C127.32 101.23 127.343 101.208 127.342 101.209C127.339 101.212 127.312 101.238 127.256 101.272L124.128 96.1526ZM126.333 97.0339L124.401 95.8804L121.325 101.032L123.257 102.185L126.333 97.0339ZM125.407 100.046C125.401 100.055 125.502 99.8918 125.944 99.6431L123.005 94.4125C121.97 94.994 120.996 95.7828 120.319 96.8661L125.407 100.046ZM125.96 99.6339C126.169 99.5149 126.51 99.3961 127.093 99.3961V93.3961C125.661 93.3961 124.257 93.6985 122.988 94.4218L125.96 99.6339ZM127.093 99.3961C127.49 99.3961 127.724 99.4479 127.843 99.4881C127.949 99.5237 127.962 99.5486 127.948 99.5346L132.152 95.2535C130.735 93.8622 128.881 93.3961 127.093 93.3961V99.3961ZM127.958 99.544C127.926 99.5128 127.945 99.5101 127.98 99.6132C128.02 99.7317 128.075 99.9755 128.075 100.397H134.075C134.075 98.5816 133.607 96.6695 132.142 95.2441L127.958 99.544ZM128.075 100.397V106H134.075V100.397H128.075ZM131.356 102.191V101.834H125.356V102.191H131.356ZM128.063 98.8487L126.196 99.0318L126.781 105.003L128.649 104.82L128.063 98.8487ZM126.153 99.0363C125.404 99.1207 124.326 99.3788 123.448 100.23L127.625 104.537C127.381 104.774 127.143 104.892 127.002 104.946C126.867 104.998 126.794 105.002 126.824 104.999L126.153 99.0363ZM123.449 100.229C122.55 101.1 122.243 102.205 122.243 103.162H128.243C128.243 103.291 128.224 103.512 128.124 103.777C128.02 104.054 127.851 104.319 127.624 104.538L123.449 100.229ZM122.243 103.162C122.243 104.315 122.722 105.374 123.58 106.137L127.566 101.652C127.741 101.808 127.927 102.034 128.062 102.334C128.197 102.634 128.243 102.924 128.243 103.162H122.243ZM123.615 106.168C124.464 106.898 125.472 107.178 126.406 107.178V101.178C126.521 101.178 126.7 101.195 126.913 101.267C127.133 101.342 127.346 101.462 127.531 101.621L123.615 106.168ZM126.406 107.178C127.696 107.178 128.974 106.728 129.963 105.705L125.651 101.534C125.756 101.425 125.903 101.321 126.076 101.252C126.242 101.185 126.366 101.178 126.406 101.178V107.178ZM129.963 105.706C130.921 104.715 131.356 103.467 131.356 102.191H125.356C125.356 102.156 125.363 102.048 125.419 101.902C125.477 101.751 125.563 101.624 125.651 101.533L129.963 105.706ZM139.462 105.332L141.487 107.545C142.624 106.504 142.788 104.771 141.865 103.536L139.462 105.332ZM138.4 105.982L139.493 108.775C139.504 108.771 139.516 108.766 139.528 108.762L138.4 105.982ZM133.859 98.7582H136.859C136.859 97.1013 135.515 95.7582 133.859 95.7582V98.7582ZM132.339 98.7582H129.339C129.339 100.415 130.682 101.758 132.339 101.758V98.7582ZM132.339 96.625V93.625C130.682 93.625 129.339 94.9681 129.339 96.625H132.339ZM133.859 96.625V99.625C135.515 99.625 136.859 98.2819 136.859 96.625H133.859ZM133.859 94.2355L133.333 91.2818C131.902 91.5363 130.859 92.7812 130.859 94.2355H133.859ZM136.742 93.7228H139.742C139.742 92.8353 139.349 91.9933 138.669 91.4233C137.989 90.8533 137.091 90.6137 136.217 90.7691L136.742 93.7228ZM136.742 96.625H133.742C133.742 98.2819 135.086 99.625 136.742 99.625V96.625ZM138.995 96.625H141.995C141.995 94.9681 140.651 93.625 138.995 93.625V96.625ZM138.995 98.7582V101.758C140.651 101.758 141.995 100.415 141.995 98.7582H138.995ZM136.742 98.7582V95.7582C135.086 95.7582 133.742 97.1013 133.742 98.7582H136.742ZM136.926 103.903L134.621 105.824C134.636 105.843 134.652 105.861 134.668 105.879L136.926 103.903ZM137.859 104.059L138.769 106.918C138.794 106.91 138.82 106.901 138.845 106.893L137.859 104.059ZM138.299 103.775L140.702 101.98C140.194 101.3 139.422 100.867 138.577 100.788C137.731 100.71 136.892 100.993 136.268 101.567L138.299 103.775ZM137.437 103.118C137.453 103.103 137.417 103.143 137.271 103.202L139.528 108.762C140.224 108.479 140.896 108.085 141.487 107.545L137.437 103.118ZM137.306 103.188C137.265 103.204 137.182 103.229 137.026 103.229V109.229C137.86 109.229 138.692 109.089 139.493 108.775L137.306 103.188ZM137.026 103.229C136.709 103.229 136.554 103.191 136.512 103.178C136.484 103.169 136.58 103.195 136.706 103.315L132.567 107.659C133.867 108.898 135.559 109.229 137.026 109.229V103.229ZM136.706 103.315C136.758 103.365 136.801 103.419 136.833 103.469C136.865 103.519 136.879 103.556 136.884 103.568C136.891 103.588 136.859 103.507 136.859 103.272H130.859C130.859 104.761 131.26 106.413 132.567 107.659L136.706 103.315ZM136.859 103.272V98.7582H130.859V103.272H136.859ZM133.859 95.7582H132.339V101.758H133.859V95.7582ZM135.339 98.7582V96.625H129.339V98.7582H135.339ZM132.339 99.625H133.859V93.625H132.339V99.625ZM136.859 96.625V94.2355H130.859V96.625H136.859ZM134.384 97.1892L137.268 96.6765L136.217 90.7691L133.333 91.2818L134.384 97.1892ZM133.742 93.7228V96.625H139.742V93.7228H133.742ZM136.742 99.625H138.995V93.625H136.742V99.625ZM135.995 96.625V98.7582H141.995V96.625H135.995ZM138.995 95.7582H136.742V101.758H138.995V95.7582ZM133.742 98.7582V103.253H139.742V98.7582H133.742ZM133.742 103.253C133.742 103.902 133.871 104.925 134.621 105.824L139.23 101.983C139.736 102.589 139.742 103.179 139.742 103.253H133.742ZM134.668 105.879C135.459 106.784 136.519 107.123 137.457 107.123V101.123C137.668 101.123 137.967 101.158 138.301 101.296C138.647 101.439 138.948 101.66 139.183 101.928L134.668 105.879ZM137.457 107.123C137.914 107.123 138.355 107.05 138.769 106.918L136.95 101.2C137.095 101.154 137.267 101.123 137.457 101.123V107.123ZM138.845 106.893C139.494 106.667 139.987 106.299 140.33 105.983L136.268 101.567C136.306 101.532 136.505 101.354 136.874 101.226L138.845 106.893ZM135.895 105.571L137.058 107.127L141.865 103.536L140.702 101.98L135.895 105.571Z" fill="black" mask="url(#path-3-outside-1_3913_112)"/>
</g>
<defs>
<filter id="filter0_dd_3913_112" x="60.1196" y="3" width="77.7256" height="83.6519" filterUnits="userSpaceOnUse" color-interpolation-filters="sRGB">
<feFlood flood-opacity="0" result="BackgroundImageFix"/>
<feColorMatrix in="SourceAlpha" type="matrix" values="0 0 0 0 0 0 0 0 0 0 0 0 0 0 0 0 0 0 127 0" result="hardAlpha"/>
<feOffset dy="4"/>
<feGaussianBlur stdDeviation="2.75"/>
<feComposite in2="hardAlpha" operator="out"/>
<feColorMatrix type="matrix" values="0 0 0 0 0 0 0 0 0 0 0 0 0 0 0 0 0 0 0.25 0"/>
<feBlend mode="normal" in2="BackgroundImageFix" result="effect1_dropShadow_3913_112"/>
<feColorMatrix in="SourceAlpha" type="matrix" values="0 0 0 0 0 0 0 0 0 0 0 0 0 0 0 0 0 0 127 0" result="hardAlpha"/>
<feOffset dy="-7"/>
<feGaussianBlur stdDeviation="2"/>
<feComposite in2="hardAlpha" operator="out"/>
<feColorMatrix type="matrix" values="0 0 0 0 0.961028 0 0 0 0 0.961028 0 0 0 0 0.477774 0 0 0 1 0"/>
<feBlend mode="normal" in2="effect1_dropShadow_3913_112" result="effect2_dropShadow_3913_112"/>
<feBlend mode="normal" in="SourceGraphic" in2="effect2_dropShadow_3913_112" result="shape"/>
</filter>
<filter id="filter1_dd_3913_112" x="52.251" y="84.1206" width="92.7104" height="35.6915" filterUnits="userSpaceOnUse" color-interpolation-filters="sRGB">
<feFlood flood-opacity="0" result="BackgroundImageFix"/>
<feColorMatrix in="SourceAlpha" type="matrix" values="0 0 0 0 0 0 0 0 0 0 0 0 0 0 0 0 0 0 127 0" result="hardAlpha"/>
<feOffset dy="4"/>
<feGaussianBlur stdDeviation="2.75"/>
<feComposite in2="hardAlpha" operator="out"/>
<feColorMatrix type="matrix" values="0 0 0 0 0 0 0 0 0 0 0 0 0 0 0 0 0 0 0.25 0"/>
<feBlend mode="normal" in2="BackgroundImageFix" result="effect1_dropShadow_3913_112"/>
<feColorMatrix in="SourceAlpha" type="matrix" values="0 0 0 0 0 0 0 0 0 0 0 0 0 0 0 0 0 0 127 0" result="hardAlpha"/>
<feOffset dy="-4"/>
<feGaussianBlur stdDeviation="2"/>
<feComposite in2="hardAlpha" operator="out"/>
<feColorMatrix type="matrix" values="0 0 0 0 0.961028 0 0 0 0 0.961028 0 0 0 0 0.477774 0 0 0 1 0"/>
<feBlend mode="normal" in2="effect1_dropShadow_3913_112" result="effect2_dropShadow_3913_112"/>
<feBlend mode="normal" in="SourceGraphic" in2="effect2_dropShadow_3913_112" result="shape"/>
</filter>
</defs>
</svg>
