<svg width="198" height="128" viewBox="0 0 198 128" fill="none" xmlns="http://www.w3.org/2000/svg">
<rect width="198" height="128" fill="#FBFB01"/>
<g filter="url(#filter0_dd_3913_112)">
<path d="M128.375 57.8791C120.713 56.6158 117.212 48.6803 117.099 48.4225C117.083 48.3761 117.047 48.2936 117.026 48.2472C116.794 47.7831 116.562 47.1283 116.758 46.6642C117.093 45.8702 118.687 45.3648 119.641 45.0606C119.976 44.9523 120.295 44.8544 120.543 44.7564C122.858 43.8386 124.013 42.6423 123.987 41.1883C123.967 40.0178 123.07 38.9453 121.75 38.4812C121.291 38.2853 120.765 38.1873 120.234 38.1873C119.873 38.1873 119.326 38.2389 118.8 38.4812C117.918 38.8937 117.145 39.1155 116.593 39.1412C116.475 39.1361 116.372 39.1258 116.284 39.1103L116.341 38.2028C116.598 34.0984 116.923 28.9834 115.536 25.8742C111.442 16.7116 102.769 16 100.207 16L99.0414 16.0103C96.4839 16.0103 87.8266 16.7219 83.7428 25.8794C82.3558 28.9886 82.6755 34.0984 82.9384 38.208L82.9488 38.3627C82.9642 38.6153 82.9797 38.868 82.9952 39.1103C82.4228 39.2134 81.3039 39.0227 80.1438 38.4812C78.5659 37.7439 75.7249 38.7184 75.333 40.7809C75.1577 41.6936 75.3691 43.4261 78.7309 44.7512C78.9836 44.8544 79.2981 44.9523 79.6384 45.0606C80.5872 45.3648 82.1805 45.865 82.5156 46.6642C82.7116 47.1283 82.4795 47.7831 82.2063 48.3452C82.0619 48.6803 78.5814 56.6158 70.9038 57.8791C69.9241 58.0389 69.228 58.9052 69.2795 59.9055C69.295 60.1684 69.362 60.4314 69.4703 60.6892C70.1664 62.3237 72.6981 63.4478 77.4213 64.2161C77.5038 64.4945 77.5966 64.907 77.6481 65.1339C77.7461 65.6031 77.8544 66.0775 77.9988 66.5725C78.138 67.0417 78.6175 68.1297 80.1128 68.1297C80.5666 68.1297 81.0616 68.0317 81.5927 67.9286C82.3764 67.7739 83.3561 67.5831 84.6142 67.5831C85.3155 67.5831 86.0374 67.645 86.7644 67.7636C88.105 67.9853 89.3167 68.8464 90.7244 69.8364C92.9209 71.3936 95.4114 73.1519 99.2734 73.1519C99.3766 73.1519 99.4797 73.1467 99.5777 73.1416C99.7169 73.1467 99.8613 73.1519 100.006 73.1519C103.868 73.1519 106.358 71.3884 108.56 69.8364C109.9 68.8825 111.169 67.9905 112.515 67.7636C113.242 67.645 113.964 67.5831 114.665 67.5831C115.877 67.5831 116.836 67.7378 117.692 67.908C118.3 68.0266 118.785 68.0833 119.233 68.0833C120.234 68.0833 121.002 67.5109 121.28 66.5519C121.425 66.0672 121.528 65.598 121.631 65.1236C121.672 64.9483 121.77 64.5048 121.858 64.2109C126.581 63.4427 129.113 62.3186 129.804 60.6995C129.917 60.4417 129.979 60.1736 130 59.8952C130.051 58.9103 129.355 58.0441 128.375 57.8791Z" fill="white"/>
<path d="M128.619 56.399L128.624 56.3999C130.35 56.6906 131.589 58.2224 131.497 59.9736L131.497 59.9898L131.495 60.006C131.464 60.4348 131.367 60.8693 131.18 61.2959C130.617 62.6086 129.406 63.5016 127.95 64.146C126.676 64.7095 125.048 65.1572 123.08 65.5213C122.982 65.9696 122.872 66.4618 122.719 66.9761C122.251 68.5782 120.893 69.5833 119.233 69.5833C118.656 69.5833 118.069 69.5098 117.405 69.3803L117.399 69.3792C116.592 69.2188 115.74 69.0831 114.665 69.0831C114.052 69.0831 113.413 69.1371 112.76 69.2433C111.821 69.4029 110.845 70.0513 109.429 71.0586L109.424 71.0624L109.345 71.1182C107.155 72.6623 104.334 74.6519 100.006 74.6519C99.8572 74.6519 99.7125 74.6474 99.5888 74.643C99.5001 74.6474 99.3892 74.6519 99.2734 74.6519C94.923 74.6519 92.0957 72.6474 89.9013 71.0916L89.8615 71.0633C89.8607 71.0628 89.8599 71.0622 89.859 71.0616C88.365 70.0109 87.4531 69.3985 86.5217 69.2438C85.8682 69.1373 85.2276 69.0831 84.6142 69.0831C83.5124 69.0831 82.6547 69.2479 81.8831 69.4002L81.8786 69.4011C81.8518 69.4063 81.8244 69.4116 81.7967 69.417C81.3194 69.5101 80.7063 69.6297 80.1128 69.6297C78.9535 69.6297 78.0764 69.1893 77.4762 68.5772C76.9159 68.0058 76.6678 67.36 76.5607 66.9992L76.5587 66.9925C76.4082 66.4763 76.2953 65.9878 76.1978 65.5262C74.2302 65.162 72.6019 64.7141 71.3273 64.1486C69.8643 63.4995 68.6535 62.5996 68.0903 61.2769L68.0873 61.2701C67.9242 60.8815 67.8091 60.452 67.7821 59.9936L67.7815 59.9827L67.7815 59.9827C67.691 58.2262 68.9207 56.6828 70.6622 56.3986C74.0216 55.8452 76.5182 53.8238 78.2349 51.7951C79.9495 49.769 80.7863 47.85 80.8286 47.7517L80.8422 47.7201L80.8573 47.6892C80.9446 47.5097 81.0066 47.3588 81.0451 47.2384C80.9535 47.1789 80.8292 47.1097 80.6684 47.034C80.2156 46.8209 79.6795 46.649 79.1858 46.4907L79.1836 46.49C79.1546 46.4808 79.125 46.4714 79.0949 46.4618C78.8033 46.3693 78.4629 46.2614 78.1728 46.1436C76.313 45.4092 75.1134 44.4806 74.438 43.4136C73.7445 42.3178 73.7153 41.2525 73.8596 40.4995C74.1787 38.8232 75.4557 37.7361 76.7035 37.2021C77.9314 36.6767 79.4977 36.5236 80.7788 37.1223C80.9852 37.2186 81.1881 37.3004 81.3824 37.3686C81.2704 35.5546 81.169 33.5497 81.2225 31.6269C81.2845 29.3939 81.5565 27.0984 82.373 25.2683C86.8296 15.2747 96.3021 14.5116 99.0346 14.5103L100.193 14.5001L100.207 14.4999V14.5C102.935 14.5 112.435 15.2557 116.906 25.2623L116.906 25.2631C117.723 27.0938 117.993 29.3912 118.055 31.6241C118.106 33.5034 118.011 35.4612 117.903 37.24C117.987 37.2038 118.074 37.1647 118.165 37.1226L118.172 37.1189C118.968 36.7525 119.753 36.6873 120.234 36.6873C120.925 36.6873 121.638 36.811 122.293 37.0824C124.022 37.7078 125.453 39.2257 125.487 41.1619M128.619 56.399L123.987 41.1883M128.619 56.399C125.266 55.8462 122.767 53.824 121.049 51.8025C119.451 49.922 118.618 48.1428 118.489 47.8566M128.619 56.399L128.375 57.8791M125.487 41.1619L123.987 41.1883M125.487 41.1619C125.487 41.1618 125.487 41.1617 125.487 41.1617L123.987 41.1883M125.487 41.1619C125.531 43.6191 123.534 45.1842 121.096 46.1508L121.095 46.1511C120.842 46.2513 120.53 46.351 120.264 46.4361C120.207 46.4541 120.153 46.4714 120.102 46.488L120.096 46.4897C119.603 46.6472 119.062 46.8213 118.607 47.0356C118.445 47.1119 118.32 47.1817 118.227 47.2418M123.987 41.1883C124.013 42.6423 122.858 43.8386 120.543 44.7564C120.342 44.8359 120.094 44.9154 119.828 45.0005C119.766 45.0202 119.704 45.0402 119.641 45.0606L119.629 45.0643C118.674 45.3689 117.092 45.8734 116.758 46.6642C116.562 47.1283 116.794 47.7831 117.026 48.2472C117.047 48.2936 117.083 48.3761 117.099 48.4225M118.227 47.2418C118.214 47.201 118.203 47.163 118.196 47.1285C118.186 47.0838 118.185 47.0629 118.185 47.0629C118.185 47.0629 118.185 47.0641 118.185 47.0664C118.184 47.0796 118.182 47.1493 118.14 47.2477C118.113 47.3108 118.087 47.3456 118.079 47.3554M118.227 47.2418C118.192 47.2651 118.161 47.287 118.135 47.3072C118.102 47.3327 118.085 47.3491 118.079 47.3554M118.227 47.2418C118.26 47.3404 118.308 47.4555 118.368 47.5764L118.383 47.6068L118.397 47.638L118.399 47.6429C118.412 47.6705 118.452 47.7609 118.489 47.8566M118.079 47.3554C118.077 47.3573 118.076 47.3583 118.076 47.3583C118.076 47.3583 118.077 47.3574 118.079 47.3554ZM118.489 47.8566C118.48 47.8364 118.474 47.8237 118.472 47.8188L118.472 47.8184L117.099 48.4225M118.489 47.8566C118.5 47.8872 118.512 47.9184 118.522 47.9482L117.099 48.4225M117.099 48.4225C117.212 48.6803 120.713 56.6158 128.375 57.8791M108.56 69.8364L108.541 69.8498C106.344 71.3985 103.857 73.1519 100.006 73.1519C99.8613 73.1519 99.7169 73.1467 99.5777 73.1416C99.4797 73.1467 99.3766 73.1519 99.2734 73.1519C95.4114 73.1519 92.9209 71.3936 90.7244 69.8364L90.6735 69.8006C89.2875 68.8257 88.0888 67.9826 86.7644 67.7636C86.0374 67.645 85.3155 67.5831 84.6142 67.5831C83.3561 67.5831 82.3764 67.7739 81.5927 67.9286L108.56 69.8364ZM108.56 69.8364C109.9 68.8825 111.169 67.9905 112.515 67.7636C113.242 67.645 113.964 67.5831 114.665 67.5831C115.877 67.5831 116.836 67.7378 117.692 67.908M108.56 69.8364L117.692 67.908M117.692 67.908C118.3 68.0266 118.785 68.0833 119.233 68.0833C120.234 68.0833 121.002 67.5109 121.28 66.5519C121.425 66.0672 121.528 65.598 121.631 65.1236M117.692 67.908L130 59.8952M130 59.8952C129.979 60.1736 129.917 60.4417 129.804 60.6995C129.113 62.3186 126.581 63.4427 121.858 64.2109M130 59.8952C130.051 58.9103 129.355 58.0441 128.375 57.8791M130 59.8952L128.375 57.8791M121.858 64.2109C121.785 64.454 121.706 64.7994 121.657 65.0108C121.647 65.055 121.638 65.0933 121.631 65.1236M121.858 64.2109L122.02 65.2082M121.858 64.2109L123.295 64.6396C123.238 64.8312 123.174 65.1093 123.124 65.324C123.113 65.371 123.103 65.4149 123.094 65.4542L122.02 65.2082M121.631 65.1236L122.02 65.2082M121.631 65.1236L122.021 65.2154L122.02 65.2082M117.801 38.8845L117.838 38.2968L116.633 38.2212L116.594 39.1297M117.801 38.8845L117.838 38.2964L116.633 38.2211L116.658 37.6427C116.629 37.6414 116.605 37.6397 116.587 37.6381M117.801 38.8845C117.377 39.0258 116.999 39.1097 116.685 39.1354L116.594 39.1297M117.801 38.8845L116.587 37.6381M116.594 39.1297L116.593 39.1296M116.594 39.1297L116.593 39.1412L116.593 39.1296M116.593 39.1296L116.55 38.216L116.443 38.2092M116.593 39.1296L116.284 39.1103L116.443 38.2092M116.443 38.2092L116.443 38.2092M116.443 38.2092L116.341 38.2028L116.443 38.2092M116.443 38.2092L116.55 38.2159L116.527 37.7307M116.443 38.2092L116.527 37.7307M116.527 37.7307L116.543 37.6418M116.527 37.7307L116.523 37.6429C116.53 37.6426 116.536 37.6422 116.543 37.6418M116.543 37.6418C116.557 37.6409 116.572 37.6397 116.587 37.6381M116.543 37.6418L116.545 37.6331C116.548 37.6337 116.562 37.6359 116.587 37.6381M81.196 47.3546C81.1959 47.3546 81.1951 47.3537 81.1935 47.3518C81.1953 47.3537 81.1961 47.3546 81.196 47.3546Z" stroke="black" stroke-width="3"/>
</g>
<g filter="url(#filter1_dd_3913_112)">
<mask id="path-3-outside-1_3913_112" maskUnits="userSpaceOnUse" x="43" y="84" width="113" height="32" fill="black">
<rect fill="white" x="43" y="84" width="113" height="32"/>
<path d="M46.9609 102.707L50.1484 101.043C50.5078 101.77 50.9766 102.305 51.5547 102.648C52.1406 102.992 52.7812 103.164 53.4766 103.164C54.3281 103.164 54.9609 103.004 55.375 102.684C55.7891 102.355 55.9961 101.906 55.9961 101.336C55.9961 100.75 55.7695 100.289 55.3164 99.9531C54.8711 99.6172 54.1641 99.3594 53.1953 99.1797C51.3359 98.8203 49.9688 98.2461 49.0938 97.457C48.2266 96.6602 47.793 95.5625 47.793 94.1641C47.793 92.5703 48.3555 91.2969 49.4805 90.3438C50.6055 89.3906 52.0898 88.9141 53.9336 88.9141C55.1914 88.9141 56.293 89.168 57.2383 89.6758C58.1836 90.1836 58.9258 90.9102 59.4648 91.8555L56.3477 93.4609C56.0352 92.9297 55.6797 92.5469 55.2812 92.3125C54.8828 92.0703 54.3672 91.9492 53.7344 91.9492C53 91.9492 52.4336 92.1094 52.0352 92.4297C51.6445 92.75 51.4492 93.1523 51.4492 93.6367C51.4492 94.1289 51.6445 94.5273 52.0352 94.832C52.4258 95.1289 53.1562 95.3711 54.2266 95.5586C56.0078 95.8789 57.3516 96.4727 58.2578 97.3398C59.1719 98.1992 59.6289 99.3672 59.6289 100.844C59.6289 102.516 59.0938 103.844 58.0234 104.828C56.9531 105.805 55.4258 106.293 53.4414 106.293C52.0039 106.293 50.707 105.98 49.5508 105.355C48.4023 104.723 47.5391 103.84 46.9609 102.707ZM73.3984 106H69.707V99.1094C69.707 98.3438 69.543 97.7344 69.2148 97.2812C68.8867 96.8203 68.3984 96.5898 67.75 96.5898C67.1016 96.5898 66.5664 96.832 66.1445 97.3164C65.7227 97.8008 65.5117 98.4141 65.5117 99.1562V106H61.8086V94H65.5117V95.5234H65.5586C65.9492 94.9766 66.4922 94.5391 67.1875 94.2109C67.8828 93.875 68.582 93.707 69.2852 93.707C70.6367 93.707 71.6602 94.1289 72.3555 94.9727C73.0508 95.8164 73.3984 97.0078 73.3984 98.5469V106ZM86.0898 106H82.5859V104.652H82.5391C82.0938 105.199 81.5703 105.609 80.9688 105.883C80.375 106.156 79.707 106.293 78.9648 106.293C77.9492 106.293 77.0703 105.98 76.3281 105.355C75.5859 104.723 75.2148 103.855 75.2148 102.754C75.2148 101.684 75.5703 100.789 76.2812 100.07C76.9922 99.3438 78.0391 98.9062 79.4219 98.7578L82.6094 98.418V98.0547C82.6094 97.4688 82.4219 97.0273 82.0469 96.7305C81.6797 96.4336 81.2188 96.2852 80.6641 96.2852C80.1094 96.2852 79.6211 96.4141 79.1992 96.6719C78.7773 96.9297 78.3945 97.3125 78.0508 97.8203L75.5781 96.3438C76.0078 95.6562 76.6953 95.0469 77.6406 94.5156C78.5859 93.9766 79.7031 93.707 80.9922 93.707C82.6484 93.707 83.9102 94.1328 84.7773 94.9844C85.6523 95.8359 86.0898 97.1172 86.0898 98.8281V106ZM82.6094 101.125V100.668L80.2188 100.902C79.6641 100.965 79.2578 101.121 79 101.371C78.75 101.613 78.625 101.945 78.625 102.367C78.625 102.742 78.7656 103.055 79.0469 103.305C79.3281 103.547 79.6836 103.668 80.1133 103.668C80.8477 103.668 81.4453 103.43 81.9062 102.953C82.375 102.469 82.6094 101.859 82.6094 101.125ZM92.5352 104.98H92.4883V111.52H88.7852V94H92.4883V95.5586H92.5352C92.9961 94.9414 93.5625 94.4805 94.2344 94.1758C94.9062 93.8633 95.6562 93.707 96.4844 93.707C98.0469 93.707 99.2656 94.2266 100.141 95.2656C101.016 96.3047 101.453 97.7695 101.453 99.6602C101.453 101.66 100.945 103.266 99.9297 104.477C98.9141 105.688 97.5898 106.293 95.957 106.293C95.2305 106.293 94.5742 106.184 93.9883 105.965C93.4023 105.746 92.918 105.418 92.5352 104.98ZM92.4297 99.543V100.785C92.4297 101.559 92.668 102.188 93.1445 102.672C93.6211 103.156 94.2227 103.398 94.9492 103.398C95.7773 103.398 96.4336 103.078 96.918 102.438C97.4102 101.797 97.6562 100.887 97.6562 99.707C97.6562 98.668 97.4375 97.8906 97 97.375C96.5703 96.8516 95.9531 96.5898 95.1484 96.5898C94.375 96.5898 93.7266 96.8594 93.2031 97.3984C92.6875 97.9375 92.4297 98.6523 92.4297 99.543ZM114.414 103.223C113.875 104.23 113.141 104.996 112.211 105.52C111.289 106.035 110.23 106.293 109.035 106.293C107.113 106.293 105.609 105.742 104.523 104.641C103.445 103.531 102.906 102.082 102.906 100.293C102.906 98.2539 103.504 96.6484 104.699 95.4766C105.895 94.3047 107.449 93.7188 109.363 93.7188C110.543 93.7188 111.582 93.9961 112.48 94.5508C113.379 95.0977 113.984 95.8984 114.297 96.9531L111.297 98.0664C111.062 97.5586 110.777 97.1875 110.441 96.9531C110.113 96.7109 109.707 96.5898 109.223 96.5898C108.496 96.5898 107.887 96.8711 107.395 97.4336C106.91 97.9883 106.668 98.8594 106.668 100.047C106.668 101.172 106.898 101.996 107.359 102.52C107.82 103.043 108.406 103.305 109.117 103.305C109.656 103.305 110.109 103.191 110.477 102.965C110.852 102.73 111.195 102.359 111.508 101.852L114.414 103.223ZM128.125 106H124.434V99.0859C124.434 98.2812 124.266 97.6641 123.93 97.2344C123.602 96.8047 123.129 96.5898 122.512 96.5898C121.855 96.5898 121.324 96.832 120.918 97.3164C120.512 97.8008 120.309 98.4141 120.309 99.1562V106H116.605V88.2344H120.309V95.5H120.355C120.738 94.9766 121.277 94.5469 121.973 94.2109C122.668 93.875 123.359 93.707 124.047 93.707C125.328 93.707 126.328 94.1094 127.047 94.9141C127.766 95.7188 128.125 96.9258 128.125 98.5352V106ZM140.816 106H137.312V104.652H137.266C136.82 105.199 136.297 105.609 135.695 105.883C135.102 106.156 134.434 106.293 133.691 106.293C132.676 106.293 131.797 105.98 131.055 105.355C130.312 104.723 129.941 103.855 129.941 102.754C129.941 101.684 130.297 100.789 131.008 100.07C131.719 99.3438 132.766 98.9062 134.148 98.7578L137.336 98.418V98.0547C137.336 97.4688 137.148 97.0273 136.773 96.7305C136.406 96.4336 135.945 96.2852 135.391 96.2852C134.836 96.2852 134.348 96.4141 133.926 96.6719C133.504 96.9297 133.121 97.3125 132.777 97.8203L130.305 96.3438C130.734 95.6562 131.422 95.0469 132.367 94.5156C133.312 93.9766 134.43 93.707 135.719 93.707C137.375 93.707 138.637 94.1328 139.504 94.9844C140.379 95.8359 140.816 97.1172 140.816 98.8281V106ZM137.336 101.125V100.668L134.945 100.902C134.391 100.965 133.984 101.121 133.727 101.371C133.477 101.613 133.352 101.945 133.352 102.367C133.352 102.742 133.492 103.055 133.773 103.305C134.055 103.547 134.41 103.668 134.84 103.668C135.574 103.668 136.172 103.43 136.633 102.953C137.102 102.469 137.336 101.859 137.336 101.125ZM151.551 105.145C151.184 105.48 150.73 105.758 150.191 105.977C149.652 106.188 149.066 106.293 148.434 106.293C147.059 106.293 146.039 105.977 145.375 105.344C144.711 104.711 144.379 103.766 144.379 102.508V96.7305H142.434V94H144.379V90.9414L148.07 90.2852V94H150.953V96.7305H148.07V102.484C148.07 102.852 148.148 103.129 148.305 103.316C148.469 103.504 148.695 103.598 148.984 103.598C149.156 103.598 149.328 103.57 149.5 103.516C149.68 103.453 149.867 103.332 150.062 103.152L151.551 105.145Z"/>
</mask>
<path d="M46.9609 102.707L50.1484 101.043C50.5078 101.77 50.9766 102.305 51.5547 102.648C52.1406 102.992 52.7812 103.164 53.4766 103.164C54.3281 103.164 54.9609 103.004 55.375 102.684C55.7891 102.355 55.9961 101.906 55.9961 101.336C55.9961 100.75 55.7695 100.289 55.3164 99.9531C54.8711 99.6172 54.1641 99.3594 53.1953 99.1797C51.3359 98.8203 49.9688 98.2461 49.0938 97.457C48.2266 96.6602 47.793 95.5625 47.793 94.1641C47.793 92.5703 48.3555 91.2969 49.4805 90.3438C50.6055 89.3906 52.0898 88.9141 53.9336 88.9141C55.1914 88.9141 56.293 89.168 57.2383 89.6758C58.1836 90.1836 58.9258 90.9102 59.4648 91.8555L56.3477 93.4609C56.0352 92.9297 55.6797 92.5469 55.2812 92.3125C54.8828 92.0703 54.3672 91.9492 53.7344 91.9492C53 91.9492 52.4336 92.1094 52.0352 92.4297C51.6445 92.75 51.4492 93.1523 51.4492 93.6367C51.4492 94.1289 51.6445 94.5273 52.0352 94.832C52.4258 95.1289 53.1562 95.3711 54.2266 95.5586C56.0078 95.8789 57.3516 96.4727 58.2578 97.3398C59.1719 98.1992 59.6289 99.3672 59.6289 100.844C59.6289 102.516 59.0938 103.844 58.0234 104.828C56.9531 105.805 55.4258 106.293 53.4414 106.293C52.0039 106.293 50.707 105.98 49.5508 105.355C48.4023 104.723 47.5391 103.84 46.9609 102.707ZM73.3984 106H69.707V99.1094C69.707 98.3438 69.543 97.7344 69.2148 97.2812C68.8867 96.8203 68.3984 96.5898 67.75 96.5898C67.1016 96.5898 66.5664 96.832 66.1445 97.3164C65.7227 97.8008 65.5117 98.4141 65.5117 99.1562V106H61.8086V94H65.5117V95.5234H65.5586C65.9492 94.9766 66.4922 94.5391 67.1875 94.2109C67.8828 93.875 68.582 93.707 69.2852 93.707C70.6367 93.707 71.6602 94.1289 72.3555 94.9727C73.0508 95.8164 73.3984 97.0078 73.3984 98.5469V106ZM86.0898 106H82.5859V104.652H82.5391C82.0938 105.199 81.5703 105.609 80.9688 105.883C80.375 106.156 79.707 106.293 78.9648 106.293C77.9492 106.293 77.0703 105.98 76.3281 105.355C75.5859 104.723 75.2148 103.855 75.2148 102.754C75.2148 101.684 75.5703 100.789 76.2812 100.07C76.9922 99.3438 78.0391 98.9062 79.4219 98.7578L82.6094 98.418V98.0547C82.6094 97.4688 82.4219 97.0273 82.0469 96.7305C81.6797 96.4336 81.2188 96.2852 80.6641 96.2852C80.1094 96.2852 79.6211 96.4141 79.1992 96.6719C78.7773 96.9297 78.3945 97.3125 78.0508 97.8203L75.5781 96.3438C76.0078 95.6562 76.6953 95.0469 77.6406 94.5156C78.5859 93.9766 79.7031 93.707 80.9922 93.707C82.6484 93.707 83.9102 94.1328 84.7773 94.9844C85.6523 95.8359 86.0898 97.1172 86.0898 98.8281V106ZM82.6094 101.125V100.668L80.2188 100.902C79.6641 100.965 79.2578 101.121 79 101.371C78.75 101.613 78.625 101.945 78.625 102.367C78.625 102.742 78.7656 103.055 79.0469 103.305C79.3281 103.547 79.6836 103.668 80.1133 103.668C80.8477 103.668 81.4453 103.43 81.9062 102.953C82.375 102.469 82.6094 101.859 82.6094 101.125ZM92.5352 104.98H92.4883V111.52H88.7852V94H92.4883V95.5586H92.5352C92.9961 94.9414 93.5625 94.4805 94.2344 94.1758C94.9062 93.8633 95.6562 93.707 96.4844 93.707C98.0469 93.707 99.2656 94.2266 100.141 95.2656C101.016 96.3047 101.453 97.7695 101.453 99.6602C101.453 101.66 100.945 103.266 99.9297 104.477C98.9141 105.688 97.5898 106.293 95.957 106.293C95.2305 106.293 94.5742 106.184 93.9883 105.965C93.4023 105.746 92.918 105.418 92.5352 104.98ZM92.4297 99.543V100.785C92.4297 101.559 92.668 102.188 93.1445 102.672C93.6211 103.156 94.2227 103.398 94.9492 103.398C95.7773 103.398 96.4336 103.078 96.918 102.438C97.4102 101.797 97.6562 100.887 97.6562 99.707C97.6562 98.668 97.4375 97.8906 97 97.375C96.5703 96.8516 95.9531 96.5898 95.1484 96.5898C94.375 96.5898 93.7266 96.8594 93.2031 97.3984C92.6875 97.9375 92.4297 98.6523 92.4297 99.543ZM114.414 103.223C113.875 104.23 113.141 104.996 112.211 105.52C111.289 106.035 110.23 106.293 109.035 106.293C107.113 106.293 105.609 105.742 104.523 104.641C103.445 103.531 102.906 102.082 102.906 100.293C102.906 98.2539 103.504 96.6484 104.699 95.4766C105.895 94.3047 107.449 93.7188 109.363 93.7188C110.543 93.7188 111.582 93.9961 112.48 94.5508C113.379 95.0977 113.984 95.8984 114.297 96.9531L111.297 98.0664C111.062 97.5586 110.777 97.1875 110.441 96.9531C110.113 96.7109 109.707 96.5898 109.223 96.5898C108.496 96.5898 107.887 96.8711 107.395 97.4336C106.91 97.9883 106.668 98.8594 106.668 100.047C106.668 101.172 106.898 101.996 107.359 102.52C107.82 103.043 108.406 103.305 109.117 103.305C109.656 103.305 110.109 103.191 110.477 102.965C110.852 102.73 111.195 102.359 111.508 101.852L114.414 103.223ZM128.125 106H124.434V99.0859C124.434 98.2812 124.266 97.6641 123.93 97.2344C123.602 96.8047 123.129 96.5898 122.512 96.5898C121.855 96.5898 121.324 96.832 120.918 97.3164C120.512 97.8008 120.309 98.4141 120.309 99.1562V106H116.605V88.2344H120.309V95.5H120.355C120.738 94.9766 121.277 94.5469 121.973 94.2109C122.668 93.875 123.359 93.707 124.047 93.707C125.328 93.707 126.328 94.1094 127.047 94.9141C127.766 95.7188 128.125 96.9258 128.125 98.5352V106ZM140.816 106H137.312V104.652H137.266C136.82 105.199 136.297 105.609 135.695 105.883C135.102 106.156 134.434 106.293 133.691 106.293C132.676 106.293 131.797 105.98 131.055 105.355C130.312 104.723 129.941 103.855 129.941 102.754C129.941 101.684 130.297 100.789 131.008 100.07C131.719 99.3438 132.766 98.9062 134.148 98.7578L137.336 98.418V98.0547C137.336 97.4688 137.148 97.0273 136.773 96.7305C136.406 96.4336 135.945 96.2852 135.391 96.2852C134.836 96.2852 134.348 96.4141 133.926 96.6719C133.504 96.9297 133.121 97.3125 132.777 97.8203L130.305 96.3438C130.734 95.6562 131.422 95.0469 132.367 94.5156C133.312 93.9766 134.43 93.707 135.719 93.707C137.375 93.707 138.637 94.1328 139.504 94.9844C140.379 95.8359 140.816 97.1172 140.816 98.8281V106ZM137.336 101.125V100.668L134.945 100.902C134.391 100.965 133.984 101.121 133.727 101.371C133.477 101.613 133.352 101.945 133.352 102.367C133.352 102.742 133.492 103.055 133.773 103.305C134.055 103.547 134.41 103.668 134.84 103.668C135.574 103.668 136.172 103.43 136.633 102.953C137.102 102.469 137.336 101.859 137.336 101.125ZM151.551 105.145C151.184 105.48 150.73 105.758 150.191 105.977C149.652 106.188 149.066 106.293 148.434 106.293C147.059 106.293 146.039 105.977 145.375 105.344C144.711 104.711 144.379 103.766 144.379 102.508V96.7305H142.434V94H144.379V90.9414L148.07 90.2852V94H150.953V96.7305H148.07V102.484C148.07 102.852 148.148 103.129 148.305 103.316C148.469 103.504 148.695 103.598 148.984 103.598C149.156 103.598 149.328 103.57 149.5 103.516C149.68 103.453 149.867 103.332 150.062 103.152L151.551 105.145Z" fill="white"/>
<path d="M46.9609 102.707L45.1838 99.303C43.3161 100.278 42.5829 102.576 43.5406 104.453L46.9609 102.707ZM50.1484 101.043L53.5904 99.3405C53.1324 98.4146 52.3208 97.7123 51.3387 97.3921C50.3566 97.0719 49.287 97.1609 48.3713 97.6389L50.1484 101.043ZM51.5547 102.648L49.5922 105.949C49.5986 105.953 49.6051 105.957 49.6116 105.961L51.5547 102.648ZM55.375 102.684L57.7246 105.721C57.7364 105.712 57.7482 105.702 57.76 105.693L55.375 102.684ZM55.3164 99.9531L53.0038 103.019C53.0123 103.025 53.0209 103.031 53.0295 103.038L55.3164 99.9531ZM53.1953 99.1797L52.4666 102.95C52.4761 102.952 52.4855 102.954 52.495 102.955L53.1953 99.1797ZM49.0938 97.457L46.4955 100.285C46.5043 100.293 46.5132 100.301 46.5221 100.309L49.0938 97.457ZM59.4648 91.8555L61.2231 95.2693C62.1537 94.79 62.8484 93.9515 63.1462 92.9479C63.444 91.9443 63.3192 90.8626 62.8006 89.9533L59.4648 91.8555ZM56.3477 93.4609L53.0378 95.4079C54.0707 97.1637 56.2949 97.8075 58.1059 96.8748L56.3477 93.4609ZM55.2812 92.3125L53.2867 95.5939C53.3025 95.6035 53.3184 95.613 53.3343 95.6223L55.2812 92.3125ZM52.0352 92.4297L49.6292 89.4369C49.6195 89.4447 49.6099 89.4525 49.6003 89.4603L52.0352 92.4297ZM52.0352 94.832L49.6734 97.8599C49.6861 97.8698 49.6988 97.8796 49.7116 97.8893L52.0352 94.832ZM54.2266 95.5586L54.9062 91.7792C54.9005 91.7782 54.8948 91.7772 54.8892 91.7762L54.2266 95.5586ZM58.2578 97.3398L55.603 100.114C55.6111 100.122 55.6193 100.13 55.6275 100.138L58.2578 97.3398ZM58.0234 104.828L60.6116 107.665C60.6154 107.661 60.6191 107.658 60.6229 107.655L58.0234 104.828ZM49.5508 105.355L47.6976 108.719C47.7066 108.724 47.7157 108.729 47.7248 108.734L49.5508 105.355ZM48.738 106.111L51.9255 104.447L48.3713 97.6389L45.1838 99.303L48.738 106.111ZM46.7065 102.745C47.3263 103.999 48.2567 105.155 49.5922 105.949L53.5172 99.3478C53.5538 99.3696 53.5853 99.3924 53.6107 99.4138C53.6359 99.435 53.6514 99.4515 53.6581 99.4591C53.6714 99.4742 53.6425 99.4457 53.5904 99.3405L46.7065 102.745ZM49.6116 105.961C50.8011 106.658 52.115 107.004 53.4766 107.004V99.3241C53.4613 99.3241 53.4547 99.3231 53.4553 99.3232C53.4561 99.3233 53.4614 99.3241 53.4697 99.3263C53.478 99.3286 53.486 99.3313 53.4925 99.3341C53.499 99.3368 53.5009 99.3382 53.4978 99.3363L49.6116 105.961ZM53.4766 107.004C54.6867 107.004 56.3316 106.798 57.7246 105.721L53.0254 99.6463C53.3249 99.4146 53.5752 99.3397 53.6477 99.3213C53.7162 99.304 53.6752 99.3241 53.4766 99.3241V107.004ZM57.76 105.693C59.1739 104.573 59.8361 102.972 59.8361 101.336H52.1561C52.1561 101.151 52.1916 100.844 52.3534 100.493C52.5192 100.133 52.7576 99.8582 52.99 99.674L57.76 105.693ZM59.8361 101.336C59.8361 99.5892 59.0771 97.961 57.6034 96.8684L53.0295 103.038C52.8135 102.878 52.5625 102.616 52.38 102.245C52.1999 101.878 52.1561 101.547 52.1561 101.336H59.8361ZM57.629 96.8876C56.4728 96.0154 55.066 95.6212 53.8956 95.4041L52.495 102.955C52.8301 103.017 53.0334 103.078 53.1367 103.115C53.2488 103.156 53.1698 103.144 53.0038 103.019L57.629 96.8876ZM53.924 95.4095C52.3743 95.1099 51.7955 94.7227 51.6654 94.6053L46.5221 100.309C48.142 101.77 50.2976 102.531 52.4666 102.95L53.924 95.4095ZM51.692 94.6295C51.683 94.6213 51.685 94.6217 51.6903 94.6294C51.6956 94.6372 51.6948 94.6384 51.6896 94.6253C51.6798 94.6005 51.633 94.4678 51.633 94.1641H43.953C43.953 96.418 44.6888 98.6243 46.4955 100.285L51.692 94.6295ZM51.633 94.1641C51.633 93.5954 51.7749 93.4327 51.9627 93.2736L46.9982 87.4139C44.936 89.1611 43.953 91.5452 43.953 94.1641H51.633ZM51.9627 93.2736C52.2339 93.0438 52.7642 92.7541 53.9336 92.7541V85.0741C51.4155 85.0741 48.977 85.7374 46.9982 87.4139L51.9627 93.2736ZM53.9336 92.7541C54.6666 92.7541 55.1235 92.8987 55.4211 93.0586L59.0555 86.293C57.4624 85.4372 55.7162 85.0741 53.9336 85.0741V92.7541ZM55.4211 93.0586C55.7218 93.2202 55.9419 93.4293 56.1291 93.7577L62.8006 89.9533C61.9097 88.391 60.6454 87.147 59.0555 86.293L55.4211 93.0586ZM57.7066 88.4416L54.5894 90.0471L58.1059 96.8748L61.2231 95.2693L57.7066 88.4416ZM59.6575 91.514C59.1203 90.6007 58.3461 89.6603 57.2282 89.0027L53.3343 95.6223C53.0133 95.4335 52.95 95.2586 53.0378 95.4079L59.6575 91.514ZM57.2758 89.0311C56.0982 88.3153 54.8281 88.1092 53.7344 88.1092V95.7892C53.9062 95.7892 53.6675 95.8253 53.2867 95.5939L57.2758 89.0311ZM53.7344 88.1092C52.4972 88.1092 50.9522 88.3733 49.6292 89.4369L54.4411 95.4225C53.915 95.8454 53.5028 95.7892 53.7344 95.7892V88.1092ZM49.6003 89.4603C48.3642 90.4739 47.6092 91.9464 47.6092 93.6367H55.2892C55.2892 93.9264 55.2268 94.2847 55.0502 94.6486C54.8758 95.0079 54.6483 95.2529 54.47 95.399L49.6003 89.4603ZM47.6092 93.6367C47.6092 95.3211 48.3571 96.8331 49.6734 97.8599L54.3969 91.8042C54.6064 91.9676 54.8568 92.2332 55.0437 92.6145C55.231 92.9966 55.2892 93.3616 55.2892 93.6367H47.6092ZM49.7116 97.8893C50.9011 98.7933 52.4537 99.1465 53.564 99.341L54.8892 91.7762C54.4702 91.7028 54.2154 91.6349 54.0844 91.5914C54.0226 91.5709 54.0185 91.5657 54.0559 91.5837C54.0899 91.6001 54.2046 91.6577 54.3587 91.7748L49.7116 97.8893ZM53.5469 99.338C54.8985 99.581 55.4338 99.9523 55.603 100.114L60.9127 94.5654C59.2694 92.993 57.1172 92.1768 54.9062 91.7792L53.5469 99.338ZM55.6275 100.138C55.6696 100.177 55.6893 100.206 55.7102 100.26C55.7362 100.326 55.7889 100.501 55.7889 100.844H63.4689C63.4689 98.5115 62.711 96.256 60.8881 94.5422L55.6275 100.138ZM55.7889 100.844C55.7889 101.618 55.5823 101.856 55.424 102.002L60.6229 107.655C62.6052 105.831 63.4689 103.413 63.4689 100.844H55.7889ZM55.4352 101.991C55.2981 102.117 54.8254 102.453 53.4414 102.453V110.133C56.0262 110.133 58.6081 109.493 60.6116 107.665L55.4352 101.991ZM53.4414 102.453C52.5804 102.453 51.9207 102.271 51.3768 101.977L47.7248 108.734C49.4933 109.69 51.4275 110.133 53.4414 110.133V102.453ZM51.404 101.992C50.9057 101.718 50.5991 101.388 50.3813 100.961L43.5406 104.453C44.479 106.291 45.899 107.728 47.6976 108.719L51.404 101.992ZM73.3984 106V109.84C75.5192 109.84 77.2384 108.121 77.2384 106H73.3984ZM69.707 106H65.867C65.867 108.121 67.5863 109.84 69.707 109.84V106ZM69.2148 97.2812L66.0865 99.5082C66.0925 99.5166 66.0986 99.5251 66.1047 99.5334L69.2148 97.2812ZM65.5117 106V109.84C67.6325 109.84 69.3517 108.121 69.3517 106H65.5117ZM61.8086 106H57.9686C57.9686 108.121 59.6878 109.84 61.8086 109.84V106ZM61.8086 94V90.16C59.6878 90.16 57.9686 91.8792 57.9686 94H61.8086ZM65.5117 94H69.3517C69.3517 91.8792 67.6325 90.16 65.5117 90.16V94ZM65.5117 95.5234H61.6717C61.6717 97.6442 63.3909 99.3634 65.5117 99.3634V95.5234ZM65.5586 95.5234V99.3634C66.7987 99.3634 67.9625 98.7645 68.6833 97.7554L65.5586 95.5234ZM67.1875 94.2109L68.8263 97.6837C68.8369 97.6787 68.8475 97.6736 68.858 97.6685L67.1875 94.2109ZM73.3984 102.16H69.707V109.84H73.3984V102.16ZM73.547 106V99.1094H65.867V106H73.547ZM73.547 99.1094C73.547 97.827 73.2741 96.3398 72.325 95.0291L66.1047 99.5334C65.8118 99.129 65.867 98.8605 65.867 99.1094H73.547ZM72.3432 95.0543C71.1814 93.4223 69.4318 92.7498 67.75 92.7498V100.43C67.6197 100.43 67.3245 100.406 66.9635 100.235C66.5838 100.056 66.285 99.787 66.0865 99.5082L72.3432 95.0543ZM67.75 92.7498C66.0033 92.7498 64.4079 93.4636 63.2489 94.7944L69.0402 99.8384C68.9231 99.9729 68.7259 100.143 68.4455 100.27C68.1661 100.396 67.9146 100.43 67.75 100.43V92.7498ZM63.2489 94.7944C62.1246 96.0851 61.6717 97.6398 61.6717 99.1562H69.3517C69.3517 99.1498 69.3523 99.24 69.3011 99.3886C69.2473 99.5451 69.1574 99.7039 69.0402 99.8384L63.2489 94.7944ZM61.6717 99.1562V106H69.3517V99.1562H61.6717ZM65.5117 102.16H61.8086V109.84H65.5117V102.16ZM65.6486 106V94H57.9686V106H65.6486ZM61.8086 97.84H65.5117V90.16H61.8086V97.84ZM61.6717 94V95.5234H69.3517V94H61.6717ZM65.5117 99.3634H65.5586V91.6834H65.5117V99.3634ZM68.6833 97.7554C68.6682 97.7765 68.6582 97.7833 68.6681 97.7753C68.68 97.7657 68.7259 97.7311 68.8263 97.6837L65.5487 90.7382C64.3467 91.3054 63.2577 92.1381 62.4339 93.2915L68.6833 97.7554ZM68.858 97.6685C69.0843 97.5592 69.2156 97.547 69.2852 97.547V89.867C67.9485 89.867 66.6813 90.1908 65.517 90.7533L68.858 97.6685ZM69.2852 97.547C69.5668 97.547 69.6457 97.5913 69.603 97.5736C69.5808 97.5645 69.5414 97.5449 69.4955 97.5111C69.4495 97.4771 69.4145 97.4419 69.392 97.4147L75.3189 92.5306C73.7244 90.5957 71.4872 89.867 69.2852 89.867V97.547ZM69.392 97.4147C69.3285 97.3377 69.5584 97.541 69.5584 98.5469H77.2384C77.2384 96.4747 76.773 94.2951 75.3189 92.5306L69.392 97.4147ZM69.5584 98.5469V106H77.2384V98.5469H69.5584ZM86.0898 106V109.84C88.2106 109.84 89.9298 108.121 89.9298 106H86.0898ZM82.5859 106H78.7459C78.7459 108.121 80.4652 109.84 82.5859 109.84V106ZM82.5859 104.652H86.4259C86.4259 102.532 84.7067 100.812 82.5859 100.812V104.652ZM82.5391 104.652V100.812C81.3842 100.812 80.2906 101.332 79.5614 102.228L82.5391 104.652ZM80.9688 105.883L79.3797 102.387C79.374 102.39 79.3682 102.392 79.3625 102.395L80.9688 105.883ZM76.3281 105.355L73.8367 108.278C73.8427 108.283 73.8486 108.288 73.8546 108.293L76.3281 105.355ZM76.2812 100.07L79.0113 102.771C79.0162 102.766 79.0211 102.761 79.0259 102.756L76.2812 100.07ZM79.4219 98.7578L79.0148 94.9395L79.012 94.9397L79.4219 98.7578ZM82.6094 98.418L83.0165 102.236C84.9686 102.028 86.4494 100.381 86.4494 98.418H82.6094ZM82.0469 96.7305L79.6326 99.7166C79.6428 99.7248 79.6531 99.733 79.6634 99.7412L82.0469 96.7305ZM78.0508 97.8203L76.082 101.117C77.8302 102.161 80.0893 101.659 81.2307 99.9729L78.0508 97.8203ZM75.5781 96.3438L72.3218 94.3086C71.7749 95.1836 71.6032 96.242 71.8454 97.2451C72.0876 98.2482 72.7234 99.1116 73.6094 99.6407L75.5781 96.3438ZM77.6406 94.5156L79.5219 97.8632C79.5289 97.8593 79.5359 97.8553 79.5428 97.8514L77.6406 94.5156ZM84.7773 94.9844L82.0868 97.7242C82.0909 97.7283 82.095 97.7323 82.0992 97.7363L84.7773 94.9844ZM82.6094 100.668H86.4494C86.4494 99.5844 85.9915 98.5512 85.1888 97.8233C84.3861 97.0954 83.3131 96.7406 82.2347 96.8463L82.6094 100.668ZM80.2188 100.902L79.8441 97.0807C79.8256 97.0825 79.8072 97.0844 79.7888 97.0865L80.2188 100.902ZM79 101.371L81.6719 104.129L81.6732 104.128L79 101.371ZM79.0469 103.305L76.4957 106.175C76.5108 106.188 76.5259 106.201 76.5412 106.215L79.0469 103.305ZM81.9062 102.953L79.1468 100.283L79.1461 100.283L81.9062 102.953ZM86.0898 102.16H82.5859V109.84H86.0898V102.16ZM86.4259 106V104.652H78.7459V106H86.4259ZM82.5859 100.812H82.5391V108.492H82.5859V100.812ZM79.5614 102.228C79.4644 102.347 79.406 102.375 79.3797 102.387L82.5578 109.379C83.7346 108.844 84.7231 108.052 85.5167 107.077L79.5614 102.228ZM79.3625 102.395C79.3365 102.407 79.2276 102.453 78.9648 102.453V110.133C80.1865 110.133 81.4135 109.906 82.575 109.371L79.3625 102.395ZM78.9648 102.453C78.9083 102.453 78.8724 102.449 78.8537 102.446C78.8355 102.443 78.8289 102.44 78.8304 102.44C78.832 102.441 78.8336 102.442 78.8328 102.441C78.8317 102.441 78.8214 102.435 78.8016 102.418L73.8546 108.293C75.3235 109.53 77.09 110.133 78.9648 110.133V102.453ZM78.8196 102.433C78.8449 102.455 78.8835 102.493 78.9246 102.548C78.966 102.604 78.9994 102.663 79.0235 102.72C79.0736 102.837 79.0548 102.871 79.0548 102.754H71.3748C71.3748 104.817 72.1222 106.816 73.8367 108.278L78.8196 102.433ZM79.0548 102.754C79.0548 102.699 79.0593 102.672 79.0602 102.668C79.0608 102.664 79.0588 102.676 79.05 102.698C79.0458 102.709 79.0408 102.72 79.035 102.731C79.0292 102.742 79.0234 102.752 79.0181 102.76C79.0069 102.777 79.002 102.78 79.0113 102.771L73.5512 97.3699C72.0842 98.853 71.3748 100.738 71.3748 102.754H79.0548ZM79.0259 102.756C78.918 102.866 79.0102 102.664 79.8317 102.576L79.012 94.9397C77.0679 95.1484 75.0664 95.8213 73.5366 97.3847L79.0259 102.756ZM79.829 102.576L83.0165 102.236L82.2023 94.5996L79.0148 94.9395L79.829 102.576ZM86.4494 98.418V98.0547H78.7694V98.418H86.4494ZM86.4494 98.0547C86.4494 96.5874 85.9323 94.9088 84.4304 93.7197L79.6634 99.7412C79.3456 99.4896 79.0912 99.1546 78.9344 98.7855C78.787 98.4385 78.7694 98.1662 78.7694 98.0547H86.4494ZM84.4612 93.7444C83.2955 92.8019 81.9371 92.4452 80.6641 92.4452V100.125C80.5989 100.125 80.4493 100.116 80.2487 100.052C80.0408 99.9847 79.8261 99.8731 79.6326 99.7166L84.4612 93.7444ZM80.6641 92.4452C79.4912 92.4452 78.2929 92.7255 77.1969 93.3953L81.2016 99.9485C81.0879 100.018 80.9702 100.066 80.862 100.095C80.7566 100.122 80.6854 100.125 80.6641 100.125V92.4452ZM77.1969 93.3953C76.2082 93.9994 75.4503 94.8117 74.8708 95.6677L81.2307 99.9729C81.2836 99.8948 81.3129 99.8657 81.311 99.8676C81.3079 99.8707 81.2728 99.9049 81.2016 99.9485L77.1969 93.3953ZM80.0195 94.5234L77.5469 93.0468L73.6094 99.6407L76.082 101.117L80.0195 94.5234ZM78.8344 98.3789C78.8272 98.3905 78.9556 98.1815 79.5219 97.8632L75.7593 91.168C74.435 91.9123 73.1884 92.922 72.3218 94.3086L78.8344 98.3789ZM79.5428 97.8514C79.81 97.699 80.2466 97.547 80.9922 97.547V89.867C79.1596 89.867 77.3619 90.2541 75.7384 91.1799L79.5428 97.8514ZM80.9922 97.547C81.5004 97.547 81.8005 97.6134 81.9528 97.6648C82.0879 97.7103 82.1051 97.7421 82.0868 97.7242L87.4678 92.2445C85.6543 90.4637 83.2816 89.867 80.9922 89.867V97.547ZM82.0992 97.7363C82.0582 97.6964 82.0827 97.6929 82.1277 97.8249C82.1795 97.9765 82.2498 98.2886 82.2498 98.8281H89.9298C89.9298 96.5045 89.3302 94.057 87.4555 92.2325L82.0992 97.7363ZM82.2498 98.8281V106H89.9298V98.8281H82.2498ZM86.4494 101.125V100.668H78.7694V101.125H86.4494ZM82.2347 96.8463L79.8441 97.0807L80.5934 104.724L82.984 104.49L82.2347 96.8463ZM79.7888 97.0865C78.8299 97.1945 77.4504 97.5248 76.3268 98.6144L81.6732 104.128C81.3608 104.431 81.0563 104.581 80.8765 104.65C80.7029 104.717 80.6097 104.723 80.6487 104.718L79.7888 97.0865ZM76.3281 98.6131C75.1772 99.728 74.785 101.142 74.785 102.367H82.465C82.465 102.533 82.4404 102.815 82.3125 103.155C82.1792 103.509 81.9622 103.848 81.6719 104.129L76.3281 98.6131ZM74.785 102.367C74.785 103.843 75.3979 105.199 76.4957 106.175L81.598 100.435C81.8219 100.634 82.0595 100.923 82.2322 101.307C82.4052 101.691 82.465 102.063 82.465 102.367H74.785ZM76.5412 106.215C77.6275 107.15 78.9175 107.508 80.1133 107.508V99.828C80.2599 99.828 80.4888 99.849 80.7627 99.9423C81.0443 100.038 81.3165 100.192 81.5526 100.395L76.5412 106.215ZM80.1133 107.508C81.7648 107.508 83.4004 106.932 84.6664 105.623L79.1461 100.283C79.2814 100.144 79.469 100.01 79.6902 99.9223C79.9032 99.8374 80.0617 99.828 80.1133 99.828V107.508ZM84.6657 105.624C85.8926 104.356 86.4494 102.758 86.4494 101.125H78.7694C78.7694 101.079 78.7778 100.941 78.8495 100.754C78.9237 100.562 79.0342 100.399 79.1468 100.283L84.6657 105.624ZM92.5352 104.98L95.4251 102.452C94.6959 101.618 93.6425 101.14 92.5352 101.14V104.98ZM92.4883 104.98V101.14C90.3675 101.14 88.6483 102.86 88.6483 104.98H92.4883ZM92.4883 111.52V115.36C94.6091 115.36 96.3283 113.64 96.3283 111.52H92.4883ZM88.7852 111.52H84.9452C84.9452 113.64 86.6644 115.36 88.7852 115.36V111.52ZM88.7852 94V90.16C86.6644 90.16 84.9452 91.8792 84.9452 94H88.7852ZM92.4883 94H96.3283C96.3283 91.8792 94.6091 90.16 92.4883 90.16V94ZM92.4883 95.5586H88.6483C88.6483 97.6794 90.3675 99.3986 92.4883 99.3986V95.5586ZM92.5352 95.5586V99.3986C93.7466 99.3986 94.8869 98.827 95.6118 97.8564L92.5352 95.5586ZM94.2344 94.1758L95.8203 97.673C95.8315 97.6679 95.8427 97.6628 95.8538 97.6576L94.2344 94.1758ZM96.918 102.438L93.8729 100.098C93.8669 100.106 93.8609 100.114 93.855 100.122L96.918 102.438ZM97 97.375L94.032 99.8115C94.0452 99.8275 94.0585 99.8435 94.072 99.8594L97 97.375ZM93.2031 97.3984L90.4482 94.7234C90.4415 94.7303 90.4348 94.7372 90.4282 94.7441L93.2031 97.3984ZM92.5352 101.14H92.4883V108.82H92.5352V101.14ZM88.6483 104.98V111.52H96.3283V104.98H88.6483ZM92.4883 107.68H88.7852V115.36H92.4883V107.68ZM92.6252 111.52V94H84.9452V111.52H92.6252ZM88.7852 97.84H92.4883V90.16H88.7852V97.84ZM88.6483 94V95.5586H96.3283V94H88.6483ZM92.4883 99.3986H92.5352V91.7186H92.4883V99.3986ZM95.6118 97.8564C95.7028 97.7346 95.7651 97.698 95.8203 97.673L92.6484 90.6786C91.3599 91.2629 90.2894 92.1482 89.4585 93.2608L95.6118 97.8564ZM95.8538 97.6576C95.9616 97.6074 96.1495 97.547 96.4844 97.547V89.867C95.163 89.867 93.8509 90.1191 92.6149 90.694L95.8538 97.6576ZM96.4844 97.547C96.8395 97.547 97.0087 97.6053 97.0645 97.6291C97.106 97.6468 97.1433 97.6678 97.2034 97.7391L103.078 92.7921C101.359 90.7512 98.9897 89.867 96.4844 89.867V97.547ZM97.2034 97.7391C97.303 97.8574 97.6131 98.3228 97.6131 99.6602H105.293C105.293 97.2163 104.728 94.752 103.078 92.7921L97.2034 97.7391ZM97.6131 99.6602C97.6131 101.003 97.2828 101.657 96.9875 102.009L102.872 106.944C104.608 104.874 105.293 102.317 105.293 99.6602H97.6131ZM96.9875 102.009C96.7289 102.317 96.4977 102.453 95.957 102.453V110.133C98.6819 110.133 101.099 109.058 102.872 106.944L96.9875 102.009ZM95.957 102.453C95.6162 102.453 95.4243 102.402 95.3313 102.367L92.6452 109.562C93.7241 109.965 94.8448 110.133 95.957 110.133V102.453ZM95.3313 102.367C95.3046 102.357 95.312 102.357 95.3392 102.375C95.3675 102.395 95.3985 102.421 95.4251 102.452L89.6453 107.509C90.4787 108.462 91.5096 109.138 92.6452 109.562L95.3313 102.367ZM88.5897 99.543V100.785H96.2697V99.543H88.5897ZM88.5897 100.785C88.5897 102.415 89.1247 104.061 90.4073 105.365L95.8818 99.9787C96.0135 100.113 96.1275 100.287 96.1993 100.476C96.2676 100.657 96.2697 100.776 96.2697 100.785H88.5897ZM90.4073 105.365C91.6593 106.638 93.2725 107.238 94.9492 107.238V99.5584C95.0184 99.5584 95.1805 99.5714 95.3872 99.6546C95.5993 99.74 95.7681 99.8632 95.8818 99.9787L90.4073 105.365ZM94.9492 107.238C96.9368 107.238 98.7447 106.388 99.981 104.753L93.855 100.122C93.9398 100.009 94.1114 99.8375 94.3781 99.7073C94.641 99.579 94.8582 99.5584 94.9492 99.5584V107.238ZM99.963 104.777C101.16 103.219 101.496 101.358 101.496 99.707H93.8163C93.8163 100.039 93.7806 100.214 93.7648 100.272C93.7512 100.322 93.7664 100.237 93.8729 100.098L99.963 104.777ZM101.496 99.707C101.496 98.2248 101.199 96.3881 99.928 94.8906L94.072 99.8594C93.8713 99.6229 93.8072 99.4256 93.7958 99.3849C93.7904 99.3658 93.796 99.38 93.8028 99.4359C93.8095 99.4918 93.8163 99.5805 93.8163 99.707H101.496ZM99.968 94.9385C98.6692 93.3563 96.8626 92.7498 95.1484 92.7498V100.43C95.1368 100.43 94.9663 100.428 94.7157 100.321C94.447 100.207 94.2066 100.024 94.032 99.8115L99.968 94.9385ZM95.1484 92.7498C93.3712 92.7498 91.7183 93.4154 90.4482 94.7234L95.958 100.074C95.8821 100.152 95.7465 100.259 95.5559 100.338C95.3677 100.416 95.2161 100.43 95.1484 100.43V92.7498ZM90.4282 94.7441C89.0998 96.1329 88.5897 97.8676 88.5897 99.543H96.2697C96.2697 99.467 96.2805 99.5162 96.2353 99.6416C96.1859 99.7785 96.0976 99.9277 95.9781 100.053L90.4282 94.7441ZM114.414 103.223L117.8 105.034C118.296 104.106 118.39 103.016 118.06 102.017C117.73 101.018 117.004 100.199 116.052 99.7497L114.414 103.223ZM112.211 105.52L114.085 108.871L114.095 108.866L112.211 105.52ZM104.523 104.641L101.77 107.317C101.776 107.323 101.782 107.33 101.789 107.336L104.523 104.641ZM112.48 94.5508L110.463 97.8182C110.47 97.8225 110.477 97.8267 110.484 97.8309L112.48 94.5508ZM114.297 96.9531L115.633 100.553C117.527 99.8503 118.553 97.7995 117.979 95.8622L114.297 96.9531ZM111.297 98.0664L107.81 99.6756C108.651 101.497 110.752 102.364 112.633 101.667L111.297 98.0664ZM110.441 96.9531L108.161 100.043C108.188 100.063 108.216 100.083 108.244 100.102L110.441 96.9531ZM107.395 97.4336L104.505 94.9049L104.502 94.9078L107.395 97.4336ZM110.477 102.965L112.493 106.233C112.499 106.229 112.506 106.225 112.512 106.221L110.477 102.965ZM111.508 101.852L113.146 98.3786C111.377 97.5439 109.263 98.1728 108.237 99.839L111.508 101.852ZM111.028 101.412C110.808 101.823 110.574 102.034 110.327 102.173L114.095 108.866C115.707 107.958 116.942 106.638 117.8 105.034L111.028 101.412ZM110.336 102.168C110.059 102.323 109.662 102.453 109.035 102.453V110.133C110.799 110.133 112.519 109.747 114.085 108.871L110.336 102.168ZM109.035 102.453C107.877 102.453 107.456 102.145 107.258 101.945L101.789 107.336C103.763 109.339 106.35 110.133 109.035 110.133V102.453ZM107.277 101.964C107.005 101.684 106.746 101.251 106.746 100.293H99.0663C99.0663 102.913 99.8857 105.378 101.77 107.317L107.277 101.964ZM106.746 100.293C106.746 99.0451 107.084 98.5157 107.387 98.2186L102.011 92.7345C99.9234 94.7812 99.0663 97.4627 99.0663 100.293H106.746ZM107.387 98.2186C107.761 97.8527 108.298 97.5587 109.363 97.5587V89.8788C106.6 89.8788 104.028 90.7566 102.011 92.7345L107.387 98.2186ZM109.363 97.5587C109.916 97.5587 110.24 97.6806 110.463 97.8182L114.498 91.2833C112.924 90.3116 111.17 89.8788 109.363 89.8788V97.5587ZM110.484 97.8309C110.516 97.8502 110.531 97.8634 110.537 97.8683C110.542 97.873 110.544 97.8753 110.545 97.8775C110.547 97.8797 110.554 97.8897 110.566 97.9125C110.577 97.9359 110.595 97.9777 110.615 98.044L117.979 95.8622C117.409 93.94 116.229 92.3373 114.477 91.2707L110.484 97.8309ZM112.961 93.353L109.961 94.4663L112.633 101.667L115.633 100.553L112.961 93.353ZM114.783 96.4572C114.364 95.5477 113.701 94.5452 112.639 93.8038L108.244 100.102C107.853 99.8298 107.761 99.5695 107.81 99.6756L114.783 96.4572ZM112.722 93.8636C111.616 93.0475 110.369 92.7498 109.223 92.7498V100.43C109.145 100.43 108.993 100.42 108.794 100.361C108.588 100.299 108.368 100.196 108.161 100.043L112.722 93.8636ZM109.223 92.7498C107.353 92.7498 105.702 93.5365 104.505 94.9049L110.284 99.9623C110.216 100.04 110.068 100.178 109.83 100.287C109.589 100.398 109.368 100.43 109.223 100.43V92.7498ZM104.502 94.9078C103.129 96.4808 102.828 98.4658 102.828 100.047H110.508C110.508 99.8788 110.517 99.7531 110.527 99.6642C110.538 99.5751 110.549 99.5341 110.549 99.5315C110.551 99.5257 110.498 99.7172 110.287 99.9594L104.502 94.9078ZM102.828 100.047C102.828 101.567 103.117 103.513 104.477 105.057L110.241 99.9818C110.469 100.241 110.533 100.454 110.539 100.475C110.542 100.485 110.533 100.458 110.525 100.383C110.516 100.309 110.508 100.199 110.508 100.047H102.828ZM104.477 105.057C105.683 106.427 107.328 107.145 109.117 107.145V99.4647C109.243 99.4647 109.46 99.4903 109.711 99.6023C109.963 99.715 110.14 99.8664 110.241 99.9818L104.477 105.057ZM109.117 107.145C110.192 107.145 111.385 106.916 112.493 106.233L108.46 99.6969C108.834 99.4665 109.121 99.4647 109.117 99.4647V107.145ZM112.512 106.221C113.532 105.583 114.258 104.709 114.778 103.864L108.237 99.839C108.19 99.9163 108.173 99.9285 108.199 99.9012C108.225 99.8726 108.303 99.7951 108.441 99.7085L112.512 106.221ZM109.869 105.324L112.776 106.696L116.052 99.7497L113.146 98.3786L109.869 105.324ZM128.125 106V109.84C130.246 109.84 131.965 108.121 131.965 106H128.125ZM124.434 106H120.594C120.594 108.121 122.313 109.84 124.434 109.84V106ZM123.93 97.2344L120.878 99.5649C120.887 99.5765 120.896 99.588 120.905 99.5995L123.93 97.2344ZM120.309 106V109.84C122.429 109.84 124.149 108.121 124.149 106H120.309ZM116.605 106H112.765C112.765 108.121 114.485 109.84 116.605 109.84V106ZM116.605 88.2344V84.3944C114.485 84.3944 112.765 86.1136 112.765 88.2344H116.605ZM120.309 88.2344H124.149C124.149 86.1136 122.429 84.3944 120.309 84.3944V88.2344ZM120.309 95.5H116.469C116.469 97.6208 118.188 99.34 120.309 99.34V95.5ZM120.355 95.5V99.34C121.58 99.34 122.732 98.7556 123.455 97.7668L120.355 95.5ZM128.125 102.16H124.434V109.84H128.125V102.16ZM128.274 106V99.0859H120.594V106H128.274ZM128.274 99.0859C128.274 97.8158 128.018 96.2289 126.955 94.8692L120.905 99.5995C120.708 99.3485 120.63 99.1283 120.602 99.0279C120.577 98.9361 120.594 98.9408 120.594 99.0859H128.274ZM126.982 94.9038C125.817 93.3794 124.133 92.7498 122.512 92.7498V100.43C122.374 100.43 122.088 100.405 121.74 100.247C121.376 100.081 121.081 99.8316 120.878 99.5649L126.982 94.9038ZM122.512 92.7498C120.77 92.7498 119.143 93.4571 117.976 94.8488L123.86 99.784C123.727 99.9433 123.511 100.13 123.214 100.266C122.921 100.399 122.665 100.43 122.512 100.43V92.7498ZM117.976 94.8488C116.892 96.1413 116.469 97.6765 116.469 99.1562H124.149C124.149 99.1355 124.151 99.2111 124.106 99.347C124.059 99.4908 123.976 99.6461 123.86 99.784L117.976 94.8488ZM116.469 99.1562V106H124.149V99.1562H116.469ZM120.309 102.16H116.605V109.84H120.309V102.16ZM120.445 106V88.2344H112.765V106H120.445ZM116.605 92.0744H120.309V84.3944H116.605V92.0744ZM116.469 88.2344V95.5H124.149V88.2344H116.469ZM120.309 99.34H120.355V91.66H120.309V99.34ZM123.455 97.7668C123.433 97.7975 123.421 97.8033 123.44 97.7879C123.462 97.7709 123.522 97.7269 123.643 97.6685L120.302 90.7533C119.148 91.311 118.075 92.1131 117.256 93.2332L123.455 97.7668ZM123.643 97.6685C123.882 97.553 124.006 97.547 124.047 97.547V89.867C122.713 89.867 121.454 90.197 120.302 90.7533L123.643 97.6685ZM124.047 97.547C124.287 97.547 124.357 97.5845 124.324 97.5713C124.309 97.5649 124.281 97.5512 124.248 97.5285C124.216 97.5058 124.194 97.4842 124.183 97.4721L129.911 92.356C128.326 90.5822 126.197 89.867 124.047 89.867V97.547ZM124.183 97.4721C124.108 97.3882 124.13 97.3666 124.175 97.5186C124.224 97.6837 124.285 98.004 124.285 98.5352H131.965C131.965 96.4341 131.505 94.1411 129.911 92.356L124.183 97.4721ZM124.285 98.5352V106H131.965V98.5352H124.285ZM140.816 106V109.84C142.937 109.84 144.656 108.121 144.656 106H140.816ZM137.312 106H133.473C133.473 108.121 135.192 109.84 137.312 109.84V106ZM137.312 104.652H141.152C141.152 102.532 139.433 100.812 137.312 100.812V104.652ZM137.266 104.652V100.812C136.111 100.812 135.017 101.332 134.288 102.228L137.266 104.652ZM135.695 105.883L134.106 102.387C134.101 102.39 134.095 102.392 134.089 102.395L135.695 105.883ZM131.055 105.355L128.563 108.278C128.569 108.283 128.575 108.288 128.581 108.293L131.055 105.355ZM131.008 100.07L133.738 102.771C133.743 102.766 133.748 102.761 133.752 102.756L131.008 100.07ZM134.148 98.7578L133.741 94.9395L133.739 94.9397L134.148 98.7578ZM137.336 98.418L137.743 102.236C139.695 102.028 141.176 100.381 141.176 98.418H137.336ZM136.773 96.7305L134.359 99.7166C134.369 99.7248 134.38 99.733 134.39 99.7412L136.773 96.7305ZM132.777 97.8203L130.809 101.117C132.557 102.161 134.816 101.659 135.957 99.9729L132.777 97.8203ZM130.305 96.3438L127.048 94.3086C126.501 95.1836 126.33 96.242 126.572 97.2451C126.814 98.2482 127.45 99.1116 128.336 99.6407L130.305 96.3438ZM132.367 94.5156L134.248 97.8632C134.255 97.8593 134.262 97.8553 134.269 97.8514L132.367 94.5156ZM139.504 94.9844L136.813 97.7242C136.818 97.7283 136.822 97.7323 136.826 97.7363L139.504 94.9844ZM137.336 100.668H141.176C141.176 99.5844 140.718 98.5512 139.915 97.8233C139.113 97.0954 138.04 96.7406 136.961 96.8463L137.336 100.668ZM134.945 100.902L134.571 97.0807C134.552 97.0825 134.534 97.0844 134.515 97.0865L134.945 100.902ZM133.727 101.371L136.398 104.129L136.4 104.128L133.727 101.371ZM133.773 103.305L131.222 106.175C131.237 106.188 131.252 106.201 131.268 106.215L133.773 103.305ZM136.633 102.953L133.873 100.283L133.873 100.283L136.633 102.953ZM140.816 102.16H137.312V109.84H140.816V102.16ZM141.152 106V104.652H133.473V106H141.152ZM137.312 100.812H137.266V108.492H137.312V100.812ZM134.288 102.228C134.191 102.347 134.133 102.375 134.106 102.387L137.284 109.379C138.461 108.844 139.45 108.052 140.243 107.077L134.288 102.228ZM134.089 102.395C134.063 102.407 133.954 102.453 133.691 102.453V110.133C134.913 110.133 136.14 109.906 137.302 109.371L134.089 102.395ZM133.691 102.453C133.635 102.453 133.599 102.449 133.58 102.446C133.562 102.443 133.556 102.44 133.557 102.44C133.559 102.441 133.56 102.442 133.559 102.441C133.558 102.441 133.548 102.435 133.528 102.418L128.581 108.293C130.05 109.53 131.817 110.133 133.691 110.133V102.453ZM133.546 102.433C133.571 102.455 133.61 102.493 133.651 102.548C133.693 102.604 133.726 102.663 133.75 102.72C133.8 102.837 133.781 102.871 133.781 102.754H126.101C126.101 104.817 126.849 106.816 128.563 108.278L133.546 102.433ZM133.781 102.754C133.781 102.699 133.786 102.672 133.787 102.668C133.787 102.664 133.785 102.676 133.777 102.698C133.772 102.709 133.767 102.72 133.762 102.731C133.756 102.742 133.75 102.752 133.745 102.76C133.733 102.777 133.729 102.78 133.738 102.771L128.278 97.3699C126.811 98.853 126.101 100.738 126.101 102.754H133.781ZM133.752 102.756C133.645 102.866 133.737 102.664 134.558 102.576L133.739 94.9397C131.794 95.1484 129.793 95.8213 128.263 97.3847L133.752 102.756ZM134.556 102.576L137.743 102.236L136.929 94.5996L133.741 94.9395L134.556 102.576ZM141.176 98.418V98.0547H133.496V98.418H141.176ZM141.176 98.0547C141.176 96.5874 140.659 94.9088 139.157 93.7197L134.39 99.7412C134.072 99.4896 133.818 99.1546 133.661 98.7855C133.514 98.4385 133.496 98.1662 133.496 98.0547H141.176ZM139.188 93.7444C138.022 92.8019 136.664 92.4452 135.391 92.4452V100.125C135.325 100.125 135.176 100.116 134.975 100.052C134.767 99.9847 134.553 99.8731 134.359 99.7166L139.188 93.7444ZM135.391 92.4452C134.218 92.4452 133.019 92.7255 131.923 93.3953L135.928 99.9485C135.815 100.018 135.697 100.066 135.589 100.095C135.483 100.122 135.412 100.125 135.391 100.125V92.4452ZM131.923 93.3953C130.935 93.9994 130.177 94.8117 129.597 95.6677L135.957 99.9729C136.01 99.8948 136.039 99.8657 136.038 99.8676C136.034 99.8707 135.999 99.9049 135.928 99.9485L131.923 93.3953ZM134.746 94.5234L132.273 93.0468L128.336 99.6407L130.809 101.117L134.746 94.5234ZM133.561 98.3789C133.554 98.3905 133.682 98.1815 134.248 97.8632L130.486 91.168C129.162 91.9123 127.915 92.922 127.048 94.3086L133.561 98.3789ZM134.269 97.8514C134.537 97.699 134.973 97.547 135.719 97.547V89.867C133.886 89.867 132.088 90.2541 130.465 91.1799L134.269 97.8514ZM135.719 97.547C136.227 97.547 136.527 97.6134 136.679 97.6648C136.814 97.7103 136.832 97.7421 136.813 97.7242L142.194 92.2445C140.381 90.4637 138.008 89.867 135.719 89.867V97.547ZM136.826 97.7363C136.785 97.6964 136.809 97.6929 136.854 97.8249C136.906 97.9765 136.976 98.2886 136.976 98.8281H144.656C144.656 96.5045 144.057 94.057 142.182 92.2325L136.826 97.7363ZM136.976 98.8281V106H144.656V98.8281H136.976ZM141.176 101.125V100.668H133.496V101.125H141.176ZM136.961 96.8463L134.571 97.0807L135.32 104.724L137.711 104.49L136.961 96.8463ZM134.515 97.0865C133.556 97.1945 132.177 97.5248 131.053 98.6144L136.4 104.128C136.087 104.431 135.783 104.581 135.603 104.65C135.43 104.717 135.336 104.723 135.375 104.718L134.515 97.0865ZM131.055 98.6131C129.904 99.728 129.512 101.142 129.512 102.367H137.192C137.192 102.533 137.167 102.815 137.039 103.155C136.906 103.509 136.689 103.848 136.398 104.129L131.055 98.6131ZM129.512 102.367C129.512 103.843 130.124 105.199 131.222 106.175L136.325 100.435C136.548 100.634 136.786 100.923 136.959 101.307C137.132 101.691 137.192 102.063 137.192 102.367H129.512ZM131.268 106.215C132.354 107.15 133.644 107.508 134.84 107.508V99.828C134.986 99.828 135.215 99.849 135.489 99.9423C135.771 100.038 136.043 100.192 136.279 100.395L131.268 106.215ZM134.84 107.508C136.491 107.508 138.127 106.932 139.393 105.623L133.873 100.283C134.008 100.144 134.196 100.01 134.417 99.9223C134.63 99.8374 134.788 99.828 134.84 99.828V107.508ZM139.392 105.624C140.619 104.356 141.176 102.758 141.176 101.125H133.496C133.496 101.079 133.504 100.941 133.576 100.754C133.65 100.562 133.761 100.399 133.873 100.283L139.392 105.624ZM151.551 105.145L154.143 107.978C155.599 106.646 155.808 104.427 154.627 102.846L151.551 105.145ZM150.191 105.977L151.591 109.553C151.606 109.547 151.62 109.541 151.635 109.535L150.191 105.977ZM144.379 96.7305H148.219C148.219 94.6097 146.5 92.8905 144.379 92.8905V96.7305ZM142.434 96.7305H138.594C138.594 98.8512 140.313 100.57 142.434 100.57V96.7305ZM142.434 94V90.16C140.313 90.16 138.594 91.8792 138.594 94H142.434ZM144.379 94V97.84C146.5 97.84 148.219 96.1208 148.219 94H144.379ZM144.379 90.9414L143.707 87.1607C141.874 87.4865 140.539 89.0799 140.539 90.9414H144.379ZM148.07 90.2852H151.91C151.91 89.1491 151.407 88.0714 150.537 87.3418C149.666 86.6122 148.517 86.3056 147.398 86.5044L148.07 90.2852ZM148.07 94H144.23C144.23 96.1208 145.95 97.84 148.07 97.84V94ZM150.953 94H154.793C154.793 91.8792 153.074 90.16 150.953 90.16V94ZM150.953 96.7305V100.57C153.074 100.57 154.793 98.8512 154.793 96.7305H150.953ZM148.07 96.7305V92.8905C145.95 92.8905 144.23 94.6097 144.23 96.7305H148.07ZM148.305 103.316L145.355 105.775C145.374 105.798 145.394 105.822 145.415 105.845L148.305 103.316ZM149.5 103.516L150.664 107.175C150.697 107.165 150.729 107.154 150.762 107.142L149.5 103.516ZM150.062 103.152L153.139 100.854C152.489 99.9837 151.5 99.4294 150.418 99.3288C149.336 99.2282 148.262 99.5907 147.463 100.326L150.062 103.152ZM148.959 102.311C148.98 102.292 148.934 102.343 148.748 102.418L151.635 109.535C152.527 109.173 153.387 108.669 154.143 107.978L148.959 102.311ZM148.792 102.401C148.739 102.421 148.632 102.453 148.434 102.453V110.133C149.5 110.133 150.566 109.954 151.591 109.553L148.792 102.401ZM148.434 102.453C148.027 102.453 147.829 102.405 147.776 102.388C147.739 102.377 147.863 102.41 148.024 102.564L142.726 108.124C144.39 109.71 146.555 110.133 148.434 110.133V102.453ZM148.024 102.564C148.091 102.627 148.145 102.696 148.186 102.761C148.227 102.825 148.245 102.872 148.251 102.888C148.26 102.913 148.219 102.809 148.219 102.508H140.539C140.539 104.414 141.053 106.529 142.726 108.124L148.024 102.564ZM148.219 102.508V96.7305H140.539V102.508H148.219ZM144.379 92.8905H142.434V100.57H144.379V92.8905ZM146.274 96.7305V94H138.594V96.7305H146.274ZM142.434 97.84H144.379V90.16H142.434V97.84ZM148.219 94V90.9414H140.539V94H148.219ZM145.051 94.7221L148.742 94.0659L147.398 86.5044L143.707 87.1607L145.051 94.7221ZM144.23 90.2852V94H151.91V90.2852H144.23ZM148.07 97.84H150.953V90.16H148.07V97.84ZM147.113 94V96.7305H154.793V94H147.113ZM150.953 92.8905H148.07V100.57H150.953V92.8905ZM144.23 96.7305V102.484H151.91V96.7305H144.23ZM144.23 102.484C144.23 103.314 144.395 104.623 145.355 105.775L151.255 100.858C151.902 101.634 151.91 102.389 151.91 102.484H144.23ZM145.415 105.845C146.428 107.003 147.784 107.438 148.984 107.438V99.7577C149.255 99.7577 149.638 99.8021 150.066 99.9791C150.508 100.162 150.894 100.444 151.195 100.788L145.415 105.845ZM148.984 107.438C149.57 107.438 150.135 107.343 150.664 107.175L148.336 99.8564C148.522 99.7972 148.742 99.7577 148.984 99.7577V107.438ZM150.762 107.142C151.592 106.854 152.223 106.383 152.662 105.978L147.463 100.326C147.512 100.281 147.767 100.053 148.238 99.8888L150.762 107.142ZM146.986 105.451L148.474 107.443L154.627 102.846L153.139 100.854L146.986 105.451Z" fill="black" mask="url(#path-3-outside-1_3913_112)"/>
</g>
<defs>
<filter id="filter0_dd_3913_112" x="60.7769" y="2" width="77.7256" height="83.6519" filterUnits="userSpaceOnUse" color-interpolation-filters="sRGB">
<feFlood flood-opacity="0" result="BackgroundImageFix"/>
<feColorMatrix in="SourceAlpha" type="matrix" values="0 0 0 0 0 0 0 0 0 0 0 0 0 0 0 0 0 0 127 0" result="hardAlpha"/>
<feOffset dy="4"/>
<feGaussianBlur stdDeviation="2.75"/>
<feComposite in2="hardAlpha" operator="out"/>
<feColorMatrix type="matrix" values="0 0 0 0 0 0 0 0 0 0 0 0 0 0 0 0 0 0 0.25 0"/>
<feBlend mode="normal" in2="BackgroundImageFix" result="effect1_dropShadow_3913_112"/>
<feColorMatrix in="SourceAlpha" type="matrix" values="0 0 0 0 0 0 0 0 0 0 0 0 0 0 0 0 0 0 127 0" result="hardAlpha"/>
<feOffset dy="-7"/>
<feGaussianBlur stdDeviation="2"/>
<feComposite in2="hardAlpha" operator="out"/>
<feColorMatrix type="matrix" values="0 0 0 0 0.961028 0 0 0 0 0.961028 0 0 0 0 0.477774 0 0 0 1 0"/>
<feBlend mode="normal" in2="effect1_dropShadow_3913_112" result="effect2_dropShadow_3913_112"/>
<feBlend mode="normal" in="SourceGraphic" in2="effect2_dropShadow_3913_112" result="shape"/>
</filter>
<filter id="filter1_dd_3913_112" x="39.9209" y="77.9944" width="118.67" height="45.6852" filterUnits="userSpaceOnUse" color-interpolation-filters="sRGB">
<feFlood flood-opacity="0" result="BackgroundImageFix"/>
<feColorMatrix in="SourceAlpha" type="matrix" values="0 0 0 0 0 0 0 0 0 0 0 0 0 0 0 0 0 0 127 0" result="hardAlpha"/>
<feOffset dy="5.12"/>
<feGaussianBlur stdDeviation="3.52"/>
<feComposite in2="hardAlpha" operator="out"/>
<feColorMatrix type="matrix" values="0 0 0 0 0 0 0 0 0 0 0 0 0 0 0 0 0 0 0.25 0"/>
<feBlend mode="normal" in2="BackgroundImageFix" result="effect1_dropShadow_3913_112"/>
<feColorMatrix in="SourceAlpha" type="matrix" values="0 0 0 0 0 0 0 0 0 0 0 0 0 0 0 0 0 0 127 0" result="hardAlpha"/>
<feOffset dy="-5.12"/>
<feGaussianBlur stdDeviation="2.56"/>
<feComposite in2="hardAlpha" operator="out"/>
<feColorMatrix type="matrix" values="0 0 0 0 0.961028 0 0 0 0 0.961028 0 0 0 0 0.477774 0 0 0 1 0"/>
<feBlend mode="normal" in2="effect1_dropShadow_3913_112" result="effect2_dropShadow_3913_112"/>
<feBlend mode="normal" in="SourceGraphic" in2="effect2_dropShadow_3913_112" result="shape"/>
</filter>
</defs>
</svg>
