<svg width="198" height="128" viewBox="0 0 198 128" fill="none" xmlns="http://www.w3.org/2000/svg">
<rect width="198" height="128" fill="#32A9DF"/>
<rect x="63.5" y="10.5" width="71" height="71" rx="35.5" stroke="black" stroke-opacity="0.1" stroke-width="3"/>
<path d="M99 80C117.778 80 133 64.7777 133 46C133 27.2223 117.778 12 99 12C80.2223 12 65 27.2223 65 46C65 64.7777 80.2223 80 99 80Z" fill="url(#paint0_linear_3913_124)"/>
<path d="M88.0151 48.4854L92.049 59.6504C92.049 59.6504 92.5533 60.6951 93.0933 60.6951C93.6334 60.6951 101.666 52.339 101.666 52.339L110.598 35.0869L88.1591 45.6033L88.0151 48.4854Z" fill="#C8DAEA"/>
<path d="M93.3636 51.3488L92.5892 59.5785C92.5892 59.5785 92.2651 62.1001 94.7862 59.5785C97.3073 57.0568 99.7205 55.1123 99.7205 55.1123" fill="#A9C6D8"/>
<path d="M88.0876 48.8838L79.7899 46.1802C79.7899 46.1802 78.7982 45.7779 79.1176 44.8655C79.1833 44.6774 79.3159 44.5173 79.7125 44.2422C81.5511 42.9607 113.743 31.3902 113.743 31.3902C113.743 31.3902 114.652 31.0839 115.188 31.2876C115.32 31.3287 115.44 31.4042 115.533 31.5065C115.627 31.6088 115.692 31.7342 115.722 31.8699C115.78 32.1095 115.804 32.356 115.794 32.6023C115.791 32.8154 115.765 33.0128 115.746 33.3225C115.55 36.4859 109.682 60.0955 109.682 60.0955C109.682 60.0955 109.331 61.4771 108.074 61.5244C107.765 61.5344 107.457 61.482 107.168 61.3705C106.88 61.2589 106.617 61.0904 106.395 60.875C103.927 58.752 95.3962 53.019 93.5112 51.7582C93.4686 51.7292 93.4328 51.6915 93.4062 51.6475C93.3795 51.6035 93.3625 51.5543 93.3565 51.5032C93.3301 51.3703 93.4746 51.2057 93.4746 51.2057C93.4746 51.2057 108.329 38.0023 108.724 36.6163C108.755 36.5089 108.639 36.4559 108.484 36.5029C107.497 36.8659 90.3945 47.6663 88.5069 48.8583C88.3711 48.8994 88.2275 48.9081 88.0876 48.8838Z" fill="white"/>
<g filter="url(#filter0_dd_3913_124)">
<mask id="path-7-outside-1_3913_124" maskUnits="userSpaceOnUse" x="57" y="90" width="84" height="23" fill="black">
<rect fill="white" x="57" y="90" width="84" height="23"/>
<path d="M69.3088 95.2792H65.7932V106H62.8269V95.2792H59.3113V92.8713H69.3088V95.2792ZM77.576 102.136H71.4603C71.5031 102.741 71.7106 103.223 72.0829 103.583C72.4613 103.937 72.9557 104.114 73.566 104.114C73.9384 104.114 74.2771 104.022 74.5823 103.839C74.8936 103.656 75.1713 103.382 75.4154 103.015L77.5394 104.224C77.0023 104.92 76.4011 105.429 75.7358 105.753C75.0706 106.07 74.332 106.229 73.5203 106.229C71.97 106.229 70.7615 105.811 69.8948 104.975C69.0281 104.132 68.5947 102.96 68.5947 101.459C68.5947 99.9026 69.0464 98.6697 69.9497 97.7603C70.853 96.8508 71.9639 96.3961 73.2822 96.3961C74.6494 96.3961 75.7053 96.802 76.45 97.6138C77.2007 98.4255 77.576 99.6462 77.576 101.276V102.136ZM74.8936 100.305C74.8936 99.6646 74.7562 99.1854 74.4816 98.868C74.213 98.5446 73.8499 98.3828 73.3921 98.3828C72.8428 98.3828 72.3972 98.5659 72.0554 98.9321C71.7197 99.2983 71.5153 99.7561 71.442 100.305H74.8936ZM79.3522 106V92.1206H82.2452V106H79.3522ZM92.9203 102.136H86.8046C86.8473 102.741 87.0548 103.223 87.4271 103.583C87.8055 103.937 88.2999 104.114 88.9103 104.114C89.2826 104.114 89.6213 104.022 89.9265 103.839C90.2378 103.656 90.5155 103.382 90.7596 103.015L92.8837 104.224C92.3466 104.92 91.7454 105.429 91.0801 105.753C90.4148 106.07 89.6763 106.229 88.8645 106.229C87.3142 106.229 86.1057 105.811 85.239 104.975C84.3723 104.132 83.939 102.96 83.939 101.459C83.939 99.9026 84.3906 98.6697 85.2939 97.7603C86.1973 96.8508 87.3081 96.3961 88.6265 96.3961C89.9937 96.3961 91.0496 96.802 91.7942 97.6138C92.5449 98.4255 92.9203 99.6462 92.9203 101.276V102.136ZM90.2378 100.305C90.2378 99.6646 90.1005 99.1854 89.8258 98.868C89.5573 98.5446 89.1941 98.3828 88.7363 98.3828C88.187 98.3828 87.7415 98.5659 87.3997 98.9321C87.064 99.2983 86.8595 99.7561 86.7863 100.305H90.2378ZM104.035 105.222C104.035 106.833 103.559 108.1 102.607 109.021C101.661 109.943 100.336 110.404 98.6332 110.404C97.5773 110.404 96.6923 110.224 95.9781 109.864C95.2701 109.51 94.6842 109.018 94.2203 108.39L96.2253 106.934C96.5183 107.355 96.851 107.682 97.2233 107.913C97.6017 108.151 98.0869 108.271 98.679 108.271C99.4358 108.271 100.034 108.045 100.473 107.593C100.919 107.147 101.142 106.51 101.142 105.68V104.947H101.105C100.769 105.374 100.351 105.695 99.8508 105.908C99.3564 106.122 98.7766 106.229 98.1113 106.229C96.9883 106.229 96.0453 105.826 95.2823 105.02C94.5194 104.209 94.1379 103.061 94.1379 101.578C94.1379 99.924 94.5835 98.6483 95.4746 97.7511C96.3657 96.8478 97.4186 96.3961 98.6332 96.3961C99.1031 96.3961 99.5609 96.4877 100.006 96.6708C100.452 96.8539 100.818 97.1285 101.105 97.4948H101.142V96.625H104.035V105.222ZM101.178 101.496V100.754C101.178 100.174 100.992 99.6798 100.62 99.2709C100.248 98.8558 99.7684 98.6483 99.1825 98.6483C98.5233 98.6483 98.0076 98.8955 97.6353 99.3899C97.2629 99.8843 97.0768 100.565 97.0768 101.432C97.0768 102.231 97.2507 102.857 97.5986 103.308C97.9465 103.754 98.4531 103.977 99.1184 103.977C99.686 103.977 100.171 103.757 100.574 103.318C100.977 102.878 101.178 102.271 101.178 101.496ZM112.275 99.1519C112.073 99.0847 111.875 99.0359 111.679 99.0054C111.484 98.9688 111.292 98.9504 111.103 98.9504C110.529 98.9504 110.062 99.1824 109.702 99.6462C109.342 100.104 109.162 100.73 109.162 101.523V106H106.269V96.625H109.162V98.2913H109.198C109.424 97.6809 109.745 97.2231 110.16 96.918C110.575 96.6128 111.072 96.4602 111.652 96.4602C111.878 96.4602 112.091 96.4785 112.293 96.5151C112.5 96.5457 112.705 96.6006 112.906 96.6799L112.275 99.1519ZM121.869 106H119.132V104.947H119.095C118.747 105.374 118.338 105.695 117.868 105.908C117.405 106.122 116.883 106.229 116.303 106.229C115.509 106.229 114.823 105.985 114.243 105.496C113.663 105.002 113.373 104.325 113.373 103.464C113.373 102.628 113.651 101.929 114.206 101.367C114.762 100.8 115.58 100.458 116.66 100.342L119.15 100.077V99.7927C119.15 99.335 119.004 98.9901 118.711 98.7582C118.424 98.5262 118.064 98.4103 117.63 98.4103C117.197 98.4103 116.816 98.511 116.486 98.7124C116.156 98.9138 115.857 99.2129 115.589 99.6096L113.657 98.4561C113.993 97.9189 114.53 97.4429 115.268 97.0278C116.007 96.6067 116.88 96.3961 117.887 96.3961C119.181 96.3961 120.166 96.7288 120.844 97.394C121.527 98.0593 121.869 99.0603 121.869 100.397V106ZM119.15 102.191V101.834L117.282 102.017C116.849 102.066 116.532 102.188 116.33 102.384C116.135 102.573 116.037 102.832 116.037 103.162C116.037 103.455 116.147 103.699 116.367 103.894C116.587 104.083 116.864 104.178 117.2 104.178C117.774 104.178 118.241 103.992 118.601 103.62C118.967 103.241 119.15 102.765 119.15 102.191ZM138.861 106H135.978V100.58C135.978 99.9392 135.852 99.4601 135.602 99.1427C135.352 98.8192 134.977 98.6575 134.476 98.6575C134 98.6575 133.612 98.8589 133.313 99.2617C133.014 99.6584 132.865 100.156 132.865 100.754V106H129.972V100.598C129.972 99.9514 129.85 99.4662 129.605 99.1427C129.361 98.8192 128.992 98.6575 128.498 98.6575C128.003 98.6575 127.607 98.8497 127.307 99.2343C127.015 99.6127 126.868 100.131 126.868 100.791V106H123.975V96.625H126.868V97.7969H126.905C127.204 97.3879 127.622 97.0522 128.159 96.7898C128.702 96.5273 129.261 96.3961 129.834 96.3961C130.512 96.3961 131.079 96.5334 131.537 96.8081C132.001 97.0767 132.34 97.4307 132.553 97.8701C132.969 97.3757 133.448 97.0065 133.991 96.7623C134.534 96.5182 135.138 96.3961 135.804 96.3961C136.713 96.3961 137.448 96.7166 138.01 97.3574C138.578 97.9983 138.861 98.9352 138.861 100.168V106Z"/>
</mask>
<path d="M69.3088 95.2792H65.7932V106H62.8269V95.2792H59.3113V92.8713H69.3088V95.2792ZM77.576 102.136H71.4603C71.5031 102.741 71.7106 103.223 72.0829 103.583C72.4613 103.937 72.9557 104.114 73.566 104.114C73.9384 104.114 74.2771 104.022 74.5823 103.839C74.8936 103.656 75.1713 103.382 75.4154 103.015L77.5394 104.224C77.0023 104.92 76.4011 105.429 75.7358 105.753C75.0706 106.07 74.332 106.229 73.5203 106.229C71.97 106.229 70.7615 105.811 69.8948 104.975C69.0281 104.132 68.5947 102.96 68.5947 101.459C68.5947 99.9026 69.0464 98.6697 69.9497 97.7603C70.853 96.8508 71.9639 96.3961 73.2822 96.3961C74.6494 96.3961 75.7053 96.802 76.45 97.6138C77.2007 98.4255 77.576 99.6462 77.576 101.276V102.136ZM74.8936 100.305C74.8936 99.6646 74.7562 99.1854 74.4816 98.868C74.213 98.5446 73.8499 98.3828 73.3921 98.3828C72.8428 98.3828 72.3972 98.5659 72.0554 98.9321C71.7197 99.2983 71.5153 99.7561 71.442 100.305H74.8936ZM79.3522 106V92.1206H82.2452V106H79.3522ZM92.9203 102.136H86.8046C86.8473 102.741 87.0548 103.223 87.4271 103.583C87.8055 103.937 88.2999 104.114 88.9103 104.114C89.2826 104.114 89.6213 104.022 89.9265 103.839C90.2378 103.656 90.5155 103.382 90.7596 103.015L92.8837 104.224C92.3466 104.92 91.7454 105.429 91.0801 105.753C90.4148 106.07 89.6763 106.229 88.8645 106.229C87.3142 106.229 86.1057 105.811 85.239 104.975C84.3723 104.132 83.939 102.96 83.939 101.459C83.939 99.9026 84.3906 98.6697 85.2939 97.7603C86.1973 96.8508 87.3081 96.3961 88.6265 96.3961C89.9937 96.3961 91.0496 96.802 91.7942 97.6138C92.5449 98.4255 92.9203 99.6462 92.9203 101.276V102.136ZM90.2378 100.305C90.2378 99.6646 90.1005 99.1854 89.8258 98.868C89.5573 98.5446 89.1941 98.3828 88.7363 98.3828C88.187 98.3828 87.7415 98.5659 87.3997 98.9321C87.064 99.2983 86.8595 99.7561 86.7863 100.305H90.2378ZM104.035 105.222C104.035 106.833 103.559 108.1 102.607 109.021C101.661 109.943 100.336 110.404 98.6332 110.404C97.5773 110.404 96.6923 110.224 95.9781 109.864C95.2701 109.51 94.6842 109.018 94.2203 108.39L96.2253 106.934C96.5183 107.355 96.851 107.682 97.2233 107.913C97.6017 108.151 98.0869 108.271 98.679 108.271C99.4358 108.271 100.034 108.045 100.473 107.593C100.919 107.147 101.142 106.51 101.142 105.68V104.947H101.105C100.769 105.374 100.351 105.695 99.8508 105.908C99.3564 106.122 98.7766 106.229 98.1113 106.229C96.9883 106.229 96.0453 105.826 95.2823 105.02C94.5194 104.209 94.1379 103.061 94.1379 101.578C94.1379 99.924 94.5835 98.6483 95.4746 97.7511C96.3657 96.8478 97.4186 96.3961 98.6332 96.3961C99.1031 96.3961 99.5609 96.4877 100.006 96.6708C100.452 96.8539 100.818 97.1285 101.105 97.4948H101.142V96.625H104.035V105.222ZM101.178 101.496V100.754C101.178 100.174 100.992 99.6798 100.62 99.2709C100.248 98.8558 99.7684 98.6483 99.1825 98.6483C98.5233 98.6483 98.0076 98.8955 97.6353 99.3899C97.2629 99.8843 97.0768 100.565 97.0768 101.432C97.0768 102.231 97.2507 102.857 97.5986 103.308C97.9465 103.754 98.4531 103.977 99.1184 103.977C99.686 103.977 100.171 103.757 100.574 103.318C100.977 102.878 101.178 102.271 101.178 101.496ZM112.275 99.1519C112.073 99.0847 111.875 99.0359 111.679 99.0054C111.484 98.9688 111.292 98.9504 111.103 98.9504C110.529 98.9504 110.062 99.1824 109.702 99.6462C109.342 100.104 109.162 100.73 109.162 101.523V106H106.269V96.625H109.162V98.2913H109.198C109.424 97.6809 109.745 97.2231 110.16 96.918C110.575 96.6128 111.072 96.4602 111.652 96.4602C111.878 96.4602 112.091 96.4785 112.293 96.5151C112.5 96.5457 112.705 96.6006 112.906 96.6799L112.275 99.1519ZM121.869 106H119.132V104.947H119.095C118.747 105.374 118.338 105.695 117.868 105.908C117.405 106.122 116.883 106.229 116.303 106.229C115.509 106.229 114.823 105.985 114.243 105.496C113.663 105.002 113.373 104.325 113.373 103.464C113.373 102.628 113.651 101.929 114.206 101.367C114.762 100.8 115.58 100.458 116.66 100.342L119.15 100.077V99.7927C119.15 99.335 119.004 98.9901 118.711 98.7582C118.424 98.5262 118.064 98.4103 117.63 98.4103C117.197 98.4103 116.816 98.511 116.486 98.7124C116.156 98.9138 115.857 99.2129 115.589 99.6096L113.657 98.4561C113.993 97.9189 114.53 97.4429 115.268 97.0278C116.007 96.6067 116.88 96.3961 117.887 96.3961C119.181 96.3961 120.166 96.7288 120.844 97.394C121.527 98.0593 121.869 99.0603 121.869 100.397V106ZM119.15 102.191V101.834L117.282 102.017C116.849 102.066 116.532 102.188 116.33 102.384C116.135 102.573 116.037 102.832 116.037 103.162C116.037 103.455 116.147 103.699 116.367 103.894C116.587 104.083 116.864 104.178 117.2 104.178C117.774 104.178 118.241 103.992 118.601 103.62C118.967 103.241 119.15 102.765 119.15 102.191ZM138.861 106H135.978V100.58C135.978 99.9392 135.852 99.4601 135.602 99.1427C135.352 98.8192 134.977 98.6575 134.476 98.6575C134 98.6575 133.612 98.8589 133.313 99.2617C133.014 99.6584 132.865 100.156 132.865 100.754V106H129.972V100.598C129.972 99.9514 129.85 99.4662 129.605 99.1427C129.361 98.8192 128.992 98.6575 128.498 98.6575C128.003 98.6575 127.607 98.8497 127.307 99.2343C127.015 99.6127 126.868 100.131 126.868 100.791V106H123.975V96.625H126.868V97.7969H126.905C127.204 97.3879 127.622 97.0522 128.159 96.7898C128.702 96.5273 129.261 96.3961 129.834 96.3961C130.512 96.3961 131.079 96.5334 131.537 96.8081C132.001 97.0767 132.34 97.4307 132.553 97.8701C132.969 97.3757 133.448 97.0065 133.991 96.7623C134.534 96.5182 135.138 96.3961 135.804 96.3961C136.713 96.3961 137.448 96.7166 138.01 97.3574C138.578 97.9983 138.861 98.9352 138.861 100.168V106Z" fill="white" shape-rendering="crispEdges"/>
<path d="M69.3088 95.2792V97.2792C70.4134 97.2792 71.3088 96.3837 71.3088 95.2792H69.3088ZM65.7932 95.2792V93.2792C64.6886 93.2792 63.7932 94.1746 63.7932 95.2792H65.7932ZM65.7932 106V108C66.8978 108 67.7932 107.105 67.7932 106H65.7932ZM62.8269 106H60.8269C60.8269 107.105 61.7223 108 62.8269 108V106ZM62.8269 95.2792H64.8269C64.8269 94.1746 63.9315 93.2792 62.8269 93.2792V95.2792ZM59.3113 95.2792H57.3113C57.3113 96.3837 58.2067 97.2792 59.3113 97.2792V95.2792ZM59.3113 92.8713V90.8713C58.2067 90.8713 57.3113 91.7668 57.3113 92.8713H59.3113ZM69.3088 92.8713H71.3088C71.3088 91.7668 70.4134 90.8713 69.3088 90.8713V92.8713ZM69.3088 93.2792H65.7932V97.2792H69.3088V93.2792ZM63.7932 95.2792V106H67.7932V95.2792H63.7932ZM65.7932 104H62.8269V108H65.7932V104ZM64.8269 106V95.2792H60.8269V106H64.8269ZM62.8269 93.2792H59.3113V97.2792H62.8269V93.2792ZM61.3113 95.2792V92.8713H57.3113V95.2792H61.3113ZM59.3113 94.8713H69.3088V90.8713H59.3113V94.8713ZM67.3088 92.8713V95.2792H71.3088V92.8713H67.3088ZM77.576 102.136V104.136C78.6806 104.136 79.576 103.241 79.576 102.136H77.576ZM71.4603 102.136V100.136C70.9054 100.136 70.3754 100.367 69.9971 100.773C69.6188 101.179 69.4262 101.724 69.4653 102.278L71.4603 102.136ZM72.0829 103.583L70.6924 105.021C70.7004 105.028 70.7085 105.036 70.7166 105.044L72.0829 103.583ZM74.5823 103.839L73.5682 102.115C73.5632 102.118 73.5583 102.121 73.5533 102.124L74.5823 103.839ZM75.4154 103.015L76.4045 101.277C75.4921 100.758 74.3336 101.033 73.7513 101.906L75.4154 103.015ZM77.5394 104.224L79.1226 105.446C79.4765 104.988 79.6143 104.398 79.5003 103.83C79.3864 103.263 79.0319 102.772 78.5285 102.486L77.5394 104.224ZM75.7358 105.753L76.597 107.558C76.6015 107.556 76.6059 107.554 76.6104 107.551L75.7358 105.753ZM69.8948 104.975L68.5009 106.409L68.5061 106.414L69.8948 104.975ZM76.45 97.6138L74.9761 98.9657L74.9816 98.9717L76.45 97.6138ZM74.8936 100.305V102.305C75.9981 102.305 76.8936 101.41 76.8936 100.305H74.8936ZM74.4816 98.868L72.9427 100.146C72.9515 100.156 72.9603 100.166 72.9692 100.177L74.4816 98.868ZM72.0554 98.9321L70.5933 97.5675C70.5892 97.5719 70.5852 97.5763 70.5811 97.5807L72.0554 98.9321ZM71.442 100.305L69.4596 100.041C69.3834 100.613 69.5575 101.189 69.9372 101.623C70.317 102.057 70.8655 102.305 71.442 102.305V100.305ZM77.576 100.136H71.4603V104.136H77.576V100.136ZM69.4653 102.278C69.5366 103.285 69.9067 104.261 70.6924 105.021L73.4733 102.145C73.4745 102.147 73.4781 102.15 73.4819 102.156C73.4858 102.162 73.4865 102.164 73.4851 102.161C73.4825 102.155 73.4633 102.108 73.4553 101.995L69.4653 102.278ZM70.7166 105.044C71.5302 105.805 72.5445 106.114 73.566 106.114V102.114C73.5099 102.114 73.4709 102.11 73.4464 102.106C73.4223 102.102 73.4118 102.098 73.4116 102.098C73.4114 102.098 73.4131 102.099 73.4162 102.1C73.4194 102.102 73.4234 102.104 73.428 102.107C73.4377 102.113 73.4451 102.119 73.4492 102.122L70.7166 105.044ZM73.566 106.114C74.2834 106.114 74.9806 105.933 75.6113 105.554L73.5533 102.124C73.5542 102.124 73.5573 102.122 73.5624 102.12C73.5675 102.118 73.5728 102.116 73.5775 102.115C73.5822 102.113 73.5845 102.113 73.5836 102.113C73.5826 102.113 73.577 102.114 73.566 102.114V106.114ZM75.5963 105.563C76.2186 105.197 76.7039 104.688 77.0795 104.125L73.7513 101.906C73.6387 102.075 73.5685 102.115 73.5682 102.115L75.5963 105.563ZM74.4264 104.754L76.5504 105.962L78.5285 102.486L76.4045 101.277L74.4264 104.754ZM75.9562 103.002C75.5725 103.499 75.2015 103.789 74.8613 103.954L76.6104 107.551C77.6008 107.07 78.4322 106.34 79.1226 105.446L75.9562 103.002ZM74.8747 103.948C74.5046 104.124 74.0646 104.229 73.5203 104.229V108.229C74.5995 108.229 75.6365 108.016 76.597 107.558L74.8747 103.948ZM73.5203 104.229C72.3332 104.229 71.6791 103.917 71.2834 103.535L68.5061 106.414C69.8439 107.705 71.6067 108.229 73.5203 108.229V104.229ZM71.2886 103.54C70.8991 103.162 70.5947 102.559 70.5947 101.459H66.5947C66.5947 103.362 67.1571 105.103 68.5009 106.409L71.2886 103.54ZM70.5947 101.459C70.5947 100.31 70.9146 99.6268 71.3687 99.1697L68.5307 96.3508C67.1782 97.7125 66.5947 99.495 66.5947 101.459H70.5947ZM71.3687 99.1697C71.8847 98.6502 72.4796 98.3961 73.2822 98.3961V94.3961C71.4481 94.3961 69.8213 95.0515 68.5307 96.3508L71.3687 99.1697ZM73.2822 98.3961C74.2341 98.3961 74.6983 98.6629 74.9761 98.9657L77.9238 96.2618C76.7123 94.9411 75.0647 94.3961 73.2822 94.3961V98.3961ZM74.9816 98.9717C75.259 99.2717 75.576 99.915 75.576 101.276H79.576C79.576 99.3775 79.1423 97.5794 77.9183 96.2558L74.9816 98.9717ZM75.576 101.276V102.136H79.576V101.276H75.576ZM76.8936 100.305C76.8936 99.4273 76.7123 98.3895 75.9939 97.5593L72.9692 100.177C72.8841 100.078 72.8646 100.005 72.868 100.016C72.8699 100.023 72.8766 100.049 72.8827 100.099C72.8887 100.148 72.8936 100.216 72.8936 100.305H76.8936ZM76.0204 97.5905C75.3351 96.7651 74.3847 96.3828 73.3921 96.3828V100.383C73.3829 100.383 73.3046 100.38 73.1941 100.331C73.0788 100.28 72.9932 100.206 72.9427 100.146L76.0204 97.5905ZM73.3921 96.3828C72.3479 96.3828 71.3522 96.7544 70.5933 97.5675L73.5175 100.297C73.5112 100.304 73.4974 100.317 73.4756 100.332C73.4536 100.347 73.4296 100.36 73.4062 100.37C73.3563 100.391 73.3419 100.383 73.3921 100.383V96.3828ZM70.5811 97.5807C69.9372 98.2831 69.5804 99.1348 69.4596 100.041L73.4245 100.57C73.4501 100.377 73.5022 100.314 73.5297 100.284L70.5811 97.5807ZM71.442 102.305H74.8936V98.3054H71.442V102.305ZM79.3522 106H77.3522C77.3522 107.105 78.2476 108 79.3522 108V106ZM79.3522 92.1206V90.1206C78.2476 90.1206 77.3522 91.016 77.3522 92.1206H79.3522ZM82.2452 92.1206H84.2452C84.2452 91.016 83.3498 90.1206 82.2452 90.1206V92.1206ZM82.2452 106V108C83.3498 108 84.2452 107.105 84.2452 106H82.2452ZM81.3522 106V92.1206H77.3522V106H81.3522ZM79.3522 94.1206H82.2452V90.1206H79.3522V94.1206ZM80.2452 92.1206V106H84.2452V92.1206H80.2452ZM82.2452 104H79.3522V108H82.2452V104ZM92.9203 102.136V104.136C94.0249 104.136 94.9203 103.241 94.9203 102.136H92.9203ZM86.8046 102.136V100.136C86.2496 100.136 85.7196 100.367 85.3413 100.773C84.963 101.179 84.7704 101.724 84.8095 102.278L86.8046 102.136ZM87.4271 103.583L86.0367 105.021C86.0447 105.028 86.0527 105.036 86.0608 105.044L87.4271 103.583ZM89.9265 103.839L88.9125 102.115C88.9075 102.118 88.9025 102.121 88.8975 102.124L89.9265 103.839ZM90.7596 103.015L91.7487 101.277C90.8363 100.758 89.6778 101.033 89.0955 101.906L90.7596 103.015ZM92.8837 104.224L94.4668 105.446C94.8207 104.988 94.9585 104.398 94.8446 103.83C94.7306 103.263 94.3761 102.772 93.8727 102.486L92.8837 104.224ZM91.0801 105.753L91.9412 107.558C91.9457 107.556 91.9502 107.554 91.9546 107.551L91.0801 105.753ZM85.239 104.975L83.8451 106.409L83.8504 106.414L85.239 104.975ZM91.7942 97.6138L90.3203 98.9657L90.3259 98.9717L91.7942 97.6138ZM90.2378 100.305V102.305C91.3424 102.305 92.2378 101.41 92.2378 100.305H90.2378ZM89.8258 98.868L88.287 100.146C88.2957 100.156 88.3045 100.166 88.3135 100.177L89.8258 98.868ZM87.3997 98.9321L85.9375 97.5675C85.9335 97.5719 85.9294 97.5763 85.9253 97.5807L87.3997 98.9321ZM86.7863 100.305L84.8038 100.041C84.7276 100.613 84.9017 101.189 85.2815 101.623C85.6613 102.057 86.2097 102.305 86.7863 102.305V100.305ZM92.9203 100.136H86.8046V104.136H92.9203V100.136ZM84.8095 102.278C84.8808 103.285 85.2509 104.261 86.0367 105.021L88.8176 102.145C88.8188 102.147 88.8223 102.15 88.8262 102.156C88.83 102.162 88.8308 102.164 88.8293 102.161C88.8268 102.155 88.8075 102.108 88.7996 101.995L84.8095 102.278ZM86.0608 105.044C86.8745 105.805 87.8887 106.114 88.9103 106.114V102.114C88.8542 102.114 88.8152 102.11 88.7907 102.106C88.7665 102.102 88.756 102.098 88.7559 102.098C88.7556 102.098 88.7573 102.099 88.7605 102.1C88.7637 102.102 88.7677 102.104 88.7722 102.107C88.7819 102.113 88.7894 102.119 88.7934 102.122L86.0608 105.044ZM88.9103 106.114C89.6276 106.114 90.3248 105.933 90.9555 105.554L88.8975 102.124C88.8984 102.124 88.9016 102.122 88.9067 102.12C88.9118 102.118 88.917 102.116 88.9218 102.115C88.9264 102.113 88.9287 102.113 88.9278 102.113C88.9268 102.113 88.9212 102.114 88.9103 102.114V106.114ZM90.9406 105.563C91.5628 105.197 92.0481 104.688 92.4237 104.125L89.0955 101.906C88.9829 102.075 88.9128 102.115 88.9125 102.115L90.9406 105.563ZM89.7706 104.754L91.8946 105.962L93.8727 102.486L91.7487 101.277L89.7706 104.754ZM91.3005 103.002C90.9167 103.499 90.5457 103.789 90.2055 103.954L91.9546 107.551C92.945 107.07 93.7764 106.34 94.4668 105.446L91.3005 103.002ZM90.2189 103.948C89.8489 104.124 89.4088 104.229 88.8645 104.229V108.229C89.9437 108.229 90.9807 108.016 91.9412 107.558L90.2189 103.948ZM88.8645 104.229C87.6774 104.229 87.0233 103.917 86.6277 103.535L83.8504 106.414C85.1881 107.705 86.951 108.229 88.8645 108.229V104.229ZM86.6329 103.54C86.2433 103.162 85.939 102.559 85.939 101.459H81.939C81.939 103.362 82.5013 105.103 83.8451 106.409L86.6329 103.54ZM85.939 101.459C85.939 100.31 86.2588 99.6268 86.7129 99.1697L83.875 96.3508C82.5224 97.7125 81.939 99.495 81.939 101.459H85.939ZM86.7129 99.1697C87.229 98.6502 87.8239 98.3961 88.6265 98.3961V94.3961C86.7924 94.3961 85.1656 95.0515 83.875 96.3508L86.7129 99.1697ZM88.6265 98.3961C89.5783 98.3961 90.0426 98.6629 90.3203 98.9657L93.268 96.2618C92.0566 94.9411 90.409 94.3961 88.6265 94.3961V98.3961ZM90.3259 98.9717C90.6033 99.2717 90.9203 99.915 90.9203 101.276H94.9203C94.9203 99.3775 94.4866 97.5794 93.2625 96.2558L90.3259 98.9717ZM90.9203 101.276V102.136H94.9203V101.276H90.9203ZM92.2378 100.305C92.2378 99.4273 92.0566 98.3895 91.3381 97.5593L88.3135 100.177C88.2283 100.078 88.2088 100.005 88.2122 100.016C88.2142 100.023 88.2209 100.049 88.2269 100.099C88.233 100.148 88.2378 100.216 88.2378 100.305H92.2378ZM91.3646 97.5905C90.6794 96.7651 89.7289 96.3828 88.7363 96.3828V100.383C88.7271 100.383 88.6488 100.38 88.5383 100.331C88.4231 100.28 88.3374 100.206 88.287 100.146L91.3646 97.5905ZM88.7363 96.3828C87.6922 96.3828 86.6964 96.7544 85.9375 97.5675L88.8618 100.297C88.8555 100.304 88.8416 100.317 88.8198 100.332C88.7978 100.347 88.7739 100.36 88.7504 100.37C88.7005 100.391 88.6861 100.383 88.7363 100.383V96.3828ZM85.9253 97.5807C85.2814 98.2831 84.9246 99.1348 84.8038 100.041L88.7687 100.57C88.7944 100.377 88.8465 100.314 88.874 100.284L85.9253 97.5807ZM86.7863 102.305H90.2378V98.3054H86.7863V102.305ZM102.607 109.021L101.216 107.584L101.211 107.589L102.607 109.021ZM95.9781 109.864L96.8787 108.078L96.8726 108.075L95.9781 109.864ZM94.2203 108.39L93.0453 106.771C92.6139 107.084 92.3254 107.557 92.2439 108.084C92.1623 108.61 92.2945 109.148 92.611 109.577L94.2203 108.39ZM96.2253 106.934L97.8672 105.792C97.5602 105.351 97.0887 105.051 96.5588 104.962C96.0289 104.872 95.4852 105 95.0503 105.315L96.2253 106.934ZM97.2233 107.913L98.2882 106.221L98.2808 106.216L97.2233 107.913ZM100.473 107.593L99.0592 106.179C99.0527 106.185 99.0463 106.192 99.0399 106.198L100.473 107.593ZM101.142 104.947H103.142C103.142 103.843 102.246 102.947 101.142 102.947V104.947ZM101.105 104.947V102.947C100.491 102.947 99.9116 103.229 99.5325 103.712L101.105 104.947ZM99.8508 105.908L99.0657 104.069L99.0575 104.073L99.8508 105.908ZM95.2823 105.02L93.825 106.39L93.8302 106.396L95.2823 105.02ZM95.4746 97.7511L96.8936 99.1605L96.8984 99.1557L95.4746 97.7511ZM101.105 97.4948L99.5306 98.7281C99.9097 99.212 100.49 99.4948 101.105 99.4948V97.4948ZM101.142 97.4948V99.4948C102.246 99.4948 103.142 98.5993 103.142 97.4948H101.142ZM101.142 96.625V94.625C100.037 94.625 99.1417 95.5204 99.1417 96.625H101.142ZM104.035 96.625H106.035C106.035 95.5204 105.139 94.625 104.035 94.625V96.625ZM100.62 99.2709L99.1311 100.606C99.1344 100.61 99.1377 100.614 99.141 100.617L100.62 99.2709ZM97.5986 103.308L96.0141 104.529L96.0223 104.539L97.5986 103.308ZM102.035 105.222C102.035 106.417 101.697 107.118 101.216 107.584L103.998 110.458C105.421 109.081 106.035 107.25 106.035 105.222H102.035ZM101.211 107.589C100.737 108.05 99.9717 108.404 98.6332 108.404V112.404C100.7 112.404 102.584 111.836 104.002 110.454L101.211 107.589ZM98.6332 108.404C97.7939 108.404 97.2387 108.259 96.8787 108.078L95.0776 111.649C96.1458 112.188 97.3606 112.404 98.6332 112.404V108.404ZM96.8726 108.075C96.4431 107.86 96.1035 107.573 95.8297 107.202L92.611 109.577C93.2649 110.463 94.0972 111.159 95.0837 111.652L96.8726 108.075ZM95.3954 110.008L97.4004 108.552L95.0503 105.315L93.0453 106.771L95.3954 110.008ZM94.5835 108.076C95.0056 108.683 95.5273 109.213 96.1658 109.611L98.2808 106.216C98.1746 106.15 98.031 106.027 97.8672 105.792L94.5835 108.076ZM96.1584 109.606C96.9436 110.1 97.8295 110.271 98.679 110.271V106.271C98.3444 106.271 98.2598 106.203 98.2882 106.221L96.1584 109.606ZM98.679 110.271C99.8591 110.271 101.017 109.903 101.907 108.988L99.0399 106.198C99.0278 106.211 99.0176 106.219 98.9888 106.23C98.9528 106.244 98.8594 106.271 98.679 106.271V110.271ZM101.888 109.007C102.816 108.079 103.142 106.865 103.142 105.68H99.1417C99.1417 105.92 99.1091 106.056 99.0865 106.121C99.0756 106.152 99.0667 106.168 99.0636 106.173C99.0608 106.177 99.0597 106.178 99.0592 106.179L101.888 109.007ZM103.142 105.68V104.947H99.1417V105.68H103.142ZM101.142 102.947H101.105V106.947H101.142V102.947ZM99.5325 103.712C99.4047 103.874 99.2576 103.987 99.0657 104.069L100.636 107.748C101.445 107.403 102.134 106.875 102.678 106.183L99.5325 103.712ZM99.0575 104.073C98.8652 104.156 98.5661 104.229 98.1113 104.229V108.229C98.9871 108.229 99.8477 108.089 100.644 107.744L99.0575 104.073ZM98.1113 104.229C97.5301 104.229 97.1146 104.047 96.7345 103.645L93.8302 106.396C94.976 107.606 96.4465 108.229 98.1113 108.229V104.229ZM96.7397 103.651C96.4279 103.319 96.1379 102.725 96.1379 101.578H92.1379C92.1379 103.397 92.6109 105.098 93.825 106.39L96.7397 103.651ZM96.1379 101.578C96.1379 100.283 96.4789 99.5781 96.8936 99.1605L94.0556 96.3417C92.6881 97.7185 92.1379 99.5649 92.1379 101.578H96.1379ZM96.8984 99.1557C97.4325 98.6143 97.9799 98.3961 98.6332 98.3961V94.3961C96.8573 94.3961 95.299 95.0813 94.0508 96.3465L96.8984 99.1557ZM98.6332 98.3961C98.8358 98.3961 99.0357 98.4341 99.2462 98.5207L100.767 94.8209C100.086 94.5412 99.3705 94.3961 98.6332 94.3961V98.3961ZM99.2462 98.5207C99.3835 98.577 99.465 98.6443 99.5306 98.7281L102.68 96.2614C102.171 95.6128 101.521 95.1307 100.767 94.8209L99.2462 98.5207ZM101.105 99.4948H101.142V95.4948H101.105V99.4948ZM103.142 97.4948V96.625H99.1417V97.4948H103.142ZM101.142 98.625H104.035V94.625H101.142V98.625ZM102.035 96.625V105.222H106.035V96.625H102.035ZM103.178 101.496V100.754H99.1783V101.496H103.178ZM103.178 100.754C103.178 99.7026 102.824 98.7208 102.099 97.9244L99.141 100.617C99.1545 100.632 99.1607 100.642 99.1631 100.645C99.1653 100.649 99.1662 100.651 99.167 100.653C99.1674 100.654 99.1783 100.681 99.1783 100.754H103.178ZM102.109 97.9354C101.336 97.0737 100.304 96.6483 99.1825 96.6483V100.648C99.2107 100.648 99.2219 100.651 99.2194 100.65C99.2164 100.65 99.2041 100.647 99.1864 100.639C99.1685 100.631 99.1524 100.622 99.1401 100.613C99.1282 100.604 99.1255 100.6 99.1311 100.606L102.109 97.9354ZM99.1825 96.6483C97.9428 96.6483 96.8155 97.1538 96.0376 98.1867L99.2329 100.593C99.2402 100.583 99.2378 100.589 99.2233 100.601C99.2083 100.613 99.1883 100.626 99.1657 100.637C99.1435 100.648 99.1286 100.651 99.1268 100.652C99.1258 100.652 99.1427 100.648 99.1825 100.648V96.6483ZM96.0376 98.1867C95.3178 99.1426 95.0768 100.3 95.0768 101.432H99.0768C99.0768 100.829 99.2081 100.626 99.2329 100.593L96.0376 98.1867ZM95.0768 101.432C95.0768 102.499 95.3071 103.611 96.0142 104.529L99.1831 102.088C99.1943 102.102 99.0768 101.963 99.0768 101.432H95.0768ZM96.0223 104.539C96.8186 105.559 97.9596 105.977 99.1184 105.977V101.977C99.008 101.977 98.9983 101.958 99.0446 101.979C99.0673 101.989 99.0945 102.004 99.1215 102.025C99.1483 102.046 99.1659 102.066 99.175 102.077L96.0223 104.539ZM99.1184 105.977C100.278 105.977 101.288 105.498 102.048 104.669L99.0998 101.966C99.0783 101.99 99.066 101.999 99.0645 102C99.0637 102.001 99.065 102 99.0684 101.998C99.0719 101.995 99.0768 101.993 99.083 101.99C99.0893 101.987 99.0959 101.985 99.1027 101.982C99.1095 101.98 99.1154 101.979 99.1201 101.978C99.1301 101.976 99.1306 101.977 99.1184 101.977V105.977ZM102.048 104.669C102.881 103.761 103.178 102.617 103.178 101.496H99.1783C99.1783 101.713 99.1498 101.84 99.129 101.903C99.1188 101.933 99.1102 101.95 99.1063 101.957C99.1027 101.963 99.1007 101.965 99.0998 101.966L102.048 104.669ZM112.275 99.1519L111.642 101.049C112.169 101.225 112.745 101.174 113.232 100.908C113.72 100.642 114.075 100.185 114.212 99.6471L112.275 99.1519ZM111.679 99.0054L111.311 100.971C111.331 100.975 111.351 100.978 111.371 100.981L111.679 99.0054ZM109.702 99.6462L111.274 100.883L111.282 100.873L109.702 99.6462ZM109.162 106V108C110.266 108 111.162 107.105 111.162 106H109.162ZM106.269 106H104.269C104.269 107.105 105.164 108 106.269 108V106ZM106.269 96.625V94.625C105.164 94.625 104.269 95.5204 104.269 96.625H106.269ZM109.162 96.625H111.162C111.162 95.5204 110.266 94.625 109.162 94.625V96.625ZM109.162 98.2913H107.162C107.162 99.3958 108.057 100.291 109.162 100.291V98.2913ZM109.198 98.2913V100.291C110.035 100.291 110.784 99.7702 111.074 98.9853L109.198 98.2913ZM112.293 96.5151L111.935 98.4829C111.957 98.4869 111.98 98.4906 112.002 98.4939L112.293 96.5151ZM112.906 96.6799L114.844 97.1751C115.094 96.1984 114.577 95.1886 113.639 94.8191L112.906 96.6799ZM112.907 97.2545C112.608 97.1547 112.301 97.0782 111.988 97.0293L111.371 100.981C111.448 100.994 111.538 101.015 111.642 101.049L112.907 97.2545ZM112.048 97.0396C111.737 96.9814 111.422 96.9504 111.103 96.9504V100.95C111.162 100.95 111.231 100.956 111.311 100.971L112.048 97.0396ZM111.103 96.9504C109.894 96.9504 108.851 97.4813 108.122 98.4198L111.282 100.873C111.293 100.859 111.293 100.861 111.28 100.872C111.266 100.884 111.243 100.9 111.212 100.916C111.181 100.931 111.151 100.941 111.127 100.946C111.104 100.951 111.095 100.95 111.103 100.95V96.9504ZM108.13 98.4097C107.407 99.3285 107.162 100.442 107.162 101.523H111.162C111.162 101.274 111.19 101.111 111.219 101.012C111.246 100.918 111.271 100.886 111.274 100.883L108.13 98.4097ZM107.162 101.523V106H111.162V101.523H107.162ZM109.162 104H106.269V108H109.162V104ZM108.269 106V96.625H104.269V106H108.269ZM106.269 98.625H109.162V94.625H106.269V98.625ZM107.162 96.625V98.2913H111.162V96.625H107.162ZM109.162 100.291H109.198V96.2913H109.162V100.291ZM111.074 98.9853C111.2 98.6454 111.318 98.5487 111.344 98.5293L108.975 95.3067C108.171 95.8976 107.649 96.7164 107.323 97.5972L111.074 98.9853ZM111.344 98.5293C111.374 98.5079 111.442 98.4602 111.652 98.4602V94.4602C110.702 94.4602 109.776 94.7177 108.975 95.3067L111.344 98.5293ZM111.652 98.4602C111.77 98.4602 111.863 98.4698 111.935 98.4829L112.651 94.5474C112.32 94.4872 111.986 94.4602 111.652 94.4602V98.4602ZM112.002 98.4939C112.053 98.5014 112.11 98.5157 112.173 98.5407L113.639 94.8191C113.3 94.6855 112.948 94.5899 112.584 94.5364L112.002 98.4939ZM110.969 96.1847L110.337 98.6567L114.212 99.6471L114.844 97.1751L110.969 96.1847ZM121.869 106V108C122.974 108 123.869 107.105 123.869 106H121.869ZM119.132 106H117.132C117.132 107.105 118.027 108 119.132 108V106ZM119.132 104.947H121.132C121.132 103.843 120.236 102.947 119.132 102.947V104.947ZM119.095 104.947V102.947C118.494 102.947 117.924 103.218 117.544 103.684L119.095 104.947ZM117.868 105.908L117.041 104.088L117.032 104.092L117.868 105.908ZM114.243 105.496L112.945 107.018L112.955 107.026L114.243 105.496ZM114.206 101.367L115.628 102.774L115.636 102.766L114.206 101.367ZM116.66 100.342L116.448 98.3533L116.446 98.3535L116.66 100.342ZM119.15 100.077L119.362 102.065C120.379 101.957 121.15 101.099 121.15 100.077H119.15ZM118.711 98.7582L117.453 100.313C117.459 100.318 117.464 100.322 117.469 100.326L118.711 98.7582ZM115.589 99.6096L114.563 101.327C115.474 101.87 116.65 101.609 117.245 100.731L115.589 99.6096ZM113.657 98.4561L111.961 97.3961C111.676 97.8518 111.587 98.4031 111.713 98.9255C111.839 99.448 112.17 99.8976 112.632 100.173L113.657 98.4561ZM115.268 97.0278L116.248 98.7714L116.259 98.7652L115.268 97.0278ZM120.844 97.394L119.443 98.8211L119.449 98.8273L120.844 97.394ZM119.15 101.834H121.15C121.15 101.27 120.912 100.732 120.494 100.353C120.076 99.9736 119.517 99.7888 118.955 99.8439L119.15 101.834ZM117.282 102.017L117.087 100.027C117.078 100.028 117.068 100.029 117.059 100.03L117.282 102.017ZM116.33 102.384L117.722 103.82L117.723 103.819L116.33 102.384ZM116.367 103.894L115.038 105.389C115.046 105.396 115.054 105.403 115.062 105.41L116.367 103.894ZM118.601 103.62L117.164 102.229L117.163 102.229L118.601 103.62ZM121.869 104H119.132V108H121.869V104ZM121.132 106V104.947H117.132V106H121.132ZM119.132 102.947H119.095V106.947H119.132V102.947ZM117.544 103.684C117.378 103.889 117.211 104.01 117.041 104.088L118.696 107.729C119.466 107.379 120.117 106.86 120.646 106.21L117.544 103.684ZM117.032 104.092C116.864 104.169 116.633 104.229 116.303 104.229V108.229C117.132 108.229 117.945 108.075 118.705 107.725L117.032 104.092ZM116.303 104.229C115.957 104.229 115.733 104.136 115.531 103.967L112.955 107.026C113.913 107.833 115.062 108.229 116.303 108.229V104.229ZM115.541 103.975C115.467 103.912 115.373 103.824 115.373 103.464H111.373C111.373 104.825 111.859 106.092 112.945 107.018L115.541 103.975ZM115.373 103.464C115.373 103.12 115.467 102.937 115.628 102.774L112.784 99.961C111.835 100.921 111.373 102.135 111.373 103.464H115.373ZM115.636 102.766C115.765 102.634 116.085 102.415 116.873 102.331L116.446 98.3535C115.074 98.5008 113.759 98.9652 112.777 99.9687L115.636 102.766ZM116.872 102.331L119.362 102.065L118.938 98.0878L116.448 98.3533L116.872 102.331ZM121.15 100.077V99.7927H117.15V100.077H121.15ZM121.15 99.7927C121.15 98.8759 120.832 97.8867 119.952 97.1901L117.469 100.326C117.353 100.234 117.257 100.107 117.199 99.9727C117.147 99.8495 117.15 99.7745 117.15 99.7927H121.15ZM119.968 97.2029C119.265 96.6347 118.438 96.4103 117.63 96.4103V100.41C117.669 100.41 117.657 100.415 117.612 100.401C117.564 100.385 117.506 100.356 117.453 100.313L119.968 97.2029ZM117.63 96.4103C116.875 96.4103 116.124 96.5898 115.443 97.0058L117.529 100.419C117.525 100.422 117.523 100.421 117.53 100.42C117.538 100.417 117.569 100.41 117.63 100.41V96.4103ZM115.443 97.0058C114.818 97.3876 114.324 97.9104 113.933 98.4885L117.245 100.731C117.391 100.515 117.494 100.44 117.529 100.419L115.443 97.0058ZM116.614 97.8925L114.682 96.7389L112.632 100.173L114.563 101.327L116.614 97.8925ZM115.353 99.5161C115.461 99.343 115.707 99.0755 116.248 98.7714L114.288 95.2843C113.353 95.8103 112.524 96.4949 111.961 97.3961L115.353 99.5161ZM116.259 98.7652C116.644 98.5455 117.163 98.3961 117.887 98.3961V94.3961C116.597 94.3961 115.369 94.6679 114.278 95.2905L116.259 98.7652ZM117.887 98.3961C118.851 98.3961 119.258 98.6398 119.443 98.8211L122.245 95.967C121.075 94.8177 119.51 94.3961 117.887 94.3961V98.3961ZM119.449 98.8273C119.612 98.9859 119.869 99.3794 119.869 100.397H123.869C123.869 98.7412 123.443 97.1328 122.239 95.9608L119.449 98.8273ZM119.869 100.397V106H123.869V100.397H119.869ZM121.15 102.191V101.834H117.15V102.191H121.15ZM118.955 99.8439L117.087 100.027L117.478 104.008L119.345 103.825L118.955 99.8439ZM117.059 100.03C116.415 100.103 115.59 100.315 114.938 100.948L117.723 103.819C117.593 103.945 117.478 103.997 117.437 104.012C117.4 104.027 117.414 104.015 117.506 104.005L117.059 100.03ZM114.939 100.947C114.274 101.591 114.037 102.414 114.037 103.162H118.037C118.037 103.193 118.033 103.291 117.982 103.425C117.929 103.566 117.841 103.705 117.722 103.82L114.939 100.947ZM114.037 103.162C114.037 104.028 114.393 104.816 115.038 105.389L117.696 102.399C117.776 102.471 117.872 102.585 117.944 102.744C118.015 102.903 118.037 103.052 118.037 103.162H114.037ZM115.062 105.41C115.701 105.96 116.465 106.178 117.2 106.178V102.178C117.22 102.178 117.289 102.181 117.385 102.214C117.485 102.248 117.586 102.304 117.672 102.379L115.062 105.41ZM117.2 106.178C118.251 106.178 119.259 105.816 120.038 105.01L117.163 102.229C117.166 102.226 117.175 102.217 117.191 102.206C117.208 102.196 117.225 102.187 117.24 102.181C117.255 102.175 117.262 102.174 117.258 102.174C117.254 102.175 117.235 102.178 117.2 102.178V106.178ZM120.038 105.01C120.799 104.224 121.15 103.233 121.15 102.191H117.15C117.15 102.228 117.147 102.25 117.146 102.26C117.144 102.269 117.143 102.268 117.146 102.261C117.149 102.253 117.153 102.244 117.159 102.236C117.164 102.228 117.167 102.225 117.164 102.229L120.038 105.01ZM138.861 106V108C139.966 108 140.861 107.105 140.861 106H138.861ZM135.978 106H133.978C133.978 107.105 134.873 108 135.978 108V106ZM135.602 99.1427L134.02 100.366C134.024 100.371 134.028 100.376 134.032 100.381L135.602 99.1427ZM133.313 99.2617L134.91 100.466C134.913 100.462 134.916 100.458 134.919 100.454L133.313 99.2617ZM132.865 106V108C133.969 108 134.865 107.105 134.865 106H132.865ZM129.972 106H127.972C127.972 107.105 128.867 108 129.972 108V106ZM127.307 99.2343L125.729 98.0064L125.726 98.0099L127.307 99.2343ZM126.868 106V108C127.973 108 128.868 107.105 128.868 106H126.868ZM123.975 106H121.975C121.975 107.105 122.87 108 123.975 108V106ZM123.975 96.625V94.625C122.87 94.625 121.975 95.5204 121.975 96.625H123.975ZM126.868 96.625H128.868C128.868 95.5204 127.973 94.625 126.868 94.625V96.625ZM126.868 97.7969H124.868C124.868 98.9014 125.763 99.7969 126.868 99.7969V97.7969ZM126.905 97.7969V99.7969C127.543 99.7969 128.142 99.4925 128.519 98.9775L126.905 97.7969ZM128.159 96.7898L127.289 94.9889L127.281 94.9928L128.159 96.7898ZM131.537 96.8081L130.508 98.5231C130.517 98.5285 130.526 98.5337 130.535 98.539L131.537 96.8081ZM132.553 97.8701L130.755 98.7445C131.051 99.3539 131.636 99.7719 132.308 99.855C132.981 99.9381 133.65 99.675 134.085 99.1561L132.553 97.8701ZM138.01 97.3574L136.506 98.6755L136.513 98.6835L138.01 97.3574ZM138.861 104H135.978V108H138.861V104ZM137.978 106V100.58H133.978V106H137.978ZM137.978 100.58C137.978 99.7359 137.823 98.7285 137.173 97.9044L134.032 100.381C133.952 100.28 133.94 100.214 133.949 100.245C133.958 100.28 133.978 100.383 133.978 100.58H137.978ZM137.184 97.919C136.47 96.9958 135.442 96.6575 134.476 96.6575V100.657C134.514 100.657 134.453 100.664 134.342 100.616C134.218 100.562 134.102 100.473 134.02 100.366L137.184 97.919ZM134.476 96.6575C133.328 96.6575 132.36 97.1905 131.708 98.0695L134.919 100.454C134.915 100.46 134.863 100.525 134.751 100.583C134.634 100.644 134.53 100.657 134.476 100.657V96.6575ZM131.716 98.0578C131.106 98.8677 130.865 99.8125 130.865 100.754H134.865C134.865 100.621 134.881 100.544 134.892 100.508C134.902 100.476 134.91 100.467 134.91 100.466L131.716 98.0578ZM130.865 100.754V106H134.865V100.754H130.865ZM132.865 104H129.972V108H132.865V104ZM131.972 106V100.598H127.972V106H131.972ZM131.972 100.598C131.972 99.7571 131.823 98.7609 131.202 97.9379L128.009 100.348C127.937 100.252 127.93 100.195 127.941 100.237C127.952 100.282 127.972 100.394 127.972 100.598H131.972ZM131.202 97.9379C130.496 97.0022 129.465 96.6575 128.498 96.6575V100.657C128.53 100.657 128.462 100.663 128.343 100.611C128.212 100.553 128.092 100.458 128.009 100.348L131.202 97.9379ZM128.498 96.6575C127.397 96.6575 126.413 97.1262 125.729 98.0064L128.886 100.462C128.867 100.486 128.807 100.55 128.702 100.601C128.597 100.652 128.516 100.657 128.498 100.657V96.6575ZM125.726 98.0099C125.076 98.85 124.868 99.8531 124.868 100.791H128.868C128.868 100.41 128.953 100.375 128.889 100.459L125.726 98.0099ZM124.868 100.791V106H128.868V100.791H124.868ZM126.868 104H123.975V108H126.868V104ZM125.975 106V96.625H121.975V106H125.975ZM123.975 98.625H126.868V94.625H123.975V98.625ZM124.868 96.625V97.7969H128.868V96.625H124.868ZM126.868 99.7969H126.905V95.7969H126.868V99.7969ZM128.519 98.9775C128.595 98.8741 128.739 98.7322 129.037 98.5867L127.281 94.9928C126.504 95.3723 125.813 95.9017 125.29 96.6162L128.519 98.9775ZM129.029 98.5906C129.315 98.4523 129.577 98.3961 129.834 98.3961V94.3961C128.944 94.3961 128.089 94.6024 127.289 94.989L129.029 98.5906ZM129.834 98.3961C130.246 98.3961 130.435 98.4789 130.508 98.5231L132.566 95.0931C131.724 94.588 130.778 94.3961 129.834 94.3961V98.3961ZM130.535 98.539C130.689 98.628 130.732 98.6982 130.755 98.7445L134.352 96.9957C133.947 96.1631 133.313 95.5253 132.539 95.0773L130.535 98.539ZM134.085 99.1561C134.323 98.8727 134.565 98.6971 134.811 98.5866L133.171 94.9381C132.33 95.3159 131.614 95.8787 131.022 96.5842L134.085 99.1561ZM134.811 98.5866C135.067 98.4712 135.388 98.3961 135.804 98.3961V94.3961C134.889 94.3961 134.001 94.5652 133.171 94.9381L134.811 98.5866ZM135.804 98.3961C136.181 98.3961 136.352 98.5 136.506 98.6754L139.514 96.0394C138.545 94.9331 137.245 94.3961 135.804 94.3961V98.3961ZM136.513 98.6835C136.639 98.826 136.861 99.2117 136.861 100.168H140.861C140.861 98.6587 140.516 97.1705 139.507 96.0314L136.513 98.6835ZM136.861 100.168V106H140.861V100.168H136.861Z" fill="black" fill-opacity="0.25" mask="url(#path-7-outside-1_3913_124)"/>
</g>
<defs>
<filter id="filter0_dd_3913_124" x="53.8115" y="85.1206" width="90.5498" height="34.7831" filterUnits="userSpaceOnUse" color-interpolation-filters="sRGB">
<feFlood flood-opacity="0" result="BackgroundImageFix"/>
<feColorMatrix in="SourceAlpha" type="matrix" values="0 0 0 0 0 0 0 0 0 0 0 0 0 0 0 0 0 0 127 0" result="hardAlpha"/>
<feOffset dy="4"/>
<feGaussianBlur stdDeviation="2.75"/>
<feComposite in2="hardAlpha" operator="out"/>
<feColorMatrix type="matrix" values="0 0 0 0 0 0 0 0 0 0 0 0 0 0 0 0 0 0 0.25 0"/>
<feBlend mode="normal" in2="BackgroundImageFix" result="effect1_dropShadow_3913_124"/>
<feColorMatrix in="SourceAlpha" type="matrix" values="0 0 0 0 0 0 0 0 0 0 0 0 0 0 0 0 0 0 127 0" result="hardAlpha"/>
<feOffset dy="-3"/>
<feGaussianBlur stdDeviation="2"/>
<feComposite in2="hardAlpha" operator="out"/>
<feColorMatrix type="matrix" values="0 0 0 0 0.991623 0 0 0 0 0.991623 0 0 0 0 0.991623 0 0 0 0.2 0"/>
<feBlend mode="normal" in2="effect1_dropShadow_3913_124" result="effect2_dropShadow_3913_124"/>
<feBlend mode="normal" in="SourceGraphic" in2="effect2_dropShadow_3913_124" result="shape"/>
</filter>
<linearGradient id="paint0_linear_3913_124" x1="99" y1="80" x2="99" y2="12" gradientUnits="userSpaceOnUse">
<stop stop-color="#1D93D2"/>
<stop offset="1" stop-color="#38B0E3"/>
</linearGradient>
</defs>
</svg>
