<svg width="198" height="128" viewBox="0 0 198 128" fill="none" xmlns="http://www.w3.org/2000/svg">
<g clip-path="url(#clip0_3913_124)">
<rect width="198" height="128" fill="#32A9DF"/>
<rect x="63.2241" y="8.5" width="71" height="71" rx="35.5" stroke="black" stroke-opacity="0.1" stroke-width="3"/>
<path d="M98.7241 78C117.502 78 132.724 62.7777 132.724 44C132.724 25.2223 117.502 10 98.7241 10C79.9464 10 64.7241 25.2223 64.7241 44C64.7241 62.7777 79.9464 78 98.7241 78Z" fill="url(#paint0_linear_3913_124)"/>
<path d="M87.7393 46.4854L91.7731 57.6504C91.7731 57.6504 92.2774 58.6951 92.8174 58.6951C93.3575 58.6951 101.39 50.339 101.39 50.339L110.322 33.0869L87.8832 43.6033L87.7393 46.4854Z" fill="#C8DAEA"/>
<path d="M93.0877 49.3488L92.3134 57.5785C92.3134 57.5785 91.9892 60.1001 94.5103 57.5785C97.0314 55.0568 99.4446 53.1123 99.4446 53.1123" fill="#A9C6D8"/>
<path d="M87.8117 46.8838L79.514 44.1802C79.514 44.1802 78.5224 43.7779 78.8417 42.8655C78.9074 42.6774 79.04 42.5173 79.4367 42.2422C81.2752 40.9607 113.467 29.3902 113.467 29.3902C113.467 29.3902 114.376 29.0839 114.912 29.2876C115.044 29.3287 115.164 29.4042 115.257 29.5065C115.351 29.6088 115.416 29.7342 115.446 29.8699C115.504 30.1095 115.528 30.356 115.518 30.6023C115.515 30.8154 115.489 31.0128 115.47 31.3225C115.274 34.4859 109.407 58.0955 109.407 58.0955C109.407 58.0955 109.055 59.4771 107.798 59.5244C107.489 59.5344 107.181 59.482 106.892 59.3705C106.604 59.2589 106.341 59.0904 106.119 58.875C103.651 56.752 95.1203 51.019 93.2353 49.7582C93.1928 49.7292 93.157 49.6915 93.1303 49.6475C93.1036 49.6035 93.0866 49.5543 93.0806 49.5032C93.0542 49.3703 93.1987 49.2057 93.1987 49.2057C93.1987 49.2057 108.053 36.0023 108.448 34.6163C108.479 34.5089 108.363 34.4559 108.208 34.5029C107.221 34.8659 90.1186 45.6663 88.2311 46.8583C88.0952 46.8994 87.9516 46.9081 87.8117 46.8838Z" fill="white"/>
<g filter="url(#filter0_dd_3913_124)">
<mask id="path-7-outside-1_3913_124" maskUnits="userSpaceOnUse" x="39" y="88" width="118" height="32" fill="black">
<rect fill="white" x="39" y="88" width="118" height="32"/>
<path d="M56.4324 95.9908H51.5105V111H47.3577V95.9908H42.4358V92.6199H56.4324V95.9908ZM68.0065 105.591H59.4445C59.5043 106.437 59.7948 107.112 60.316 107.616C60.8458 108.112 61.538 108.36 62.3925 108.36C62.9137 108.36 63.3879 108.231 63.8152 107.975C64.251 107.719 64.6398 107.334 64.9816 106.822L67.9552 108.513C67.2032 109.488 66.3616 110.201 65.4302 110.654C64.4988 111.098 63.4648 111.32 62.3284 111.32C60.158 111.32 58.4661 110.735 57.2527 109.564C56.0393 108.385 55.4326 106.745 55.4326 104.643C55.4326 102.464 56.0649 100.738 57.3296 99.4644C58.5942 98.1912 60.1494 97.5546 61.9951 97.5546C63.9092 97.5546 65.3875 98.1228 66.4299 99.2593C67.481 100.396 68.0065 102.105 68.0065 104.386V105.591ZM64.251 103.028C64.251 102.13 64.0587 101.46 63.6742 101.015C63.2982 100.562 62.7898 100.336 62.1489 100.336C61.3799 100.336 60.7561 100.592 60.2776 101.105C59.8076 101.618 59.5214 102.259 59.4188 103.028H64.251ZM70.493 111V91.5688H74.5433V111H70.493ZM89.4884 105.591H80.9264C80.9862 106.437 81.2767 107.112 81.798 107.616C82.3278 108.112 83.0199 108.36 83.8744 108.36C84.3956 108.36 84.8699 108.231 85.2971 107.975C85.7329 107.719 86.1217 107.334 86.4635 106.822L89.4371 108.513C88.6852 109.488 87.8435 110.201 86.9121 110.654C85.9807 111.098 84.9468 111.32 83.8103 111.32C81.6399 111.32 79.948 110.735 78.7346 109.564C77.5212 108.385 76.9146 106.745 76.9146 104.643C76.9146 102.464 77.5469 100.738 78.8115 99.4644C80.0762 98.1912 81.6313 97.5546 83.4771 97.5546C85.3911 97.5546 86.8694 98.1228 87.9119 99.2593C88.9629 100.396 89.4884 102.105 89.4884 104.386V105.591ZM85.7329 103.028C85.7329 102.13 85.5406 101.46 85.1561 101.015C84.7802 100.562 84.2717 100.336 83.6309 100.336C82.8618 100.336 82.238 100.592 81.7595 101.105C81.2896 101.618 81.0033 102.259 80.9008 103.028H85.7329ZM105.049 109.911C105.049 112.166 104.382 113.939 103.049 115.23C101.725 116.52 99.8705 117.165 97.4865 117.165C96.0082 117.165 94.7692 116.913 93.7694 116.409C92.7782 115.913 91.9579 115.225 91.3085 114.345L94.1155 112.307C94.5256 112.897 94.9913 113.354 95.5126 113.679C96.0424 114.012 96.7217 114.179 97.5505 114.179C98.6101 114.179 99.4475 113.863 100.063 113.23C100.687 112.606 100.998 111.714 100.998 110.551V109.526H100.947C100.477 110.124 99.8918 110.573 99.1912 110.872C98.499 111.171 97.6873 111.32 96.7559 111.32C95.1836 111.32 93.8634 110.756 92.7953 109.629C91.7272 108.492 91.1931 106.886 91.1931 104.809C91.1931 102.494 91.8169 100.708 93.0645 99.4515C94.312 98.1869 95.786 97.5546 97.4865 97.5546C98.1444 97.5546 98.7853 97.6827 99.4091 97.9391C100.033 98.1954 100.546 98.58 100.947 99.0927H100.998V97.875H105.049V109.911ZM101.05 104.694V103.656C101.05 102.844 100.789 102.152 100.268 101.579C99.7466 100.998 99.0758 100.708 98.2555 100.708C97.3326 100.708 96.6106 101.054 96.0894 101.746C95.5681 102.438 95.3075 103.391 95.3075 104.604C95.3075 105.724 95.551 106.599 96.0381 107.232C96.5251 107.855 97.2344 108.167 98.1658 108.167C98.9604 108.167 99.6398 107.86 100.204 107.245C100.768 106.629 101.05 105.779 101.05 104.694ZM116.584 101.413C116.302 101.319 116.025 101.25 115.751 101.208C115.478 101.156 115.209 101.131 114.944 101.131C114.141 101.131 113.487 101.455 112.983 102.105C112.479 102.746 112.226 103.621 112.226 104.732V111H108.176V97.875H112.226V100.208H112.278C112.594 99.3533 113.042 98.7124 113.624 98.2852C114.205 97.8579 114.901 97.6443 115.713 97.6443C116.029 97.6443 116.328 97.6699 116.61 97.7212C116.901 97.7639 117.187 97.8408 117.469 97.9519L116.584 101.413ZM130.017 111H126.185V109.526H126.133C125.646 110.124 125.074 110.573 124.416 110.872C123.766 111.171 123.036 111.32 122.224 111.32C121.113 111.32 120.152 110.979 119.34 110.295C118.528 109.603 118.122 108.654 118.122 107.45C118.122 106.279 118.511 105.301 119.289 104.514C120.066 103.72 121.211 103.241 122.724 103.079L126.21 102.707V102.31C126.21 101.669 126.005 101.186 125.595 100.861C125.193 100.537 124.689 100.374 124.083 100.374C123.476 100.374 122.942 100.515 122.48 100.797C122.019 101.079 121.6 101.498 121.224 102.053L118.52 100.438C118.99 99.6865 119.742 99.02 120.776 98.439C121.81 97.8494 123.031 97.5546 124.441 97.5546C126.253 97.5546 127.633 98.0203 128.581 98.9517C129.538 99.8831 130.017 101.284 130.017 103.156V111ZM126.21 105.668V105.168L123.595 105.424C122.989 105.493 122.544 105.664 122.262 105.937C121.989 106.202 121.852 106.565 121.852 107.027C121.852 107.437 122.006 107.779 122.314 108.052C122.621 108.317 123.01 108.449 123.48 108.449C124.283 108.449 124.937 108.189 125.441 107.667C125.954 107.138 126.21 106.471 126.21 105.668ZM153.806 111H149.769V103.412C149.769 102.515 149.593 101.844 149.243 101.4C148.893 100.947 148.367 100.72 147.667 100.72C147 100.72 146.457 101.002 146.039 101.566C145.62 102.122 145.411 102.818 145.411 103.656V111H141.36V103.438C141.36 102.532 141.189 101.853 140.848 101.4C140.506 100.947 139.989 100.72 139.297 100.72C138.605 100.72 138.049 100.99 137.63 101.528C137.22 102.058 137.015 102.784 137.015 103.707V111H132.965V97.875H137.015V99.5156H137.067C137.485 98.9431 138.071 98.4731 138.823 98.1057C139.583 97.7383 140.365 97.5546 141.168 97.5546C142.117 97.5546 142.911 97.7468 143.552 98.1313C144.202 98.5073 144.676 99.0029 144.975 99.6182C145.556 98.926 146.227 98.4091 146.987 98.0673C147.748 97.7255 148.594 97.5546 149.525 97.5546C150.798 97.5546 151.828 98.0032 152.614 98.9004C153.409 99.7976 153.806 101.109 153.806 102.835V111Z"/>
</mask>
<path d="M56.4324 95.9908H51.5105V111H47.3577V95.9908H42.4358V92.6199H56.4324V95.9908ZM68.0065 105.591H59.4445C59.5043 106.437 59.7948 107.112 60.316 107.616C60.8458 108.112 61.538 108.36 62.3925 108.36C62.9137 108.36 63.3879 108.231 63.8152 107.975C64.251 107.719 64.6398 107.334 64.9816 106.822L67.9552 108.513C67.2032 109.488 66.3616 110.201 65.4302 110.654C64.4988 111.098 63.4648 111.32 62.3284 111.32C60.158 111.32 58.4661 110.735 57.2527 109.564C56.0393 108.385 55.4326 106.745 55.4326 104.643C55.4326 102.464 56.0649 100.738 57.3296 99.4644C58.5942 98.1912 60.1494 97.5546 61.9951 97.5546C63.9092 97.5546 65.3875 98.1228 66.4299 99.2593C67.481 100.396 68.0065 102.105 68.0065 104.386V105.591ZM64.251 103.028C64.251 102.13 64.0587 101.46 63.6742 101.015C63.2982 100.562 62.7898 100.336 62.1489 100.336C61.3799 100.336 60.7561 100.592 60.2776 101.105C59.8076 101.618 59.5214 102.259 59.4188 103.028H64.251ZM70.493 111V91.5688H74.5433V111H70.493ZM89.4884 105.591H80.9264C80.9862 106.437 81.2767 107.112 81.798 107.616C82.3278 108.112 83.0199 108.36 83.8744 108.36C84.3956 108.36 84.8699 108.231 85.2971 107.975C85.7329 107.719 86.1217 107.334 86.4635 106.822L89.4371 108.513C88.6852 109.488 87.8435 110.201 86.9121 110.654C85.9807 111.098 84.9468 111.32 83.8103 111.32C81.6399 111.32 79.948 110.735 78.7346 109.564C77.5212 108.385 76.9146 106.745 76.9146 104.643C76.9146 102.464 77.5469 100.738 78.8115 99.4644C80.0762 98.1912 81.6313 97.5546 83.4771 97.5546C85.3911 97.5546 86.8694 98.1228 87.9119 99.2593C88.9629 100.396 89.4884 102.105 89.4884 104.386V105.591ZM85.7329 103.028C85.7329 102.13 85.5406 101.46 85.1561 101.015C84.7802 100.562 84.2717 100.336 83.6309 100.336C82.8618 100.336 82.238 100.592 81.7595 101.105C81.2896 101.618 81.0033 102.259 80.9008 103.028H85.7329ZM105.049 109.911C105.049 112.166 104.382 113.939 103.049 115.23C101.725 116.52 99.8705 117.165 97.4865 117.165C96.0082 117.165 94.7692 116.913 93.7694 116.409C92.7782 115.913 91.9579 115.225 91.3085 114.345L94.1155 112.307C94.5256 112.897 94.9913 113.354 95.5126 113.679C96.0424 114.012 96.7217 114.179 97.5505 114.179C98.6101 114.179 99.4475 113.863 100.063 113.23C100.687 112.606 100.998 111.714 100.998 110.551V109.526H100.947C100.477 110.124 99.8918 110.573 99.1912 110.872C98.499 111.171 97.6873 111.32 96.7559 111.32C95.1836 111.32 93.8634 110.756 92.7953 109.629C91.7272 108.492 91.1931 106.886 91.1931 104.809C91.1931 102.494 91.8169 100.708 93.0645 99.4515C94.312 98.1869 95.786 97.5546 97.4865 97.5546C98.1444 97.5546 98.7853 97.6827 99.4091 97.9391C100.033 98.1954 100.546 98.58 100.947 99.0927H100.998V97.875H105.049V109.911ZM101.05 104.694V103.656C101.05 102.844 100.789 102.152 100.268 101.579C99.7466 100.998 99.0758 100.708 98.2555 100.708C97.3326 100.708 96.6106 101.054 96.0894 101.746C95.5681 102.438 95.3075 103.391 95.3075 104.604C95.3075 105.724 95.551 106.599 96.0381 107.232C96.5251 107.855 97.2344 108.167 98.1658 108.167C98.9604 108.167 99.6398 107.86 100.204 107.245C100.768 106.629 101.05 105.779 101.05 104.694ZM116.584 101.413C116.302 101.319 116.025 101.25 115.751 101.208C115.478 101.156 115.209 101.131 114.944 101.131C114.141 101.131 113.487 101.455 112.983 102.105C112.479 102.746 112.226 103.621 112.226 104.732V111H108.176V97.875H112.226V100.208H112.278C112.594 99.3533 113.042 98.7124 113.624 98.2852C114.205 97.8579 114.901 97.6443 115.713 97.6443C116.029 97.6443 116.328 97.6699 116.61 97.7212C116.901 97.7639 117.187 97.8408 117.469 97.9519L116.584 101.413ZM130.017 111H126.185V109.526H126.133C125.646 110.124 125.074 110.573 124.416 110.872C123.766 111.171 123.036 111.32 122.224 111.32C121.113 111.32 120.152 110.979 119.34 110.295C118.528 109.603 118.122 108.654 118.122 107.45C118.122 106.279 118.511 105.301 119.289 104.514C120.066 103.72 121.211 103.241 122.724 103.079L126.21 102.707V102.31C126.21 101.669 126.005 101.186 125.595 100.861C125.193 100.537 124.689 100.374 124.083 100.374C123.476 100.374 122.942 100.515 122.48 100.797C122.019 101.079 121.6 101.498 121.224 102.053L118.52 100.438C118.99 99.6865 119.742 99.02 120.776 98.439C121.81 97.8494 123.031 97.5546 124.441 97.5546C126.253 97.5546 127.633 98.0203 128.581 98.9517C129.538 99.8831 130.017 101.284 130.017 103.156V111ZM126.21 105.668V105.168L123.595 105.424C122.989 105.493 122.544 105.664 122.262 105.937C121.989 106.202 121.852 106.565 121.852 107.027C121.852 107.437 122.006 107.779 122.314 108.052C122.621 108.317 123.01 108.449 123.48 108.449C124.283 108.449 124.937 108.189 125.441 107.667C125.954 107.138 126.21 106.471 126.21 105.668ZM153.806 111H149.769V103.412C149.769 102.515 149.593 101.844 149.243 101.4C148.893 100.947 148.367 100.72 147.667 100.72C147 100.72 146.457 101.002 146.039 101.566C145.62 102.122 145.411 102.818 145.411 103.656V111H141.36V103.438C141.36 102.532 141.189 101.853 140.848 101.4C140.506 100.947 139.989 100.72 139.297 100.72C138.605 100.72 138.049 100.99 137.63 101.528C137.22 102.058 137.015 102.784 137.015 103.707V111H132.965V97.875H137.015V99.5156H137.067C137.485 98.9431 138.071 98.4731 138.823 98.1057C139.583 97.7383 140.365 97.5546 141.168 97.5546C142.117 97.5546 142.911 97.7468 143.552 98.1313C144.202 98.5073 144.676 99.0029 144.975 99.6182C145.556 98.926 146.227 98.4091 146.987 98.0673C147.748 97.7255 148.594 97.5546 149.525 97.5546C150.798 97.5546 151.828 98.0032 152.614 98.9004C153.409 99.7976 153.806 101.109 153.806 102.835V111Z" fill="white" shape-rendering="crispEdges"/>
<path d="M56.4324 95.9908V98.7908C57.9788 98.7908 59.2324 97.5372 59.2324 95.9908H56.4324ZM51.5105 95.9908V93.1908C49.9641 93.1908 48.7105 94.4444 48.7105 95.9908H51.5105ZM51.5105 111V113.8C53.0569 113.8 54.3105 112.546 54.3105 111H51.5105ZM47.3577 111H44.5577C44.5577 112.546 45.8113 113.8 47.3577 113.8V111ZM47.3577 95.9908H50.1577C50.1577 94.4444 48.9041 93.1908 47.3577 93.1908V95.9908ZM42.4358 95.9908H39.6358C39.6358 97.5372 40.8894 98.7908 42.4358 98.7908V95.9908ZM42.4358 92.6199V89.8199C40.8894 89.8199 39.6358 91.0735 39.6358 92.6199H42.4358ZM56.4324 92.6199H59.2324C59.2324 91.0735 57.9788 89.8199 56.4324 89.8199V92.6199ZM56.4324 93.1908H51.5105V98.7908H56.4324V93.1908ZM48.7105 95.9908V111H54.3105V95.9908H48.7105ZM51.5105 108.2H47.3577V113.8H51.5105V108.2ZM50.1577 111V95.9908H44.5577V111H50.1577ZM47.3577 93.1908H42.4358V98.7908H47.3577V93.1908ZM45.2358 95.9908V92.6199H39.6358V95.9908H45.2358ZM42.4358 95.4199H56.4324V89.8199H42.4358V95.4199ZM53.6324 92.6199V95.9908H59.2324V92.6199H53.6324ZM68.0065 105.591V108.391C69.5529 108.391 70.8065 107.137 70.8065 105.591H68.0065ZM59.4445 105.591V102.791C58.6675 102.791 57.9256 103.114 57.3959 103.682C56.8663 104.251 56.5966 105.014 56.6514 105.789L59.4445 105.591ZM60.316 107.616L58.3694 109.629C58.3806 109.64 58.3918 109.65 58.4032 109.661L60.316 107.616ZM63.8152 107.975L62.3955 105.562C62.3885 105.566 62.3816 105.57 62.3746 105.574L63.8152 107.975ZM64.9816 106.822L66.3662 104.388C65.0889 103.661 63.467 104.046 62.6518 105.268L64.9816 106.822ZM67.9552 108.513L70.1717 110.224C70.6671 109.583 70.86 108.757 70.7005 107.962C70.5409 107.168 70.0446 106.481 69.3399 106.08L67.9552 108.513ZM65.4302 110.654L66.6358 113.181C66.6421 113.178 66.6483 113.175 66.6546 113.172L65.4302 110.654ZM57.2527 109.564L55.3013 111.572L55.3086 111.58L57.2527 109.564ZM66.4299 99.2593L64.3665 101.152L64.3743 101.16L66.4299 99.2593ZM64.251 103.028V105.828C65.7974 105.828 67.051 104.574 67.051 103.028H64.251ZM63.6742 101.015L61.5198 102.804C61.5321 102.818 61.5444 102.833 61.5569 102.848L63.6742 101.015ZM60.2776 101.105L58.2306 99.1945C58.2249 99.2006 58.2192 99.2068 58.2136 99.213L60.2776 101.105ZM59.4188 103.028L56.6434 102.658C56.5367 103.458 56.7805 104.265 57.3121 104.872C57.8438 105.479 58.6117 105.828 59.4188 105.828V103.028ZM68.0065 102.791H59.4445V108.391H68.0065V102.791ZM56.6514 105.789C56.7512 107.199 57.2693 108.565 58.3694 109.629L62.2627 105.604C62.2643 105.605 62.2693 105.611 62.2747 105.618C62.2801 105.626 62.2811 105.63 62.2791 105.625C62.2756 105.617 62.2486 105.551 62.2375 105.394L56.6514 105.789ZM58.4032 109.661C59.5423 110.727 60.9623 111.16 62.3925 111.16V105.56C62.3139 105.56 62.2593 105.554 62.225 105.548C62.1912 105.543 62.1765 105.538 62.1763 105.538C62.176 105.538 62.1783 105.538 62.1827 105.54C62.1872 105.543 62.1928 105.546 62.1991 105.549C62.2128 105.558 62.2232 105.566 62.2289 105.571L58.4032 109.661ZM62.3925 111.16C63.3967 111.16 64.3729 110.906 65.2558 110.376L62.3746 105.574C62.3758 105.573 62.3802 105.571 62.3874 105.568C62.3946 105.565 62.4019 105.562 62.4085 105.56C62.4151 105.559 62.4183 105.558 62.417 105.559C62.4156 105.559 62.4078 105.56 62.3925 105.56V111.16ZM65.2348 110.389C66.106 109.876 66.7854 109.164 67.3113 108.375L62.6518 105.268C62.4941 105.505 62.3959 105.561 62.3955 105.562L65.2348 110.389ZM63.5969 109.255L66.5705 110.947L69.3399 106.08L66.3662 104.388L63.5969 109.255ZM65.7387 106.802C65.2015 107.498 64.6821 107.904 64.2058 108.136L66.6546 113.172C68.0411 112.498 69.205 111.477 70.1717 110.224L65.7387 106.802ZM64.2246 108.127C63.7065 108.374 63.0904 108.52 62.3284 108.52V114.12C63.8393 114.12 65.2911 113.823 66.6358 113.181L64.2246 108.127ZM62.3284 108.52C60.6665 108.52 59.7507 108.084 59.1968 107.549L55.3086 111.58C57.1814 113.386 59.6494 114.12 62.3284 114.12V108.52ZM59.2041 107.556C58.6587 107.026 58.2326 106.183 58.2326 104.643H52.6326C52.6326 107.306 53.4199 109.744 55.3013 111.572L59.2041 107.556ZM58.2326 104.643C58.2326 103.034 58.6804 102.078 59.3161 101.438L55.343 97.4911C53.4494 99.3975 52.6326 101.893 52.6326 104.643H58.2326ZM59.3161 101.438C60.0386 100.71 60.8715 100.355 61.9951 100.355V94.7546C59.4274 94.7546 57.1499 95.6721 55.343 97.4911L59.3161 101.438ZM61.9951 100.355C63.3277 100.355 63.9777 100.728 64.3665 101.152L68.4933 97.3665C66.7972 95.5175 64.4906 94.7546 61.9951 94.7546V100.355ZM64.3743 101.16C64.7626 101.58 65.2065 102.481 65.2065 104.386H70.8065C70.8065 101.728 70.1993 99.2112 68.4856 97.3582L64.3743 101.16ZM65.2065 104.386V105.591H70.8065V104.386H65.2065ZM67.051 103.028C67.051 101.798 66.7973 100.345 65.7915 99.183L61.5569 102.848C61.4377 102.71 61.4104 102.606 61.4152 102.623C61.4179 102.633 61.4273 102.669 61.4357 102.738C61.4442 102.807 61.451 102.902 61.451 103.028H67.051ZM65.8285 99.2267C64.8692 98.0711 63.5386 97.5359 62.1489 97.5359V103.136C62.136 103.136 62.0264 103.132 61.8717 103.064C61.7104 102.992 61.5904 102.889 61.5198 102.804L65.8285 99.2267ZM62.1489 97.5359C60.6871 97.5359 59.293 98.0562 58.2306 99.1945L62.3245 103.015C62.3157 103.025 62.2963 103.044 62.2658 103.065C62.235 103.086 62.2015 103.105 62.1686 103.118C62.0988 103.147 62.0786 103.136 62.1489 103.136V97.5359ZM58.2136 99.213C57.3121 100.196 56.8126 101.389 56.6434 102.658L62.1943 103.398C62.2302 103.128 62.3031 103.039 62.3416 102.997L58.2136 99.213ZM59.4188 105.828H64.251V100.228H59.4188V105.828ZM70.493 111H67.693C67.693 112.546 68.9466 113.8 70.493 113.8V111ZM70.493 91.5688V88.7688C68.9466 88.7688 67.693 90.0225 67.693 91.5688H70.493ZM74.5433 91.5688H77.3433C77.3433 90.0225 76.0897 88.7688 74.5433 88.7688V91.5688ZM74.5433 111V113.8C76.0897 113.8 77.3433 112.546 77.3433 111H74.5433ZM73.293 111V91.5688H67.693V111H73.293ZM70.493 94.3688H74.5433V88.7688H70.493V94.3688ZM71.7433 91.5688V111H77.3433V91.5688H71.7433ZM74.5433 108.2H70.493V113.8H74.5433V108.2ZM89.4884 105.591V108.391C91.0348 108.391 92.2884 107.137 92.2884 105.591H89.4884ZM80.9264 105.591V102.791C80.1495 102.791 79.4075 103.114 78.8779 103.682C78.3482 104.251 78.0786 105.014 78.1334 105.789L80.9264 105.591ZM81.798 107.616L79.8513 109.629C79.8625 109.64 79.8738 109.65 79.8851 109.661L81.798 107.616ZM85.2971 107.975L83.8775 105.562C83.8705 105.566 83.8635 105.57 83.8565 105.574L85.2971 107.975ZM86.4635 106.822L87.8482 104.388C86.5708 103.661 84.949 104.046 84.1338 105.268L86.4635 106.822ZM89.4371 108.513L91.6536 110.224C92.149 109.583 92.3419 108.757 92.1824 107.962C92.0229 107.168 91.5265 106.481 90.8218 106.08L89.4371 108.513ZM86.9121 110.654L88.1177 113.181C88.124 113.178 88.1303 113.175 88.1365 113.172L86.9121 110.654ZM78.7346 109.564L76.7832 111.572L76.7905 111.58L78.7346 109.564ZM87.9119 99.2593L85.8485 101.152L85.8562 101.16L87.9119 99.2593ZM85.7329 103.028V105.828C87.2793 105.828 88.5329 104.574 88.5329 103.028H85.7329ZM85.1561 101.015L83.0018 102.804C83.014 102.818 83.0263 102.833 83.0389 102.848L85.1561 101.015ZM81.7595 101.105L79.7126 99.1945C79.7068 99.2006 79.7012 99.2068 79.6955 99.213L81.7595 101.105ZM80.9008 103.028L78.1253 102.658C78.0186 103.458 78.2624 104.265 78.7941 104.872C79.3258 105.479 80.0936 105.828 80.9008 105.828V103.028ZM89.4884 102.791H80.9264V108.391H89.4884V102.791ZM78.1334 105.789C78.2331 107.199 78.7513 108.565 79.8513 109.629L83.7446 105.604C83.7463 105.605 83.7512 105.611 83.7566 105.618C83.762 105.626 83.7631 105.63 83.7611 105.625C83.7575 105.617 83.7305 105.551 83.7194 105.394L78.1334 105.789ZM79.8851 109.661C81.0243 110.727 82.4442 111.16 83.8744 111.16V105.56C83.7959 105.56 83.7412 105.554 83.7069 105.548C83.6731 105.543 83.6584 105.538 83.6582 105.538C83.6579 105.538 83.6602 105.538 83.6647 105.54C83.6691 105.543 83.6748 105.546 83.6811 105.549C83.6947 105.558 83.7051 105.566 83.7108 105.571L79.8851 109.661ZM83.8744 111.16C84.8786 111.16 85.8548 110.906 86.7377 110.376L83.8565 105.574C83.8578 105.573 83.8622 105.571 83.8693 105.568C83.8765 105.565 83.8839 105.562 83.8905 105.56C83.897 105.559 83.9002 105.558 83.8989 105.559C83.8976 105.559 83.8897 105.56 83.8744 105.56V111.16ZM86.7168 110.389C87.588 109.876 88.2673 109.164 88.7932 108.375L84.1338 105.268C83.9761 105.505 83.8779 105.561 83.8775 105.562L86.7168 110.389ZM85.0788 109.255L88.0525 110.947L90.8218 106.08L87.8482 104.388L85.0788 109.255ZM87.2207 106.802C86.6834 107.498 86.164 107.904 85.6877 108.136L88.1365 113.172C89.523 112.498 90.6869 111.477 91.6536 110.224L87.2207 106.802ZM85.7065 108.127C85.1884 108.374 84.5724 108.52 83.8103 108.52V114.12C85.3212 114.12 86.773 113.823 88.1177 113.181L85.7065 108.127ZM83.8103 108.52C82.1484 108.52 81.2326 108.084 80.6787 107.549L76.7905 111.58C78.6634 113.386 81.1314 114.12 83.8103 114.12V108.52ZM80.686 107.556C80.1406 107.026 79.7146 106.183 79.7146 104.643H74.1146C74.1146 107.306 74.9019 109.744 76.7832 111.572L80.686 107.556ZM79.7146 104.643C79.7146 103.034 80.1624 102.078 80.7981 101.438L76.825 97.4911C74.9314 99.3975 74.1146 101.893 74.1146 104.643H79.7146ZM80.7981 101.438C81.5205 100.71 82.3534 100.355 83.4771 100.355V94.7546C80.9093 94.7546 78.6318 95.6721 76.825 97.4911L80.7981 101.438ZM83.4771 100.355C84.8097 100.355 85.4596 100.728 85.8485 101.152L89.9753 97.3665C88.2792 95.5175 85.9726 94.7546 83.4771 94.7546V100.355ZM85.8562 101.16C86.2446 101.58 86.6884 102.481 86.6884 104.386H92.2884C92.2884 101.728 91.6812 99.2112 89.9675 97.3582L85.8562 101.16ZM86.6884 104.386V105.591H92.2884V104.386H86.6884ZM88.5329 103.028C88.5329 101.798 88.2792 100.345 87.2734 99.183L83.0389 102.848C82.9196 102.71 82.8923 102.606 82.8971 102.623C82.8999 102.633 82.9092 102.669 82.9177 102.738C82.9261 102.807 82.9329 102.902 82.9329 103.028H88.5329ZM87.3105 99.2267C86.3511 98.0711 85.0205 97.5359 83.6309 97.5359V103.136C83.6179 103.136 83.5083 103.132 83.3536 103.064C83.1923 102.992 83.0724 102.889 83.0018 102.804L87.3105 99.2267ZM83.6309 97.5359C82.1691 97.5359 80.7749 98.0562 79.7126 99.1945L83.8065 103.015C83.7976 103.025 83.7783 103.044 83.7478 103.065C83.717 103.086 83.6834 103.105 83.6506 103.118C83.5807 103.147 83.5605 103.136 83.6309 103.136V97.5359ZM79.6955 99.213C78.794 100.196 78.2945 101.389 78.1253 102.658L83.6762 103.398C83.7121 103.128 83.7851 103.039 83.8236 102.997L79.6955 99.213ZM80.9008 105.828H85.7329V100.228H80.9008V105.828ZM103.049 115.23L101.102 113.218L101.095 113.224L103.049 115.23ZM93.7694 116.409L95.0302 113.909L95.0216 113.905L93.7694 116.409ZM91.3085 114.345L89.6634 112.08C89.0595 112.518 88.6556 113.179 88.5414 113.917C88.4273 114.655 88.6123 115.407 89.0554 116.008L91.3085 114.345ZM94.1155 112.307L96.414 110.708C95.9843 110.091 95.3242 109.672 94.5823 109.547C93.8404 109.421 93.0793 109.6 92.4704 110.042L94.1155 112.307ZM95.5126 113.679L97.0035 111.309L96.9931 111.302L95.5126 113.679ZM100.063 113.23L98.0828 111.25C98.0738 111.259 98.0648 111.268 98.0559 111.278L100.063 113.23ZM100.998 109.526H103.798C103.798 107.98 102.545 106.726 100.998 106.726V109.526ZM100.947 109.526V106.726C100.088 106.726 99.2763 107.12 98.7455 107.796L100.947 109.526ZM99.1912 110.872L98.092 108.297L98.0805 108.302L99.1912 110.872ZM92.7953 109.629L90.755 111.546L90.7622 111.554L92.7953 109.629ZM93.0645 99.4515L95.0511 101.425L95.0578 101.418L93.0645 99.4515ZM100.947 99.0927L98.7429 100.819C99.2736 101.497 100.086 101.893 100.947 101.893V99.0927ZM100.998 99.0927V101.893C102.545 101.893 103.798 100.639 103.798 99.0927H100.998ZM100.998 97.875V95.075C99.452 95.075 98.1984 96.3286 98.1984 97.875H100.998ZM105.049 97.875H107.849C107.849 96.3286 106.595 95.075 105.049 95.075V97.875ZM100.268 101.579L98.1836 103.449C98.1881 103.454 98.1928 103.459 98.1974 103.464L100.268 101.579ZM96.0381 107.232L93.8199 108.94C93.8236 108.945 93.8274 108.95 93.8312 108.955L96.0381 107.232ZM102.249 109.911C102.249 111.583 101.775 112.566 101.102 113.218L104.997 117.242C106.989 115.313 107.849 112.749 107.849 109.911H102.249ZM101.095 113.224C100.432 113.87 99.3604 114.365 97.4865 114.365V119.965C100.381 119.965 103.017 119.17 105.003 117.235L101.095 113.224ZM97.4865 114.365C96.3115 114.365 95.5342 114.163 95.0301 113.909L92.5087 118.909C94.0041 119.663 95.7049 119.965 97.4865 119.965V114.365ZM95.0216 113.905C94.4204 113.604 93.9449 113.202 93.5615 112.683L89.0554 116.008C89.9709 117.248 91.136 118.223 92.5172 118.913L95.0216 113.905ZM92.9535 116.611L95.7605 114.573L92.4704 110.042L89.6634 112.08L92.9535 116.611ZM91.8169 113.906C92.4078 114.756 93.1382 115.499 94.0321 116.055L96.9931 111.302C96.8444 111.21 96.6435 111.038 96.414 110.708L91.8169 113.906ZM94.0217 116.049C95.121 116.74 96.3612 116.979 97.5505 116.979V111.379C97.0821 111.379 96.9637 111.284 97.0034 111.309L94.0217 116.049ZM97.5505 116.979C99.2027 116.979 100.823 116.464 102.07 115.183L98.0559 111.278C98.0389 111.295 98.0247 111.307 97.9843 111.322C97.9339 111.341 97.8032 111.379 97.5505 111.379V116.979ZM102.043 115.21C103.342 113.91 103.798 112.212 103.798 110.551H98.1984C98.1984 110.887 98.1528 111.079 98.1211 111.169C98.1058 111.213 98.0934 111.235 98.0891 111.242C98.0851 111.248 98.0835 111.25 98.0828 111.25L102.043 115.21ZM103.798 110.551V109.526H98.1984V110.551H103.798ZM100.998 106.726H100.947V112.326H100.998V106.726ZM98.7455 107.796C98.5666 108.024 98.3607 108.182 98.092 108.297L100.29 113.447C101.423 112.964 102.388 112.225 103.149 111.256L98.7455 107.796ZM98.0805 108.302C97.8112 108.418 97.3926 108.52 96.7559 108.52V114.12C97.9819 114.12 99.1868 113.924 100.302 113.442L98.0805 108.302ZM96.7559 108.52C95.9421 108.52 95.3604 108.265 94.8284 107.703L90.7622 111.554C92.3664 113.248 94.4251 114.12 96.7559 114.12V108.52ZM94.8356 107.711C94.3991 107.247 93.9931 106.415 93.9931 104.809H88.3931C88.3931 107.356 89.0552 109.738 90.755 111.546L94.8356 107.711ZM93.9931 104.809C93.9931 102.996 94.4704 102.009 95.0511 101.425L91.0778 97.4784C89.1634 99.4059 88.3931 101.991 88.3931 104.809H93.9931ZM95.0578 101.418C95.8054 100.66 96.5718 100.355 97.4865 100.355V94.7546C95.0002 94.7546 92.8186 95.7138 91.0711 97.4852L95.0578 101.418ZM97.4865 100.355C97.7701 100.355 98.05 100.408 98.3447 100.529L100.473 95.3493C99.5205 94.9577 98.5187 94.7546 97.4865 94.7546V100.355ZM98.3447 100.529C98.5368 100.608 98.651 100.702 98.7429 100.819L103.151 97.366C102.44 96.4579 101.529 95.783 100.473 95.3493L98.3447 100.529ZM100.947 101.893H100.998V96.2927H100.947V101.893ZM103.798 99.0927V97.875H98.1984V99.0927H103.798ZM100.998 100.675H105.049V95.075H100.998V100.675ZM102.249 97.875V109.911H107.849V97.875H102.249ZM103.85 104.694V103.656H98.2497V104.694H103.85ZM103.85 103.656C103.85 102.184 103.353 100.809 102.338 99.6942L98.1974 103.464C98.2163 103.485 98.225 103.498 98.2283 103.503C98.2314 103.509 98.2327 103.511 98.2338 103.514C98.2343 103.516 98.2497 103.554 98.2497 103.656H103.85ZM102.352 99.7095C101.27 98.5031 99.8253 97.9076 98.2555 97.9076V103.508C98.295 103.508 98.3106 103.511 98.3072 103.51C98.303 103.51 98.2858 103.506 98.261 103.495C98.2359 103.484 98.2134 103.471 98.1962 103.458C98.1795 103.446 98.1758 103.44 98.1836 103.449L102.352 99.7095ZM98.2555 97.9076C96.5199 97.9076 94.9418 98.6153 93.8527 100.061L98.326 103.43C98.3363 103.417 98.3329 103.424 98.3126 103.441C98.2916 103.458 98.2636 103.477 98.232 103.492C98.2009 103.507 98.1801 103.512 98.1775 103.513C98.1761 103.513 98.1998 103.508 98.2555 103.508V97.9076ZM93.8527 100.061C92.8449 101.4 92.5075 103.021 92.5075 104.604H98.1075C98.1075 103.761 98.2913 103.476 98.326 103.43L93.8527 100.061ZM92.5075 104.604C92.5075 106.098 92.83 107.655 93.8199 108.94L98.2563 105.523C98.272 105.543 98.1075 105.349 98.1075 104.604H92.5075ZM93.8312 108.955C94.946 110.383 96.5434 110.967 98.1658 110.967V105.367C98.0112 105.367 97.9976 105.342 98.0625 105.37C98.0942 105.384 98.1323 105.406 98.1701 105.436C98.2076 105.465 98.2323 105.492 98.245 105.508L93.8312 108.955ZM98.1658 110.967C99.7887 110.967 101.204 110.298 102.268 109.137L98.1397 105.352C98.1096 105.385 98.0924 105.398 98.0903 105.4C98.0891 105.401 98.0909 105.399 98.0958 105.397C98.1006 105.394 98.1075 105.39 98.1162 105.386C98.125 105.382 98.1343 105.378 98.1438 105.375C98.1532 105.372 98.1615 105.37 98.1681 105.369C98.1821 105.366 98.1829 105.367 98.1658 105.367V110.967ZM102.268 109.137C103.433 107.865 103.85 106.263 103.85 104.694H98.2497C98.2497 104.998 98.2097 105.176 98.1806 105.264C98.1663 105.307 98.1543 105.33 98.1489 105.339C98.1437 105.348 98.1409 105.351 98.1397 105.352L102.268 109.137ZM116.584 101.413L115.699 104.069C116.436 104.315 117.243 104.243 117.925 103.871C118.608 103.498 119.105 102.859 119.297 102.106L116.584 101.413ZM115.751 101.208L115.235 103.96C115.263 103.965 115.291 103.97 115.319 103.974L115.751 101.208ZM112.983 102.105L115.183 103.836C115.187 103.831 115.191 103.826 115.194 103.822L112.983 102.105ZM112.226 111V113.8C113.773 113.8 115.026 112.546 115.026 111H112.226ZM108.176 111H105.376C105.376 112.546 106.63 113.8 108.176 113.8V111ZM108.176 97.875V95.075C106.63 95.075 105.376 96.3286 105.376 97.875H108.176ZM112.226 97.875H115.026C115.026 96.3286 113.773 95.075 112.226 95.075V97.875ZM112.226 100.208H109.426C109.426 101.754 110.68 103.008 112.226 103.008V100.208ZM112.278 100.208V103.008C113.449 103.008 114.497 102.278 114.904 101.179L112.278 100.208ZM113.624 98.2852L111.965 96.0293L113.624 98.2852ZM116.61 97.7212L116.109 100.476C116.14 100.482 116.171 100.487 116.203 100.491L116.61 97.7212ZM117.469 97.9519L120.182 98.6452C120.531 97.2778 119.808 95.8641 118.495 95.3468L117.469 97.9519ZM117.47 98.7563C117.051 98.6166 116.622 98.5095 116.183 98.4411L115.319 103.974C115.428 103.991 115.554 104.021 115.699 104.069L117.47 98.7563ZM116.267 98.4555C115.832 98.3739 115.39 98.3306 114.944 98.3306V103.931C115.027 103.931 115.123 103.939 115.235 103.96L116.267 98.4555ZM114.944 98.3306C113.252 98.3306 111.791 99.0739 110.771 100.388L115.194 103.822C115.21 103.802 115.21 103.805 115.191 103.821C115.172 103.838 115.14 103.86 115.097 103.882C115.053 103.903 115.012 103.917 114.978 103.924C114.946 103.932 114.932 103.931 114.944 103.931V98.3306ZM110.782 100.374C109.77 101.66 109.426 103.219 109.426 104.732H115.026C115.026 104.384 115.066 104.155 115.106 104.017C115.144 103.886 115.18 103.84 115.183 103.836L110.782 100.374ZM109.426 104.732V111H115.026V104.732H109.426ZM112.226 108.2H108.176V113.8H112.226V108.2ZM110.976 111V97.875H105.376V111H110.976ZM108.176 100.675H112.226V95.075H108.176V100.675ZM109.426 97.875V100.208H115.026V97.875H109.426ZM112.226 103.008H112.278V97.4078H112.226V103.008ZM114.904 101.179C115.08 100.704 115.245 100.568 115.282 100.541L111.965 96.0293C110.84 96.8566 110.108 98.003 109.652 99.2361L114.904 101.179ZM115.282 100.541C115.323 100.511 115.419 100.444 115.713 100.444V94.8443C114.383 94.8443 113.086 95.2048 111.965 96.0293L115.282 100.541ZM115.713 100.444C115.878 100.444 116.008 100.458 116.109 100.476L117.111 94.9664C116.648 94.8821 116.18 94.8443 115.713 94.8443V100.444ZM116.203 100.491C116.274 100.502 116.353 100.522 116.442 100.557L118.495 95.3468C118.02 95.1597 117.527 95.0259 117.017 94.951L116.203 100.491ZM114.756 97.2586L113.872 100.719L119.297 102.106L120.182 98.6452L114.756 97.2586ZM130.017 111V113.8C131.563 113.8 132.817 112.546 132.817 111H130.017ZM126.185 111H123.385C123.385 112.546 124.638 113.8 126.185 113.8V111ZM126.185 109.526H128.985C128.985 107.98 127.731 106.726 126.185 106.726V109.526ZM126.133 109.526V106.726C125.291 106.726 124.494 107.105 123.962 107.758L126.133 109.526ZM124.416 110.872L123.257 108.323L123.245 108.329L124.416 110.872ZM119.34 110.295L117.523 112.426C117.528 112.429 117.532 112.433 117.537 112.437L119.34 110.295ZM119.289 104.514L121.28 106.483C121.283 106.48 121.287 106.476 121.29 106.473L119.289 104.514ZM122.724 103.079L122.427 100.295L122.425 100.295L122.724 103.079ZM126.21 102.707L126.507 105.491C127.93 105.34 129.01 104.139 129.01 102.707H126.21ZM125.595 100.861L123.835 103.039C123.842 103.045 123.849 103.051 123.857 103.057L125.595 100.861ZM121.224 102.053L119.789 104.457C121.063 105.219 122.711 104.853 123.543 103.623L121.224 102.053ZM118.52 100.438L116.145 98.9545C115.747 99.5926 115.621 100.364 115.798 101.096C115.975 101.827 116.438 102.457 117.084 102.842L118.52 100.438ZM120.776 98.439L122.147 100.88C122.153 100.877 122.158 100.874 122.163 100.871L120.776 98.439ZM128.581 98.9517L126.62 100.949L126.629 100.958L128.581 98.9517ZM126.21 105.168H129.01C129.01 104.378 128.676 103.625 128.091 103.094C127.506 102.563 126.723 102.304 125.937 102.381L126.21 105.168ZM123.595 105.424L123.322 102.638C123.309 102.639 123.295 102.641 123.282 102.642L123.595 105.424ZM122.262 105.937L124.211 107.948L124.212 107.947L122.262 105.937ZM122.314 108.052L120.454 110.145C120.464 110.155 120.476 110.164 120.487 110.174L122.314 108.052ZM125.441 107.667L123.429 105.72L123.429 105.721L125.441 107.667ZM130.017 108.2H126.185V113.8H130.017V108.2ZM128.985 111V109.526H123.385V111H128.985ZM126.185 106.726H126.133V112.326H126.185V106.726ZM123.962 107.758C123.729 108.044 123.496 108.214 123.257 108.323L125.574 113.421C126.652 112.931 127.563 112.204 128.305 111.294L123.962 107.758ZM123.245 108.329C123.009 108.437 122.686 108.52 122.224 108.52V114.12C123.385 114.12 124.524 113.905 125.587 113.415L123.245 108.329ZM122.224 108.52C121.74 108.52 121.426 108.391 121.144 108.153L117.537 112.437C118.878 113.567 120.487 114.12 122.224 114.12V108.52ZM121.157 108.164C121.054 108.077 120.922 107.953 120.922 107.45H115.322C115.322 109.356 116.003 111.129 117.523 112.426L121.157 108.164ZM120.922 107.45C120.922 106.968 121.053 106.712 121.28 106.483L117.298 102.545C115.969 103.889 115.322 105.59 115.322 107.45H120.922ZM121.29 106.473C121.471 106.288 121.92 105.981 123.023 105.863L122.425 100.295C120.503 100.501 118.662 101.151 117.288 102.556L121.29 106.473ZM123.021 105.863L126.507 105.491L125.913 99.9229L122.427 100.295L123.021 105.863ZM129.01 102.707V102.31H123.41V102.707H129.01ZM129.01 102.31C129.01 101.026 128.565 99.6414 127.333 98.6661L123.857 103.057C123.694 102.927 123.559 102.75 123.479 102.562C123.406 102.389 123.41 102.284 123.41 102.31H129.01ZM127.355 98.6841C126.372 97.8886 125.213 97.5744 124.083 97.5744V103.174C124.136 103.174 124.12 103.181 124.057 103.161C123.99 103.14 123.909 103.099 123.835 103.039L127.355 98.6841ZM124.083 97.5744C123.025 97.5744 121.973 97.8258 121.02 98.4082L123.94 103.187C123.934 103.19 123.932 103.19 123.942 103.187C123.954 103.184 123.997 103.174 124.083 103.174V97.5744ZM121.02 98.4082C120.146 98.9427 119.453 99.6746 118.906 100.484L123.543 103.623C123.747 103.322 123.892 103.216 123.94 103.187L121.02 98.4082ZM122.66 99.6495L119.955 98.0345L117.084 102.842L119.789 104.457L122.66 99.6495ZM120.894 101.922C121.046 101.68 121.39 101.306 122.147 100.88L119.404 95.998C118.094 96.7344 116.934 97.6928 116.145 98.9545L120.894 101.922ZM122.163 100.871C122.702 100.564 123.428 100.355 124.441 100.355V94.7546C122.635 94.7546 120.917 95.1351 119.389 96.0066L122.163 100.871ZM124.441 100.355C125.791 100.355 126.361 100.696 126.62 100.949L130.543 96.9538C128.905 95.3448 126.715 94.7546 124.441 94.7546V100.355ZM126.629 100.958C126.857 101.18 127.217 101.731 127.217 103.156H132.817C132.817 100.838 132.22 98.5859 130.534 96.9451L126.629 100.958ZM127.217 103.156V111H132.817V103.156H127.217ZM129.01 105.668V105.168H123.41V105.668H129.01ZM125.937 102.381L123.322 102.638L123.869 108.211L126.483 107.955L125.937 102.381ZM123.282 102.642C122.381 102.744 121.227 103.041 120.313 103.927L124.212 107.947C124.031 108.123 123.869 108.195 123.812 108.217C123.76 108.237 123.779 108.221 123.909 108.207L123.282 102.642ZM120.314 103.926C119.384 104.827 119.052 105.98 119.052 107.027H124.652C124.652 107.071 124.646 107.207 124.575 107.395C124.501 107.592 124.377 107.787 124.211 107.948L120.314 103.926ZM119.052 107.027C119.052 108.24 119.55 109.342 120.454 110.145L124.174 105.959C124.286 106.059 124.421 106.219 124.521 106.442C124.621 106.665 124.652 106.873 124.652 107.027H119.052ZM120.487 110.174C121.381 110.944 122.451 111.249 123.48 111.249V105.649C123.509 105.649 123.604 105.654 123.739 105.7C123.879 105.747 124.02 105.826 124.141 105.93L120.487 110.174ZM123.48 111.249C124.952 111.249 126.363 110.742 127.454 109.614L123.429 105.721C123.433 105.717 123.446 105.704 123.468 105.689C123.491 105.674 123.514 105.661 123.536 105.653C123.557 105.645 123.567 105.643 123.561 105.644C123.555 105.645 123.529 105.649 123.48 105.649V111.249ZM127.453 109.615C128.519 108.514 129.01 107.127 129.01 105.668H123.41C123.41 105.72 123.406 105.75 123.404 105.764C123.402 105.776 123.401 105.775 123.405 105.765C123.409 105.755 123.415 105.742 123.422 105.73C123.43 105.719 123.434 105.716 123.429 105.72L127.453 109.615ZM153.806 111V113.8C155.352 113.8 156.606 112.546 156.606 111H153.806ZM149.769 111H146.969C146.969 112.546 148.222 113.8 149.769 113.8V111ZM149.243 101.4L147.028 103.113C147.034 103.12 147.039 103.127 147.044 103.133L149.243 101.4ZM146.039 101.566L148.275 103.252C148.279 103.246 148.283 103.241 148.287 103.235L146.039 101.566ZM145.411 111V113.8C146.957 113.8 148.211 112.546 148.211 111H145.411ZM141.36 111H138.56C138.56 112.546 139.814 113.8 141.36 113.8V111ZM137.63 101.528L135.42 99.8089L135.416 99.8139L137.63 101.528ZM137.015 111V113.8C138.562 113.8 139.815 112.546 139.815 111H137.015ZM132.965 111H130.165C130.165 112.546 131.419 113.8 132.965 113.8V111ZM132.965 97.875V95.075C131.419 95.075 130.165 96.3286 130.165 97.875H132.965ZM137.015 97.875H139.815C139.815 96.3286 138.562 95.075 137.015 95.075V97.875ZM137.015 99.5156H134.215C134.215 101.062 135.469 102.316 137.015 102.316V99.5156ZM137.067 99.5156V102.316C137.96 102.316 138.799 101.889 139.327 101.169L137.067 99.5156ZM138.823 98.1057L137.604 95.5845L137.593 95.59L138.823 98.1057ZM143.552 98.1313L142.112 100.532C142.124 100.54 142.137 100.547 142.149 100.555L143.552 98.1313ZM144.975 99.6182L142.457 100.842C142.871 101.696 143.69 102.281 144.631 102.397C145.573 102.513 146.509 102.145 147.119 101.418L144.975 99.6182ZM146.987 98.0673L148.135 100.621L146.987 98.0673ZM152.614 98.9004L150.508 100.746C150.511 100.749 150.515 100.753 150.518 100.757L152.614 98.9004ZM153.806 108.2H149.769V113.8H153.806V108.2ZM152.569 111V103.412H146.969V111H152.569ZM152.569 103.412C152.569 102.23 152.352 100.82 151.442 99.6661L147.044 103.133C146.933 102.992 146.917 102.9 146.928 102.944C146.941 102.992 146.969 103.136 146.969 103.412H152.569ZM151.458 99.6865C150.458 98.3941 149.018 97.9205 147.667 97.9205V103.52C147.719 103.52 147.635 103.529 147.478 103.462C147.305 103.387 147.143 103.262 147.028 103.113L151.458 99.6865ZM147.667 97.9205C146.059 97.9205 144.704 98.6667 143.791 99.8973L148.287 103.235C148.281 103.244 148.209 103.335 148.051 103.416C147.888 103.501 147.741 103.52 147.667 103.52V97.9205ZM143.803 99.8809C142.948 101.015 142.611 102.338 142.611 103.656H148.211C148.211 103.47 148.234 103.362 148.249 103.311C148.263 103.266 148.274 103.253 148.275 103.252L143.803 99.8809ZM142.611 103.656V111H148.211V103.656H142.611ZM145.411 108.2H141.36V113.8H145.411V108.2ZM144.16 111V103.438H138.56V111H144.16ZM144.16 103.438C144.16 102.26 143.952 100.865 143.083 99.713L138.613 103.087C138.512 102.953 138.502 102.873 138.517 102.932C138.532 102.994 138.56 103.152 138.56 103.438H144.16ZM143.083 99.713C142.094 98.4031 140.652 97.9205 139.297 97.9205V103.52C139.341 103.52 139.246 103.528 139.08 103.455C138.897 103.375 138.729 103.241 138.613 103.087L143.083 99.713ZM139.297 97.9205C137.756 97.9205 136.379 98.5767 135.42 99.8089L139.841 103.247C139.814 103.281 139.73 103.37 139.582 103.442C139.435 103.513 139.322 103.52 139.297 103.52V97.9205ZM135.416 99.8139C134.506 100.99 134.215 102.394 134.215 103.707H139.815C139.815 103.174 139.935 103.126 139.845 103.242L135.416 99.8139ZM134.215 103.707V111H139.815V103.707H134.215ZM137.015 108.2H132.965V113.8H137.015V108.2ZM135.765 111V97.875H130.165V111H135.765ZM132.965 100.675H137.015V95.075H132.965V100.675ZM134.215 97.875V99.5156H139.815V97.875H134.215ZM137.015 102.316H137.067V96.7156H137.015V102.316ZM139.327 101.169C139.432 101.024 139.635 100.825 140.052 100.621L137.593 95.59C136.506 96.1212 135.538 96.8624 134.806 97.8627L139.327 101.169ZM140.041 100.627C140.441 100.433 140.808 100.355 141.168 100.355V94.7546C139.921 94.7546 138.725 95.0433 137.604 95.5846L140.041 100.627ZM141.168 100.355C141.744 100.355 142.008 100.47 142.112 100.532L144.993 95.7304C143.814 95.0232 142.489 94.7546 141.168 94.7546V100.355ZM142.149 100.555C142.365 100.679 142.425 100.777 142.457 100.842L147.493 98.394C146.926 97.2284 146.039 96.3354 144.955 95.7082L142.149 100.555ZM147.119 101.418C147.452 101.022 147.791 100.776 148.135 100.621L145.839 95.5133C144.663 96.0422 143.659 96.8302 142.83 97.8178L147.119 101.418ZM148.135 100.621C148.494 100.46 148.943 100.355 149.525 100.355V94.7546C148.244 94.7546 147.001 94.9913 145.839 95.5133L148.135 100.621ZM149.525 100.355C150.053 100.355 150.293 100.5 150.508 100.746L154.72 97.0552C153.363 95.5064 151.543 94.7546 149.525 94.7546V100.355ZM150.518 100.757C150.695 100.956 151.006 101.496 151.006 102.835H156.606C156.606 100.722 156.123 98.6388 154.71 97.0439L150.518 100.757ZM151.006 102.835V111H156.606V102.835H151.006Z" fill="black" fill-opacity="0.25" mask="url(#path-7-outside-1_3913_124)"/>
</g>
</g>
<defs>
<filter id="filter0_dd_3913_124" x="34.7355" y="81.7688" width="126.771" height="48.6963" filterUnits="userSpaceOnUse" color-interpolation-filters="sRGB">
<feFlood flood-opacity="0" result="BackgroundImageFix"/>
<feColorMatrix in="SourceAlpha" type="matrix" values="0 0 0 0 0 0 0 0 0 0 0 0 0 0 0 0 0 0 127 0" result="hardAlpha"/>
<feOffset dy="5.6"/>
<feGaussianBlur stdDeviation="3.85"/>
<feComposite in2="hardAlpha" operator="out"/>
<feColorMatrix type="matrix" values="0 0 0 0 0 0 0 0 0 0 0 0 0 0 0 0 0 0 0.25 0"/>
<feBlend mode="normal" in2="BackgroundImageFix" result="effect1_dropShadow_3913_124"/>
<feColorMatrix in="SourceAlpha" type="matrix" values="0 0 0 0 0 0 0 0 0 0 0 0 0 0 0 0 0 0 127 0" result="hardAlpha"/>
<feOffset dy="-4.2"/>
<feGaussianBlur stdDeviation="2.8"/>
<feComposite in2="hardAlpha" operator="out"/>
<feColorMatrix type="matrix" values="0 0 0 0 0.991623 0 0 0 0 0.991623 0 0 0 0 0.991623 0 0 0 0.2 0"/>
<feBlend mode="normal" in2="effect1_dropShadow_3913_124" result="effect2_dropShadow_3913_124"/>
<feBlend mode="normal" in="SourceGraphic" in2="effect2_dropShadow_3913_124" result="shape"/>
</filter>
<linearGradient id="paint0_linear_3913_124" x1="98.7241" y1="78" x2="98.7241" y2="10" gradientUnits="userSpaceOnUse">
<stop stop-color="#1D93D2"/>
<stop offset="1" stop-color="#38B0E3"/>
</linearGradient>
<clipPath id="clip0_3913_124">
<rect width="198" height="128" fill="white"/>
</clipPath>
</defs>
</svg>
