<svg width="198" height="128" viewBox="0 0 198 128" fill="none" xmlns="http://www.w3.org/2000/svg">
<rect width="198" height="128" fill="black"/>
<path d="M120.255 109C125.25 109 129.3 104.983 129.3 100.028C129.3 95.0731 125.25 91.0553 120.255 91.0553H118.892C123.888 91.0553 127.938 95.073 127.938 100.028C127.938 104.983 123.888 109 118.892 109H120.255Z" fill="#FF004F"/>
<path d="M118.769 91.0553H117.406C112.411 91.0553 108.36 95.073 108.36 100.028C108.36 104.983 112.411 109 117.406 109H118.769C113.773 109 109.723 104.983 109.723 100.028C109.723 95.0731 113.773 91.0553 118.769 91.0553Z" fill="#00F2EA"/>
<g filter="url(#filter0_dd_3913_134)">
<path d="M50 87V91.5479H55.3271V108.877H60.6564V91.6706H64.9928L66.4797 87.0001L50 87ZM93.6157 87V91.5479H98.9428V108.877H104.272V91.6706H108.608L110.095 87.0001L93.6157 87ZM67.4718 89.5808C67.4718 88.1558 68.6349 87 70.0718 87C71.51 87 72.6743 88.1558 72.6743 89.5808C72.6743 91.006 71.5107 92.1618 70.0718 92.1618C68.6349 92.1611 67.4718 91.006 67.4718 89.5808ZM67.4718 94.0059H72.6743V108.877H67.4718V94.0059ZM74.9051 87V108.877H80.1096V103.224L81.7205 101.748L86.8001 109H92.3755L85.0643 98.4301L91.6316 92.0383H85.3126L80.1096 97.2001V87H74.9051ZM131.034 87V108.877H136.24V103.224L137.85 101.748L142.931 109H148.507L141.196 98.4301L147.763 92.0383H141.444L136.24 97.2001V87H131.034Z" fill="white" shape-rendering="crispEdges"/>
<path d="M50 86.0729C49.7541 86.0729 49.5183 86.1706 49.3444 86.3444C49.1706 86.5183 49.0729 86.7541 49.0729 87V91.5479C49.0729 92.0599 49.488 92.475 50 92.475H54.4V108.877C54.4 109.389 54.8151 109.804 55.3271 109.804H60.6564C61.1684 109.804 61.5835 109.389 61.5835 108.877V92.5978H64.9928C65.3965 92.5978 65.7538 92.3366 65.8763 91.9519L66.5532 89.8256C66.6734 91.5655 68.0662 92.9479 69.8031 93.0788H67.4718C66.9598 93.0788 66.5447 93.4939 66.5447 94.0059V108.877C66.5447 109.389 66.9598 109.804 67.4718 109.804H72.6743C73.1864 109.804 73.6015 109.389 73.6015 108.877V94.0059C73.6015 93.4939 73.1864 93.0788 72.6743 93.0788H70.342C72.1607 92.9418 73.6015 91.434 73.6015 89.5808C73.6015 87.6367 72.015 86.0729 70.0718 86.0729C68.9702 86.0729 67.9838 86.576 67.3362 87.3659L67.3631 87.2814C67.4529 86.9995 67.4027 86.6918 67.2281 86.453C67.0535 86.2142 66.7755 86.073 66.4797 86.073L50 86.0729ZM93.6157 86.0729C93.3698 86.0729 93.134 86.1706 92.9601 86.3444C92.7862 86.5183 92.6885 86.7541 92.6885 87V91.5479C92.6885 92.0599 93.1036 92.475 93.6157 92.475H98.0157V108.877C98.0157 109.389 98.4308 109.804 98.9428 109.804H104.272C104.784 109.804 105.199 109.389 105.199 108.877V92.5978H108.608C109.012 92.5978 109.369 92.3365 109.492 91.9519L110.979 87.2814C111.068 86.9995 111.018 86.6917 110.843 86.453C110.669 86.2142 110.391 86.073 110.095 86.073L93.6157 86.0729ZM74.9051 86.0729C74.393 86.0729 73.978 86.488 73.978 87V108.877C73.978 109.389 74.393 109.804 74.9051 109.804H80.1096C80.6216 109.804 81.0367 109.389 81.0367 108.877V103.632L81.5676 103.145L86.0407 109.532C86.2142 109.779 86.4976 109.927 86.8001 109.927H92.3755C92.7203 109.927 93.0366 109.736 93.1966 109.43C93.3567 109.125 93.3341 108.756 93.138 108.472L86.2729 98.5476L92.2783 92.7027C92.5486 92.4396 92.6326 92.0388 92.4906 91.6893C92.3486 91.3398 92.0089 91.1112 91.6316 91.1112H85.3126C85.068 91.1112 84.8333 91.2078 84.6597 91.3801L81.0367 94.9744V87C81.0367 86.488 80.6216 86.0729 80.1096 86.0729H74.9051ZM131.034 86.0729C130.522 86.0729 130.107 86.488 130.107 87V108.877C130.107 109.389 130.522 109.804 131.034 109.804H136.24C136.752 109.804 137.167 109.389 137.167 108.877V103.632L137.697 103.146L142.172 109.532C142.345 109.78 142.628 109.927 142.931 109.927H148.507C148.852 109.927 149.168 109.736 149.328 109.43C149.488 109.125 149.466 108.756 149.269 108.472L142.404 98.5476L148.409 92.7027C148.68 92.4395 148.764 92.0388 148.622 91.6893C148.48 91.3398 148.14 91.1112 147.763 91.1112H141.444C141.2 91.1112 140.965 91.2078 140.791 91.38L137.167 94.9748V87C137.167 86.488 136.752 86.0729 136.24 86.0729H131.034Z" stroke="#4F4F4F" stroke-opacity="0.25" stroke-width="1.85424" stroke-linejoin="round" shape-rendering="crispEdges"/>
</g>
<g filter="url(#filter1_dd_3913_134)">
<path d="M118.892 109C123.888 109 127.938 104.983 127.938 100.028C127.938 95.0731 123.888 91.0553 118.892 91.0553H118.769C113.773 91.0553 109.723 95.073 109.723 100.028C109.723 104.983 113.773 109 118.769 109H118.892ZM114.432 100.028C114.432 97.6177 116.402 95.6654 118.832 95.6654C121.259 95.6654 123.23 97.6177 123.23 100.028C123.23 102.438 121.259 104.392 118.832 104.392C116.402 104.391 114.432 102.438 114.432 100.028Z" fill="white" shape-rendering="crispEdges"/>
<path d="M118.832 96.5925C116.906 96.5925 115.359 98.1374 115.359 100.028C115.359 101.919 116.906 103.464 118.832 103.464V96.5925ZM118.832 96.5925C120.755 96.5925 122.303 98.1371 122.303 100.028M118.832 96.5925L122.303 100.028M122.303 100.028C122.303 101.919 120.755 103.464 118.832 103.464L122.303 100.028ZM118.892 109.927C124.393 109.927 128.865 105.502 128.865 100.028C128.865 94.554 124.393 90.1281 118.892 90.1281H118.769C113.268 90.1281 108.796 94.5539 108.796 100.028C108.796 105.502 113.268 109.927 118.769 109.927H118.892Z" stroke="#4F4F4F" stroke-opacity="0.25" stroke-width="1.85424" stroke-linejoin="round" shape-rendering="crispEdges"/>
</g>
<g filter="url(#filter2_dd_3913_134)">
<path d="M111.332 38.8907C115.069 41.5605 119.646 43.1314 124.59 43.1314V33.6223C123.655 33.6225 122.721 33.525 121.806 33.3311V40.8161C116.862 40.8161 112.285 39.2453 108.548 36.5757V55.981C108.548 65.6885 100.674 73.5575 90.9621 73.5575C87.3384 73.5575 83.9703 72.4625 81.1724 70.5846C84.3657 73.848 88.8191 75.8725 93.7459 75.8725C103.458 75.8725 111.332 68.0036 111.332 58.2957V38.8907H111.332ZM114.767 29.2972C112.857 27.212 111.603 24.5172 111.332 21.5379V20.3148H108.693C109.357 24.1015 111.623 27.3365 114.767 29.2972ZM87.3151 63.1353C86.2482 61.7371 85.6716 60.0266 85.6742 58.2678C85.6742 53.828 89.2755 50.2281 93.7185 50.2281C94.5465 50.2279 95.3696 50.3546 96.1587 50.6049V40.8832C95.2365 40.7569 94.3058 40.7033 93.3755 40.723V48.2898C92.5858 48.0396 91.7623 47.9124 90.9341 47.9132C86.4911 47.9132 82.89 51.5127 82.89 55.9532C82.89 59.0929 84.69 61.8111 87.3151 63.1353Z" fill="#FF004F"/>
<path d="M108.547 36.5755C112.285 39.2451 116.862 40.8159 121.806 40.8159V33.3309C119.046 32.7434 116.603 31.302 114.767 29.2972C111.623 27.3363 109.357 24.1013 108.693 20.3148H101.762V58.2953C101.747 62.723 98.1514 66.3082 93.7179 66.3082C91.1054 66.3082 88.7843 65.0635 87.3144 63.1353C84.6895 61.8111 82.8894 59.0927 82.8894 55.9534C82.8894 51.5133 86.4905 47.9134 90.9336 47.9134C91.7848 47.9134 92.6053 48.0459 93.3749 48.29V40.7232C83.8337 40.9202 76.1602 48.7123 76.1602 58.2955C76.1602 63.0793 78.071 67.4161 81.1724 70.5848C83.9703 72.4625 87.3384 73.5576 90.9622 73.5576C100.674 73.5576 108.548 65.6883 108.548 55.981V36.5755H108.547Z" fill="white"/>
<path d="M121.806 33.3309V31.307C119.318 31.3108 116.878 30.6143 114.767 29.297C116.636 31.3422 119.097 32.7523 121.806 33.3309ZM108.694 20.3149C108.63 19.953 108.582 19.5887 108.548 19.2231V18H98.9782V55.9808C98.9629 60.4079 95.3679 63.9931 90.9341 63.9931C89.6323 63.9931 88.4033 63.6843 87.3149 63.1355C88.7848 65.0635 91.1059 66.308 93.7184 66.308C98.1515 66.308 101.747 62.7232 101.763 58.2955V20.3149H108.694ZM93.3758 40.7232V38.5686C92.5762 38.4594 91.77 38.4045 90.9629 38.4049C81.25 38.4047 73.3765 46.2741 73.3765 55.9808C73.3765 62.0664 76.4709 67.4296 81.1731 70.5844C78.0717 67.4159 76.1609 63.0789 76.1609 58.2953C76.1609 48.7123 83.8342 40.9202 93.3758 40.7232Z" fill="#00F2EA"/>
</g>
<defs>
<filter id="filter0_dd_3913_134" x="43.0468" y="78.6559" width="112.414" height="41.0058" filterUnits="userSpaceOnUse" color-interpolation-filters="sRGB">
<feFlood flood-opacity="0" result="BackgroundImageFix"/>
<feColorMatrix in="SourceAlpha" type="matrix" values="0 0 0 0 0 0 0 0 0 0 0 0 0 0 0 0 0 0 127 0" result="hardAlpha"/>
<feOffset dy="3.70848"/>
<feGaussianBlur stdDeviation="2.54958"/>
<feComposite in2="hardAlpha" operator="out"/>
<feColorMatrix type="matrix" values="0 0 0 0 0 0 0 0 0 0 0 0 0 0 0 0 0 0 0.25 0"/>
<feBlend mode="normal" in2="BackgroundImageFix" result="effect1_dropShadow_3913_134"/>
<feColorMatrix in="SourceAlpha" type="matrix" values="0 0 0 0 0 0 0 0 0 0 0 0 0 0 0 0 0 0 127 0" result="hardAlpha"/>
<feOffset dy="-2.78136"/>
<feGaussianBlur stdDeviation="1.85424"/>
<feComposite in2="hardAlpha" operator="out"/>
<feColorMatrix type="matrix" values="0 0 0 0 0.991623 0 0 0 0 0.991623 0 0 0 0 0.991623 0 0 0 0.2 0"/>
<feBlend mode="normal" in2="effect1_dropShadow_3913_134" result="effect2_dropShadow_3913_134"/>
<feBlend mode="normal" in="SourceGraphic" in2="effect2_dropShadow_3913_134" result="shape"/>
</filter>
<filter id="filter1_dd_3913_134" x="102.77" y="82.7112" width="32.1217" height="36.9507" filterUnits="userSpaceOnUse" color-interpolation-filters="sRGB">
<feFlood flood-opacity="0" result="BackgroundImageFix"/>
<feColorMatrix in="SourceAlpha" type="matrix" values="0 0 0 0 0 0 0 0 0 0 0 0 0 0 0 0 0 0 127 0" result="hardAlpha"/>
<feOffset dy="3.70848"/>
<feGaussianBlur stdDeviation="2.54958"/>
<feComposite in2="hardAlpha" operator="out"/>
<feColorMatrix type="matrix" values="0 0 0 0 0 0 0 0 0 0 0 0 0 0 0 0 0 0 0.25 0"/>
<feBlend mode="normal" in2="BackgroundImageFix" result="effect1_dropShadow_3913_134"/>
<feColorMatrix in="SourceAlpha" type="matrix" values="0 0 0 0 0 0 0 0 0 0 0 0 0 0 0 0 0 0 127 0" result="hardAlpha"/>
<feOffset dy="-2.78136"/>
<feGaussianBlur stdDeviation="1.85424"/>
<feComposite in2="hardAlpha" operator="out"/>
<feColorMatrix type="matrix" values="0 0 0 0 0.991623 0 0 0 0 0.991623 0 0 0 0 0.991623 0 0 0 0.2 0"/>
<feBlend mode="normal" in2="effect1_dropShadow_3913_134" result="effect2_dropShadow_3913_134"/>
<feBlend mode="normal" in="SourceGraphic" in2="effect2_dropShadow_3913_134" result="shape"/>
</filter>
<filter id="filter2_dd_3913_134" x="68.2176" y="8.97203" width="61.5315" height="75.9284" filterUnits="userSpaceOnUse" color-interpolation-filters="sRGB">
<feFlood flood-opacity="0" result="BackgroundImageFix"/>
<feColorMatrix in="SourceAlpha" type="matrix" values="0 0 0 0 0 0 0 0 0 0 0 0 0 0 0 0 0 0 127 0" result="hardAlpha"/>
<feOffset dy="3.86913"/>
<feGaussianBlur stdDeviation="2.57942"/>
<feComposite in2="hardAlpha" operator="out"/>
<feColorMatrix type="matrix" values="0 0 0 0 0 0 0 0 0 0 0 0 0 0 0 0 0 0 0.25 0"/>
<feBlend mode="normal" in2="BackgroundImageFix" result="effect1_dropShadow_3913_134"/>
<feColorMatrix in="SourceAlpha" type="matrix" values="0 0 0 0 0 0 0 0 0 0 0 0 0 0 0 0 0 0 127 0" result="hardAlpha"/>
<feOffset dy="-3.86913"/>
<feGaussianBlur stdDeviation="2.57942"/>
<feComposite in2="hardAlpha" operator="out"/>
<feColorMatrix type="matrix" values="0 0 0 0 1 0 0 0 0 1 0 0 0 0 1 0 0 0 0.25 0"/>
<feBlend mode="normal" in2="effect1_dropShadow_3913_134" result="effect2_dropShadow_3913_134"/>
<feBlend mode="normal" in="SourceGraphic" in2="effect2_dropShadow_3913_134" result="shape"/>
</filter>
</defs>
</svg>
