<svg width="198" height="128" viewBox="0 0 198 128" fill="none" xmlns="http://www.w3.org/2000/svg">
<rect width="198" height="128" fill="#0E0E0E"/>
<g filter="url(#filter0_dd_3913_51)">
<path d="M38.9893 95.4468L35.0093 107H32.0605L28.1289 95.4468H30.9004L33.3416 103.213C33.4006 103.396 33.4463 103.554 33.4785 103.689C33.5107 103.818 33.5483 103.973 33.5913 104.156H33.6396C33.6826 103.963 33.7175 103.802 33.7444 103.673C33.7712 103.538 33.8142 103.375 33.8733 103.181L36.2983 95.4468H38.9893ZM41.3499 97.6704C40.9094 97.6704 40.5496 97.5361 40.2703 97.2676C39.991 96.9937 39.8513 96.6553 39.8513 96.2524C39.8513 95.8335 39.991 95.4924 40.2703 95.2292C40.5496 94.9661 40.9094 94.8345 41.3499 94.8345C41.7957 94.8345 42.1555 94.9661 42.4294 95.2292C42.7087 95.4924 42.8484 95.8335 42.8484 96.2524C42.8484 96.6714 42.7087 97.0125 42.4294 97.2756C42.1555 97.5388 41.7957 97.6704 41.3499 97.6704ZM42.6228 107H40.0769V98.75H42.6228V107ZM44.0972 105.945L45.2976 104.398C45.7166 104.79 46.1033 105.058 46.4578 105.203C46.8123 105.348 47.1748 105.421 47.5454 105.421C47.916 105.421 48.198 105.359 48.3914 105.236C48.5901 105.107 48.6895 104.919 48.6895 104.672C48.6895 104.484 48.5955 104.325 48.4075 104.196C48.2195 104.067 47.916 103.976 47.4971 103.922C46.4014 103.761 45.6199 103.46 45.1526 103.02C44.6853 102.58 44.4517 102.005 44.4517 101.296C44.4517 100.517 44.7363 99.8645 45.3057 99.3381C45.8804 98.8118 46.6565 98.5486 47.634 98.5486C48.2141 98.5486 48.762 98.6292 49.2776 98.7903C49.7932 98.9514 50.2336 99.1958 50.5989 99.5234L49.3662 100.998C49.0493 100.761 48.7512 100.59 48.4719 100.482C48.198 100.369 47.9106 100.313 47.6099 100.313C47.2715 100.313 47.0244 100.375 46.8687 100.498C46.7183 100.616 46.6431 100.786 46.6431 101.006C46.6431 101.194 46.7397 101.352 46.9331 101.481C47.1265 101.61 47.4675 101.701 47.9563 101.755C48.9231 101.868 49.6562 102.142 50.1558 102.577C50.6606 103.007 50.9131 103.619 50.9131 104.414C50.9131 105.262 50.5908 105.939 49.9463 106.444C49.3071 106.949 48.4934 107.201 47.5051 107.201C46.8337 107.201 46.2 107.097 45.6038 106.887C45.0076 106.678 44.5054 106.364 44.0972 105.945ZM60.1943 106.992H57.6484V105.945H57.6162C57.3584 106.321 56.9958 106.624 56.5286 106.855C56.0667 107.081 55.6021 107.193 55.1348 107.193C54.1787 107.193 53.4536 106.903 52.9595 106.323C52.4707 105.743 52.2263 104.924 52.2263 103.866V98.7419H54.7642V103.479C54.7642 104.006 54.877 104.427 55.1025 104.744C55.3281 105.056 55.6638 105.211 56.1096 105.211C56.5554 105.211 56.9233 105.045 57.2134 104.712C57.5034 104.379 57.6484 103.957 57.6484 103.447V98.7419H60.1943V106.992ZM69.0486 107H66.6396V106.073H66.6074C66.3013 106.449 65.9414 106.731 65.5278 106.919C65.1196 107.107 64.6604 107.201 64.1501 107.201C63.4519 107.201 62.8477 106.987 62.3374 106.557C61.8271 106.122 61.572 105.526 61.572 104.768C61.572 104.032 61.8164 103.417 62.3052 102.923C62.7939 102.424 63.5137 102.123 64.4644 102.021L66.6558 101.787V101.538C66.6558 101.135 66.5269 100.831 66.269 100.627C66.0166 100.423 65.6997 100.321 65.3184 100.321C64.937 100.321 64.6013 100.41 64.3113 100.587C64.0212 100.764 63.7581 101.027 63.5217 101.376L61.8218 100.361C62.1172 99.8887 62.5898 99.4697 63.2397 99.1045C63.8896 98.7339 64.6577 98.5486 65.5439 98.5486C66.6826 98.5486 67.55 98.8413 68.1462 99.4268C68.7478 100.012 69.0486 100.893 69.0486 102.069V107ZM66.6558 103.648V103.334L65.0122 103.495C64.6309 103.538 64.3516 103.646 64.1743 103.818C64.0024 103.984 63.9165 104.212 63.9165 104.502C63.9165 104.76 64.0132 104.975 64.2065 105.147C64.3999 105.313 64.6443 105.397 64.9397 105.397C65.4446 105.397 65.8555 105.233 66.1724 104.905C66.4946 104.572 66.6558 104.153 66.6558 103.648ZM70.9016 107V94.7861H73.4475V107H70.9016ZM78.9663 104.736L81.1577 103.592C81.4048 104.092 81.7271 104.459 82.1245 104.696C82.5273 104.932 82.9678 105.05 83.4458 105.05C84.0312 105.05 84.4663 104.94 84.751 104.72C85.0356 104.494 85.178 104.186 85.178 103.793C85.178 103.391 85.0222 103.074 84.7107 102.843C84.4045 102.612 83.9185 102.435 83.2524 102.311C81.9741 102.064 81.0342 101.669 80.4326 101.127C79.8364 100.579 79.5383 99.8242 79.5383 98.8628C79.5383 97.7671 79.925 96.8916 80.6985 96.2363C81.4719 95.5811 82.4924 95.2534 83.76 95.2534C84.6248 95.2534 85.3821 95.428 86.032 95.7771C86.6819 96.1262 87.1921 96.6257 87.5627 97.2756L85.4197 98.3794C85.2048 98.0142 84.9604 97.751 84.6865 97.5898C84.4126 97.4233 84.0581 97.3401 83.623 97.3401C83.1182 97.3401 82.7288 97.4502 82.4548 97.6704C82.1863 97.8906 82.052 98.1672 82.052 98.5002C82.052 98.8386 82.1863 99.1125 82.4548 99.322C82.7234 99.5261 83.2256 99.6926 83.9614 99.8215C85.186 100.042 86.1099 100.45 86.7329 101.046C87.3613 101.637 87.6755 102.44 87.6755 103.455C87.6755 104.604 87.3076 105.518 86.5718 106.194C85.8359 106.866 84.7859 107.201 83.4216 107.201C82.4333 107.201 81.5417 106.987 80.7468 106.557C79.9573 106.122 79.3638 105.515 78.9663 104.736ZM94.2175 106.412C93.9651 106.643 93.6536 106.833 93.283 106.984C92.9124 107.129 92.5095 107.201 92.0745 107.201C91.1292 107.201 90.4282 106.984 89.9717 106.549C89.5151 106.114 89.2869 105.464 89.2869 104.599V100.627H87.9495V98.75H89.2869V96.6472L91.8247 96.196V98.75H93.8066V100.627H91.8247V104.583C91.8247 104.835 91.8784 105.026 91.9858 105.155C92.0986 105.284 92.2544 105.348 92.4531 105.348C92.5713 105.348 92.6895 105.33 92.8076 105.292C92.9312 105.249 93.0601 105.166 93.1943 105.042L94.2175 106.412ZM103.33 106.992H100.784V105.945H100.751C100.494 106.321 100.131 106.624 99.6638 106.855C99.2019 107.081 98.7373 107.193 98.27 107.193C97.314 107.193 96.5889 106.903 96.0947 106.323C95.606 105.743 95.3616 104.924 95.3616 103.866V98.7419H97.8994V103.479C97.8994 104.006 98.0122 104.427 98.2378 104.744C98.4634 105.056 98.7991 105.211 99.2449 105.211C99.6907 105.211 100.059 105.045 100.349 104.712C100.639 104.379 100.784 103.957 100.784 103.447V98.7419H103.33V106.992ZM110.943 105.928C110.648 106.353 110.282 106.672 109.847 106.887C109.412 107.097 108.905 107.201 108.325 107.201C107.277 107.201 106.431 106.839 105.787 106.114C105.148 105.383 104.828 104.365 104.828 103.06C104.828 101.696 105.18 100.603 105.884 99.7812C106.593 98.9595 107.565 98.5486 108.8 98.5486C109.262 98.5486 109.692 98.6533 110.089 98.8628C110.492 99.0669 110.777 99.3005 110.943 99.5637H110.975V94.7861H113.521V107H110.975V105.928H110.943ZM107.414 102.988C107.414 103.702 107.573 104.253 107.89 104.639C108.207 105.026 108.647 105.219 109.211 105.219C109.748 105.219 110.183 105.015 110.516 104.607C110.854 104.199 111.024 103.659 111.024 102.988V102.367C111.024 101.841 110.863 101.403 110.54 101.054C110.218 100.705 109.796 100.531 109.275 100.531C108.69 100.531 108.233 100.751 107.906 101.191C107.578 101.626 107.414 102.225 107.414 102.988ZM116.744 97.6704C116.303 97.6704 115.944 97.5361 115.664 97.2676C115.385 96.9937 115.245 96.6553 115.245 96.2524C115.245 95.8335 115.385 95.4924 115.664 95.2292C115.944 94.9661 116.303 94.8345 116.744 94.8345C117.19 94.8345 117.55 94.9661 117.823 95.2292C118.103 95.4924 118.242 95.8335 118.242 96.2524C118.242 96.6714 118.103 97.0125 117.823 97.2756C117.55 97.5388 117.19 97.6704 116.744 97.6704ZM118.017 107H115.471V98.75H118.017V107ZM123.995 107.201C122.657 107.201 121.578 106.815 120.756 106.041C119.94 105.268 119.534 104.223 119.54 102.907C119.545 101.597 119.956 100.544 120.772 99.749C121.594 98.9487 122.706 98.5486 124.108 98.5486C125.488 98.5486 126.57 98.946 127.354 99.741C128.139 100.536 128.531 101.543 128.531 102.762C128.531 104.083 128.106 105.155 127.258 105.977C126.409 106.793 125.322 107.201 123.995 107.201ZM124.075 105.219C124.698 105.219 125.163 104.994 125.469 104.543C125.781 104.092 125.937 103.514 125.937 102.811C125.937 102.107 125.781 101.551 125.469 101.143C125.158 100.735 124.688 100.531 124.059 100.531C123.447 100.531 122.972 100.751 122.633 101.191C122.295 101.626 122.126 102.188 122.126 102.875C122.126 103.562 122.287 104.126 122.609 104.567C122.937 105.002 123.426 105.219 124.075 105.219ZM144.12 104.398C143.712 105.219 143.081 105.894 142.227 106.42C141.378 106.941 140.417 107.201 139.343 107.201C137.549 107.201 136.112 106.705 135.032 105.711C133.953 104.712 133.413 103.299 133.413 101.473C133.413 99.5879 133.945 98.0813 135.008 96.9534C136.077 95.8201 137.463 95.2534 139.166 95.2534C140.39 95.2534 141.403 95.5273 142.203 96.0752C143.009 96.6177 143.626 97.3669 144.056 98.323L141.752 99.1851C141.489 98.5996 141.15 98.178 140.737 97.9202C140.328 97.657 139.821 97.5254 139.214 97.5254C138.322 97.5254 137.589 97.8799 137.014 98.5889C136.44 99.2925 136.152 100.192 136.152 101.288C136.152 102.443 136.448 103.332 137.039 103.955C137.629 104.578 138.43 104.889 139.439 104.889C139.998 104.889 140.487 104.76 140.906 104.502C141.325 104.245 141.65 103.863 141.881 103.358L144.12 104.398ZM149.696 107.201C148.358 107.201 147.279 106.815 146.457 106.041C145.64 105.268 145.235 104.223 145.24 102.907C145.246 101.597 145.656 100.544 146.473 99.749C147.295 98.9487 148.406 98.5486 149.808 98.5486C151.189 98.5486 152.271 98.946 153.055 99.741C153.839 100.536 154.231 101.543 154.231 102.762C154.231 104.083 153.807 105.155 152.958 105.977C152.11 106.793 151.022 107.201 149.696 107.201ZM149.776 105.219C150.399 105.219 150.864 104.994 151.17 104.543C151.481 104.092 151.637 103.514 151.637 102.811C151.637 102.107 151.481 101.551 151.17 101.143C150.858 100.735 150.388 100.531 149.76 100.531C149.148 100.531 148.672 100.751 148.334 101.191C147.996 101.626 147.826 102.188 147.826 102.875C147.826 103.562 147.988 104.126 148.31 104.567C148.637 105.002 149.126 105.219 149.776 105.219ZM161.345 105.928C161.05 106.353 160.685 106.672 160.25 106.887C159.815 107.097 159.307 107.201 158.727 107.201C157.68 107.201 156.834 106.839 156.189 106.114C155.55 105.383 155.23 104.365 155.23 103.06C155.23 101.696 155.582 100.603 156.286 99.7812C156.995 98.9595 157.967 98.5486 159.202 98.5486C159.664 98.5486 160.094 98.6533 160.491 98.8628C160.894 99.0669 161.179 99.3005 161.345 99.5637H161.378V94.7861H163.924V107H161.378V105.928H161.345ZM157.817 102.988C157.817 103.702 157.975 104.253 158.292 104.639C158.609 105.026 159.049 105.219 159.613 105.219C160.15 105.219 160.585 105.015 160.918 104.607C161.257 104.199 161.426 103.659 161.426 102.988V102.367C161.426 101.841 161.265 101.403 160.943 101.054C160.62 100.705 160.199 100.531 159.678 100.531C159.092 100.531 158.636 100.751 158.308 101.191C157.98 101.626 157.817 102.225 157.817 102.988ZM173.318 103.6H167.936C167.973 104.132 168.156 104.556 168.484 104.873C168.817 105.185 169.252 105.34 169.789 105.34C170.116 105.34 170.415 105.26 170.683 105.099C170.957 104.938 171.201 104.696 171.416 104.374L173.285 105.437C172.813 106.049 172.284 106.498 171.698 106.782C171.113 107.062 170.463 107.201 169.749 107.201C168.384 107.201 167.321 106.833 166.558 106.098C165.795 105.356 165.414 104.325 165.414 103.004C165.414 101.634 165.812 100.549 166.606 99.749C167.401 98.9487 168.379 98.5486 169.539 98.5486C170.742 98.5486 171.671 98.9058 172.327 99.6201C172.987 100.334 173.318 101.409 173.318 102.843V103.6ZM170.957 101.989C170.957 101.425 170.836 101.003 170.594 100.724C170.358 100.439 170.039 100.297 169.636 100.297C169.152 100.297 168.76 100.458 168.459 100.78C168.164 101.103 167.984 101.505 167.92 101.989H170.957Z" fill="white"/>
</g>
<g filter="url(#filter1_dd_3913_51)">
<mask id="mask0_3913_51" style="mask-type:alpha" maskUnits="userSpaceOnUse" x="63" y="16" width="63" height="62">
<path fill-rule="evenodd" clip-rule="evenodd" d="M107.278 77.4167C108.254 77.7972 109.368 77.7728 110.353 77.2985L123.118 71.1563C124.46 70.5109 125.313 69.1534 125.313 67.6642V26.0164C125.313 24.5271 124.46 23.1696 123.118 22.5242L110.353 16.3818C109.06 15.7594 107.546 15.9119 106.411 16.7372C106.249 16.8551 106.094 16.9868 105.949 17.1318L81.5127 39.4258L70.8686 31.3461C69.8777 30.5939 68.4918 30.6556 67.5715 31.4927L64.1576 34.5982C63.0319 35.6221 63.0306 37.393 64.1548 38.4187L73.3857 46.8402L64.1548 55.2617C63.0306 56.2873 63.0319 58.0583 64.1576 59.0822L67.5715 62.1877C68.4918 63.0248 69.8777 63.0864 70.8686 62.3342L81.5127 54.2545L105.949 76.5485C106.336 76.9353 106.79 77.2266 107.278 77.4167ZM109.822 32.7654L91.2801 46.8402L109.822 60.9149V32.7654Z" fill="white"/>
</mask>
<g mask="url(#mask0_3913_51)">
<path d="M123.119 22.5339L110.344 16.3831C108.865 15.6711 107.098 15.9714 105.938 17.1319L64.1177 55.2618C62.9929 56.2873 62.9942 58.0583 64.1205 59.0822L67.5365 62.1877C68.4573 63.0248 69.8441 63.0865 70.8355 62.3343L121.196 24.1296C122.886 22.8478 125.313 24.0529 125.313 26.1736V26.0253C125.313 24.5366 124.46 23.1797 123.119 22.5339Z" fill="#0065A9"/>
<g filter="url(#filter2_d_3913_51)">
<path d="M123.119 71.1465L110.344 77.2973C108.865 78.0094 107.098 77.7089 105.938 76.5485L64.1177 38.4186C62.9929 37.393 62.9942 35.622 64.1205 34.5981L67.5365 31.4926C68.4573 30.6555 69.8441 30.5939 70.8355 31.346L121.196 69.5508C122.886 70.8325 125.313 69.6275 125.313 67.5068V67.6551C125.313 69.1437 124.46 70.5007 123.119 71.1465Z" fill="#007ACC"/>
</g>
<g filter="url(#filter3_d_3913_51)">
<path d="M110.344 77.2984C108.865 78.01 107.098 77.709 105.938 76.5484C107.367 77.9784 109.813 76.9656 109.813 74.9434V18.7369C109.813 16.7146 107.367 15.7018 105.938 17.1318C107.098 15.9712 108.865 15.6705 110.344 16.3818L123.117 22.5242C124.459 23.1696 125.313 24.5271 125.313 26.0163V67.6641C125.313 69.1534 124.459 70.5109 123.117 71.1563L110.344 77.2984Z" fill="#1F9CF0"/>
</g>
<g style="mix-blend-mode:overlay" opacity="0.25">
<path fill-rule="evenodd" clip-rule="evenodd" d="M107.24 77.4168C108.217 77.7971 109.33 77.7728 110.316 77.2985L123.081 71.1564C124.422 70.511 125.275 69.1535 125.275 67.6642V26.0164C125.275 24.5271 124.422 23.1696 123.081 22.5242L110.316 16.3818C109.022 15.7594 107.509 15.9119 106.373 16.7372C106.211 16.8551 106.057 16.9868 105.912 17.1318L81.4751 39.4258L70.831 31.3461C69.8401 30.5939 68.4542 30.6556 67.5339 31.4927L64.12 34.5981C62.9943 35.6221 62.993 37.393 64.1172 38.4186L73.3481 46.8402L64.1172 55.2617C62.993 56.2873 62.9943 58.0583 64.12 59.0822L67.5339 62.1876C68.4542 63.0248 69.8401 63.0864 70.831 62.3343L81.4751 54.2545L105.912 76.5485C106.298 76.9353 106.752 77.2266 107.24 77.4168ZM109.784 32.7655L91.2425 46.8402L109.784 60.9149V32.7655Z" fill="url(#paint0_linear_3913_51)"/>
</g>
</g>
</g>
<defs>
<filter id="filter0_dd_3913_51" x="22.6289" y="89.7861" width="156.188" height="24.9153" filterUnits="userSpaceOnUse" color-interpolation-filters="sRGB">
<feFlood flood-opacity="0" result="BackgroundImageFix"/>
<feColorMatrix in="SourceAlpha" type="matrix" values="0 0 0 0 0 0 0 0 0 0 0 0 0 0 0 0 0 0 127 0" result="hardAlpha"/>
<feOffset dy="2"/>
<feGaussianBlur stdDeviation="2.75"/>
<feComposite in2="hardAlpha" operator="out"/>
<feColorMatrix type="matrix" values="0 0 0 0 0 0 0 0 0 0 0 0 0 0 0 0 0 0 0.25 0"/>
<feBlend mode="normal" in2="BackgroundImageFix" result="effect1_dropShadow_3913_51"/>
<feColorMatrix in="SourceAlpha" type="matrix" values="0 0 0 0 0 0 0 0 0 0 0 0 0 0 0 0 0 0 127 0" result="hardAlpha"/>
<feOffset dy="-1"/>
<feGaussianBlur stdDeviation="2"/>
<feComposite in2="hardAlpha" operator="out"/>
<feColorMatrix type="matrix" values="0 0 0 0 1 0 0 0 0 1 0 0 0 0 1 0 0 0 0.15 0"/>
<feBlend mode="normal" in2="effect1_dropShadow_3913_51" result="effect2_dropShadow_3913_51"/>
<feBlend mode="normal" in="SourceGraphic" in2="effect2_dropShadow_3913_51" result="shape"/>
</filter>
<filter id="filter1_dd_3913_51" x="57.8125" y="8" width="73" height="79.1804" filterUnits="userSpaceOnUse" color-interpolation-filters="sRGB">
<feFlood flood-opacity="0" result="BackgroundImageFix"/>
<feColorMatrix in="SourceAlpha" type="matrix" values="0 0 0 0 0 0 0 0 0 0 0 0 0 0 0 0 0 0 127 0" result="hardAlpha"/>
<feOffset dy="4"/>
<feGaussianBlur stdDeviation="2.75"/>
<feComposite in2="hardAlpha" operator="out"/>
<feColorMatrix type="matrix" values="0 0 0 0 0 0 0 0 0 0 0 0 0 0 0 0 0 0 0.25 0"/>
<feBlend mode="normal" in2="BackgroundImageFix" result="effect1_dropShadow_3913_51"/>
<feColorMatrix in="SourceAlpha" type="matrix" values="0 0 0 0 0 0 0 0 0 0 0 0 0 0 0 0 0 0 127 0" result="hardAlpha"/>
<feOffset dy="-4"/>
<feGaussianBlur stdDeviation="2"/>
<feComposite in2="hardAlpha" operator="out"/>
<feColorMatrix type="matrix" values="0 0 0 0 1 0 0 0 0 1 0 0 0 0 1 0 0 0 0.19 0"/>
<feBlend mode="normal" in2="effect1_dropShadow_3913_51" result="effect2_dropShadow_3913_51"/>
<feBlend mode="normal" in="SourceGraphic" in2="effect2_dropShadow_3913_51" result="shape"/>
</filter>
<filter id="filter2_d_3913_51" x="58.1082" y="25.6541" width="72.3709" height="57.1924" filterUnits="userSpaceOnUse" color-interpolation-filters="sRGB">
<feFlood flood-opacity="0" result="BackgroundImageFix"/>
<feColorMatrix in="SourceAlpha" type="matrix" values="0 0 0 0 0 0 0 0 0 0 0 0 0 0 0 0 0 0 127 0" result="hardAlpha"/>
<feOffset/>
<feGaussianBlur stdDeviation="2.58334"/>
<feColorMatrix type="matrix" values="0 0 0 0 0 0 0 0 0 0 0 0 0 0 0 0 0 0 0.25 0"/>
<feBlend mode="overlay" in2="BackgroundImageFix" result="effect1_dropShadow_3913_51"/>
<feBlend mode="normal" in="SourceGraphic" in2="effect1_dropShadow_3913_51" result="shape"/>
</filter>
<filter id="filter3_d_3913_51" x="100.771" y="10.8333" width="29.7083" height="72.0138" filterUnits="userSpaceOnUse" color-interpolation-filters="sRGB">
<feFlood flood-opacity="0" result="BackgroundImageFix"/>
<feColorMatrix in="SourceAlpha" type="matrix" values="0 0 0 0 0 0 0 0 0 0 0 0 0 0 0 0 0 0 127 0" result="hardAlpha"/>
<feOffset/>
<feGaussianBlur stdDeviation="2.58334"/>
<feColorMatrix type="matrix" values="0 0 0 0 0 0 0 0 0 0 0 0 0 0 0 0 0 0 0.25 0"/>
<feBlend mode="overlay" in2="BackgroundImageFix" result="effect1_dropShadow_3913_51"/>
<feBlend mode="normal" in="SourceGraphic" in2="effect1_dropShadow_3913_51" result="shape"/>
</filter>
<linearGradient id="paint0_linear_3913_51" x1="94.2749" y1="16" x2="94.2749" y2="77.6804" gradientUnits="userSpaceOnUse">
<stop stop-color="white"/>
<stop offset="1" stop-color="white" stop-opacity="0"/>
</linearGradient>
</defs>
</svg>
