<svg width="198" height="128" viewBox="0 0 198 128" fill="none" xmlns="http://www.w3.org/2000/svg">
<rect width="198" height="128" fill="#0E0E0E"/>
<g filter="url(#filter0_dd_3913_51)">
<path d="M70.9863 91.2959L65.9209 106H62.168L57.1641 91.2959H60.6914L63.7983 101.181C63.8735 101.413 63.9316 101.615 63.9727 101.786C64.0137 101.95 64.0615 102.148 64.1162 102.38H64.1777C64.2324 102.134 64.2769 101.929 64.311 101.765C64.3452 101.594 64.3999 101.386 64.4751 101.14L67.5615 91.2959H70.9863ZM71.6836 103.119L74.4727 101.663C74.7871 102.298 75.1973 102.767 75.7031 103.067C76.2158 103.368 76.7764 103.519 77.3848 103.519C78.1299 103.519 78.6836 103.378 79.0459 103.098C79.4082 102.811 79.5894 102.418 79.5894 101.919C79.5894 101.406 79.3911 101.003 78.9946 100.709C78.605 100.415 77.9863 100.189 77.1387 100.032C75.5117 99.7178 74.3154 99.2153 73.5498 98.5249C72.791 97.8276 72.4116 96.8672 72.4116 95.6436C72.4116 94.249 72.9038 93.1348 73.8882 92.3008C74.8726 91.4668 76.1714 91.0498 77.7847 91.0498C78.8853 91.0498 79.8491 91.272 80.6763 91.7163C81.5034 92.1606 82.1528 92.7964 82.6245 93.6235L79.897 95.0283C79.6235 94.5635 79.3125 94.2285 78.9639 94.0234C78.6152 93.8115 78.1641 93.7056 77.6104 93.7056C76.9678 93.7056 76.4722 93.8457 76.1235 94.126C75.7817 94.4062 75.6108 94.7583 75.6108 95.1821C75.6108 95.6128 75.7817 95.9614 76.1235 96.228C76.4653 96.4878 77.1045 96.6997 78.041 96.8638C79.5996 97.144 80.7754 97.6636 81.5684 98.4224C82.3682 99.1743 82.7681 100.196 82.7681 101.488C82.7681 102.951 82.2998 104.113 81.3633 104.975C80.4268 105.829 79.0903 106.256 77.354 106.256C76.0962 106.256 74.9614 105.983 73.9497 105.436C72.9448 104.882 72.1895 104.11 71.6836 103.119ZM102.62 102.688C102.1 103.734 101.297 104.592 100.21 105.262C99.1299 105.925 97.9062 106.256 96.5391 106.256C94.2559 106.256 92.4272 105.624 91.0532 104.359C89.6792 103.088 88.9922 101.29 88.9922 98.9658C88.9922 96.5664 89.6689 94.6489 91.0225 93.2134C92.3828 91.771 94.1465 91.0498 96.3135 91.0498C97.8721 91.0498 99.1606 91.3984 100.179 92.0957C101.205 92.7861 101.991 93.7397 102.538 94.9565L99.605 96.0537C99.27 95.3086 98.8394 94.772 98.313 94.4438C97.7935 94.1089 97.1475 93.9414 96.375 93.9414C95.2402 93.9414 94.3071 94.3926 93.5757 95.2949C92.8442 96.1904 92.4785 97.3354 92.4785 98.73C92.4785 100.2 92.8545 101.331 93.6064 102.124C94.3584 102.917 95.377 103.313 96.6621 103.313C97.373 103.313 97.9951 103.149 98.5283 102.821C99.0615 102.493 99.4751 102.008 99.769 101.365L102.62 102.688ZM109.715 106.256C108.013 106.256 106.639 105.764 105.593 104.78C104.554 103.795 104.038 102.466 104.045 100.791C104.052 99.123 104.575 97.7832 105.614 96.7715C106.66 95.7529 108.075 95.2437 109.859 95.2437C111.616 95.2437 112.993 95.7495 113.991 96.7612C114.989 97.7729 115.488 99.0547 115.488 100.606C115.488 102.288 114.948 103.652 113.868 104.698C112.788 105.737 111.404 106.256 109.715 106.256ZM109.818 103.734C110.611 103.734 111.202 103.447 111.592 102.873C111.988 102.298 112.187 101.563 112.187 100.668C112.187 99.7725 111.988 99.0649 111.592 98.5454C111.195 98.0259 110.597 97.7661 109.797 97.7661C109.018 97.7661 108.413 98.0464 107.982 98.6069C107.552 99.1606 107.336 99.875 107.336 100.75C107.336 101.625 107.542 102.343 107.952 102.903C108.369 103.457 108.991 103.734 109.818 103.734ZM124.542 104.636C124.167 105.176 123.702 105.583 123.148 105.856C122.594 106.123 121.948 106.256 121.21 106.256C119.877 106.256 118.8 105.795 117.98 104.872C117.167 103.942 116.76 102.647 116.76 100.986C116.76 99.2495 117.208 97.8584 118.103 96.8125C119.005 95.7666 120.243 95.2437 121.815 95.2437C122.403 95.2437 122.95 95.377 123.456 95.6436C123.968 95.9033 124.331 96.2007 124.542 96.5356H124.583V90.4551H127.824V106H124.583V104.636H124.542ZM120.051 100.894C120.051 101.803 120.253 102.503 120.656 102.996C121.06 103.488 121.62 103.734 122.338 103.734C123.021 103.734 123.575 103.474 123.999 102.955C124.43 102.435 124.645 101.748 124.645 100.894V100.104C124.645 99.4341 124.44 98.877 124.03 98.4326C123.62 97.9883 123.083 97.7661 122.42 97.7661C121.675 97.7661 121.094 98.0464 120.677 98.6069C120.26 99.1606 120.051 99.9229 120.051 100.894ZM139.78 101.673H132.93C132.978 102.35 133.21 102.89 133.627 103.293C134.051 103.689 134.605 103.888 135.289 103.888C135.706 103.888 136.085 103.785 136.427 103.58C136.775 103.375 137.086 103.067 137.36 102.657L139.739 104.011C139.137 104.79 138.464 105.361 137.719 105.723C136.974 106.079 136.146 106.256 135.237 106.256C133.501 106.256 132.147 105.788 131.177 104.852C130.206 103.908 129.721 102.596 129.721 100.914C129.721 99.1709 130.227 97.79 131.238 96.7715C132.25 95.7529 133.494 95.2437 134.971 95.2437C136.502 95.2437 137.685 95.6982 138.519 96.6074C139.359 97.5166 139.78 98.8838 139.78 100.709V101.673ZM136.775 99.6221C136.775 98.9043 136.622 98.3677 136.314 98.0122C136.013 97.6499 135.606 97.4688 135.094 97.4688C134.479 97.4688 133.979 97.6738 133.597 98.084C133.221 98.4941 132.992 99.0068 132.91 99.6221H136.775Z" fill="white"/>
</g>
<g filter="url(#filter1_dd_3913_51)">
<mask id="mask0_3913_51" style="mask-type:alpha" maskUnits="userSpaceOnUse" x="68" y="16" width="63" height="62">
<path fill-rule="evenodd" clip-rule="evenodd" d="M112.278 77.4167C113.254 77.7972 114.368 77.7728 115.353 77.2985L128.118 71.1563C129.46 70.5109 130.313 69.1534 130.313 67.6642V26.0164C130.313 24.5271 129.46 23.1696 128.118 22.5242L115.353 16.3818C114.06 15.7594 112.546 15.9119 111.411 16.7372C111.249 16.8551 111.094 16.9868 110.949 17.1318L86.5127 39.4258L75.8686 31.3461C74.8777 30.5939 73.4918 30.6556 72.5715 31.4927L69.1576 34.5982C68.0319 35.6221 68.0306 37.393 69.1548 38.4187L78.3857 46.8402L69.1548 55.2617C68.0306 56.2873 68.0319 58.0583 69.1576 59.0822L72.5715 62.1877C73.4918 63.0248 74.8777 63.0864 75.8686 62.3342L86.5127 54.2545L110.949 76.5485C111.336 76.9353 111.79 77.2266 112.278 77.4167ZM114.822 32.7654L96.2801 46.8402L114.822 60.9149V32.7654Z" fill="white"/>
</mask>
<g mask="url(#mask0_3913_51)">
<path d="M128.119 22.5339L115.344 16.3831C113.865 15.6711 112.098 15.9714 110.938 17.1319L69.1177 55.2618C67.9929 56.2873 67.9942 58.0583 69.1205 59.0822L72.5365 62.1877C73.4573 63.0248 74.8441 63.0865 75.8355 62.3343L126.196 24.1296C127.886 22.8478 130.313 24.0529 130.313 26.1736V26.0253C130.313 24.5366 129.46 23.1797 128.119 22.5339Z" fill="#0065A9"/>
<g filter="url(#filter2_d_3913_51)">
<path d="M128.119 71.1465L115.344 77.2973C113.865 78.0094 112.098 77.7089 110.938 76.5485L69.1177 38.4186C67.9929 37.393 67.9942 35.622 69.1205 34.5981L72.5365 31.4926C73.4573 30.6555 74.8441 30.5939 75.8355 31.346L126.196 69.5508C127.886 70.8325 130.313 69.6275 130.313 67.5068V67.6551C130.313 69.1437 129.46 70.5007 128.119 71.1465Z" fill="#007ACC"/>
</g>
<g filter="url(#filter3_d_3913_51)">
<path d="M115.344 77.2984C113.865 78.01 112.098 77.709 110.938 76.5484C112.367 77.9784 114.813 76.9656 114.813 74.9434V18.7369C114.813 16.7146 112.367 15.7018 110.938 17.1318C112.098 15.9712 113.865 15.6705 115.344 16.3818L128.117 22.5242C129.459 23.1696 130.313 24.5271 130.313 26.0163V67.6641C130.313 69.1534 129.459 70.5109 128.117 71.1563L115.344 77.2984Z" fill="#1F9CF0"/>
</g>
<g style="mix-blend-mode:overlay" opacity="0.25">
<path fill-rule="evenodd" clip-rule="evenodd" d="M112.24 77.4168C113.217 77.7971 114.33 77.7728 115.316 77.2985L128.081 71.1564C129.422 70.511 130.275 69.1535 130.275 67.6642V26.0164C130.275 24.5271 129.422 23.1696 128.081 22.5242L115.316 16.3818C114.022 15.7594 112.509 15.9119 111.373 16.7372C111.211 16.8551 111.057 16.9868 110.912 17.1318L86.4751 39.4258L75.831 31.3461C74.8401 30.5939 73.4542 30.6556 72.5339 31.4927L69.12 34.5981C67.9943 35.6221 67.993 37.393 69.1172 38.4186L78.3481 46.8402L69.1172 55.2617C67.993 56.2873 67.9943 58.0583 69.12 59.0822L72.5339 62.1876C73.4542 63.0248 74.8401 63.0864 75.831 62.3343L86.4751 54.2545L110.912 76.5485C111.298 76.9353 111.752 77.2266 112.24 77.4168ZM114.784 32.7655L96.2425 46.8402L114.784 60.9149V32.7655Z" fill="url(#paint0_linear_3913_51)"/>
</g>
</g>
</g>
<defs>
<filter id="filter0_dd_3913_51" x="50.1641" y="84.0914" width="96.6157" height="31.7104" filterUnits="userSpaceOnUse" color-interpolation-filters="sRGB">
<feFlood flood-opacity="0" result="BackgroundImageFix"/>
<feColorMatrix in="SourceAlpha" type="matrix" values="0 0 0 0 0 0 0 0 0 0 0 0 0 0 0 0 0 0 127 0" result="hardAlpha"/>
<feOffset dy="2.54545"/>
<feGaussianBlur stdDeviation="3.5"/>
<feComposite in2="hardAlpha" operator="out"/>
<feColorMatrix type="matrix" values="0 0 0 0 0 0 0 0 0 0 0 0 0 0 0 0 0 0 0.25 0"/>
<feBlend mode="normal" in2="BackgroundImageFix" result="effect1_dropShadow_3913_51"/>
<feColorMatrix in="SourceAlpha" type="matrix" values="0 0 0 0 0 0 0 0 0 0 0 0 0 0 0 0 0 0 127 0" result="hardAlpha"/>
<feOffset dy="-1.27273"/>
<feGaussianBlur stdDeviation="2.54545"/>
<feComposite in2="hardAlpha" operator="out"/>
<feColorMatrix type="matrix" values="0 0 0 0 1 0 0 0 0 1 0 0 0 0 1 0 0 0 0.15 0"/>
<feBlend mode="normal" in2="effect1_dropShadow_3913_51" result="effect2_dropShadow_3913_51"/>
<feBlend mode="normal" in="SourceGraphic" in2="effect2_dropShadow_3913_51" result="shape"/>
</filter>
<filter id="filter1_dd_3913_51" x="62.8125" y="8" width="73" height="79.1804" filterUnits="userSpaceOnUse" color-interpolation-filters="sRGB">
<feFlood flood-opacity="0" result="BackgroundImageFix"/>
<feColorMatrix in="SourceAlpha" type="matrix" values="0 0 0 0 0 0 0 0 0 0 0 0 0 0 0 0 0 0 127 0" result="hardAlpha"/>
<feOffset dy="4"/>
<feGaussianBlur stdDeviation="2.75"/>
<feComposite in2="hardAlpha" operator="out"/>
<feColorMatrix type="matrix" values="0 0 0 0 0 0 0 0 0 0 0 0 0 0 0 0 0 0 0.25 0"/>
<feBlend mode="normal" in2="BackgroundImageFix" result="effect1_dropShadow_3913_51"/>
<feColorMatrix in="SourceAlpha" type="matrix" values="0 0 0 0 0 0 0 0 0 0 0 0 0 0 0 0 0 0 127 0" result="hardAlpha"/>
<feOffset dy="-4"/>
<feGaussianBlur stdDeviation="2"/>
<feComposite in2="hardAlpha" operator="out"/>
<feColorMatrix type="matrix" values="0 0 0 0 1 0 0 0 0 1 0 0 0 0 1 0 0 0 0.19 0"/>
<feBlend mode="normal" in2="effect1_dropShadow_3913_51" result="effect2_dropShadow_3913_51"/>
<feBlend mode="normal" in="SourceGraphic" in2="effect2_dropShadow_3913_51" result="shape"/>
</filter>
<filter id="filter2_d_3913_51" x="63.1082" y="25.6541" width="72.3709" height="57.1924" filterUnits="userSpaceOnUse" color-interpolation-filters="sRGB">
<feFlood flood-opacity="0" result="BackgroundImageFix"/>
<feColorMatrix in="SourceAlpha" type="matrix" values="0 0 0 0 0 0 0 0 0 0 0 0 0 0 0 0 0 0 127 0" result="hardAlpha"/>
<feOffset/>
<feGaussianBlur stdDeviation="2.58334"/>
<feColorMatrix type="matrix" values="0 0 0 0 0 0 0 0 0 0 0 0 0 0 0 0 0 0 0.25 0"/>
<feBlend mode="overlay" in2="BackgroundImageFix" result="effect1_dropShadow_3913_51"/>
<feBlend mode="normal" in="SourceGraphic" in2="effect1_dropShadow_3913_51" result="shape"/>
</filter>
<filter id="filter3_d_3913_51" x="105.771" y="10.8333" width="29.7083" height="72.0138" filterUnits="userSpaceOnUse" color-interpolation-filters="sRGB">
<feFlood flood-opacity="0" result="BackgroundImageFix"/>
<feColorMatrix in="SourceAlpha" type="matrix" values="0 0 0 0 0 0 0 0 0 0 0 0 0 0 0 0 0 0 127 0" result="hardAlpha"/>
<feOffset/>
<feGaussianBlur stdDeviation="2.58334"/>
<feColorMatrix type="matrix" values="0 0 0 0 0 0 0 0 0 0 0 0 0 0 0 0 0 0 0.25 0"/>
<feBlend mode="overlay" in2="BackgroundImageFix" result="effect1_dropShadow_3913_51"/>
<feBlend mode="normal" in="SourceGraphic" in2="effect1_dropShadow_3913_51" result="shape"/>
</filter>
<linearGradient id="paint0_linear_3913_51" x1="99.2749" y1="16" x2="99.2749" y2="77.6804" gradientUnits="userSpaceOnUse">
<stop stop-color="white"/>
<stop offset="1" stop-color="white" stop-opacity="0"/>
</linearGradient>
</defs>
</svg>
